<svg width="5722" height="5923" viewBox="0 0 5722 5923" fill="none" xmlns="http://www.w3.org/2000/svg">
<path d="M3733.03 4799.61L4517.28 3940.07L5144.68 4329.06L5615.23 4661.58L4216.13 5389.37L3733.03 4799.61Z" fill="black"/>
<path d="M2484.5 4523.55C2363.54 4710.4 2274.49 4916.07 2221 5132.13L1217.16 4454.54C1292.44 4310.24 1449.29 3971.44 1468.12 3795.77C1498.42 3524.08 1489.97 3249.46 1443.02 2980.15C1356.76 2711.42 1229.81 2457.51 1066.58 2227.27C909.73 1982.58 1104.22 1850.83 1179.51 1857.1C997.566 1668.88 1235.98 1524.58 1443.02 1543.4C1323.81 1417.92 1643.79 1392.83 1838.28 1436.74C1825.73 1361.46 1944.94 1323.81 2076.69 1342.63C2208.45 1361.46 2170.8 1417.92 2340.2 1668.88C2511.45 1964.49 2644.28 2280.74 2735.46 2609.98C2813.2 2877.37 2871.91 3149.92 2911.14 3425.6C3011.52 3312.67 3224.84 3049.16 3293.85 2980.15C3381.69 2886.04 3444.43 2879.76 3544.81 2923.68C3645.19 2967.6 3588.73 3049.16 3544.81 3193.46C3500.89 3337.77 3293.85 3607.55 3118.18 3820.86C2919.73 4066.31 2708.2 4300.88 2484.5 4523.55Z" fill="white"/>
<path d="M3733.03 4812.16L2948.78 4021.63C3129.11 3834.87 3290.9 3631.06 3431.88 3413.06C3532.26 3268.75 3607.55 3080.53 3569.91 2973.88C3532.26 2867.22 3281.3 2929.96 3155.82 3099.36C3093.08 3187.19 2967.6 3350.32 2904.86 3469.52L2572.34 2170.8C2692.1 1863.17 2843.49 1568.8 3024.07 1292.44C3180.92 1116.77 3387.96 1210.88 3438.15 1292.44C3689.11 1116.77 3701.66 1223.43 3795.77 1261.07C3958.89 1110.5 4115.74 1204.61 4172.21 1292.44C4228.68 1273.62 4222.4 1505.76 4172.21 1606.14C4128.29 1712.8 3940.07 1938.67 3827.14 2170.8C3733.03 2359.02 3720.48 2779.38 3733.03 2967.6L4115.74 2641.35C4197.31 2578.61 4266.32 2515.87 4341.61 2559.79C4416.9 2603.71 4322.79 2748.01 4172.21 2936.23C4069.34 3081.45 3990.92 3242.52 3940.07 3413.06L4504.73 3958.89L3733.03 4812.16Z" fill="white"/>
<path d="M1781.81 5922.66L2220.99 5138.41L1060.3 4366.7L451.727 5577.59L1781.81 5922.66Z" fill="#EC0000"/>
<path d="M1160.69 4441.99C1215.06 4333.24 1265.26 4222.4 1311.27 4109.47C1405.38 3845.96 1499.49 3563.63 1455.57 3281.3L1417.92 3099.36C1382.88 2947.37 1330.24 2799.98 1261.07 2660.18C1242.25 2597.44 1229.7 2591.16 1210.88 2559.79L1066.58 2327.65L941.1 2101.79C934.826 2070.42 909.73 2039.05 941.1 2007.68C985.018 2007.68 997.566 2045.32 1016.39 2070.42L1079.13 2183.35C1204.61 2402.94 1348.91 2622.53 1424.2 2879.77L1474.39 3067.99C1495.3 3139.09 1507.85 3208.11 1512.03 3275.03V3306.4C1543.4 3438.15 1512.03 3582.45 1505.76 3714.21C1505.76 3808.32 1461.84 3914.98 1443.02 4009.09C1436.75 4021.63 1455.57 4040.46 1443.02 4053L1411.65 4147.11L1361.46 4272.59C1323.81 4297.69 1342.64 4335.33 1317.54 4366.7L1160.69 4630.21C1141.87 4655.31 1129.32 4692.95 1085.4 4680.4C1060.31 4655.31 1085.4 4617.66 1091.68 4592.57C1116.77 4546.56 1137.69 4496.37 1154.42 4441.99M2290.01 4749.42C2497.05 4278.87 2955.05 4015.36 3224.84 3620.1L3350.32 3431.88C3417.24 3360.77 3469.52 3283.39 3507.17 3199.74C3544.81 3124.45 3582.45 3011.52 3519.71 2980.15L3469.52 2955.05C3452.79 2955.05 3436.06 2961.33 3419.33 2973.88C3344.04 2992.7 3243.66 3099.36 3187.19 3162.1L3011.52 3394.23C2994.79 3431.88 2971.79 3454.88 2942.51 3463.25C2921.59 3454.88 2915.32 3438.15 2923.68 3413.06C2923.68 3387.96 2929.96 3367.05 2942.51 3350.32L3036.62 3218.56C3149.55 3086.81 3243.66 2904.86 3475.8 2886.04C3517.62 2886.04 3555.27 2906.95 3588.73 2948.78C3618.01 2982.24 3630.55 3019.89 3626.37 3061.71C3617.09 3130.62 3593.59 3196.85 3557.36 3256.21C3519.71 3331.49 3477.89 3398.42 3431.88 3456.97C3385.87 3528.08 3335.68 3595 3281.3 3657.74L3262.48 3676.56C3180.92 3814.59 3061.71 3927.52 2967.6 4053C2904.86 4134.57 2804.48 4222.4 2735.46 4303.96C2731.28 4324.88 2722.92 4341.61 2710.37 4354.16C2660.18 4423.17 2584.89 4479.64 2547.24 4561.2C2503.33 4580.02 2509.6 4617.66 2484.5 4655.31C2413.4 4747.33 2359.02 4849.8 2321.38 4962.73C2302.56 4994.1 2296.28 5038.02 2252.37 5044.3C2221 5012.93 2239.82 4969.01 2246.09 4937.64L2290.01 4749.42Z" fill="black"/>
<path d="M2220.99 1461.84C2459.4 1769.27 2572.34 2145.71 2722.91 2490.78L2729.19 2503.33C2779.38 2628.81 2791.93 2748.01 2823.3 2879.77C2823.3 2921.59 2829.57 2948.78 2842.12 2961.33L2892.31 3180.92L2923.68 3381.69C2927.86 3415.15 2917.41 3440.24 2892.31 3456.97C2848.39 3450.7 2854.67 3413.06 2842.12 3394.23C2842.12 3356.59 2835.84 3321.04 2823.3 3287.58L2710.36 2685.27L2672.72 2534.7L2666.45 2509.6C2641.35 2463.59 2620.44 2413.4 2603.71 2359.02C2553.51 2264.91 2528.42 2158.26 2471.95 2070.42C2430.13 2003.5 2392.48 1934.48 2359.02 1863.38C2346.47 1863.38 2336.02 1855.01 2327.65 1838.28L2239.81 1687.71C2239.81 1650.06 2208.44 1650.06 2195.9 1624.97C2158.25 1545.49 2116.43 1476.48 2070.42 1417.92C2057.87 1392.83 2032.77 1374.01 2057.87 1342.64C2095.51 1323.81 2114.33 1355.18 2126.88 1367.73L2220.99 1461.84ZM1179.51 1775.54C1254.8 1867.56 1317.54 1967.94 1367.73 2076.69L1468.11 2239.82L1530.85 2377.85L1543.4 2402.94C1543.4 2419.67 1551.77 2432.22 1568.5 2440.59L1618.69 2528.42C1639.6 2557.7 1652.15 2589.07 1656.33 2622.53C1656.33 2635.08 1668.88 2647.63 1631.24 2666.45C1601.96 2666.45 1585.23 2660.18 1581.04 2647.63L1562.22 2603.71L1468.11 2415.49L1436.74 2346.48L1411.65 2283.74C1399.1 2252.37 1367.73 2233.54 1374 2202.17L1311.26 2108.06L1286.17 2076.69C1256.89 2051.6 1235.97 2022.32 1223.43 1988.86H1198.33C1173.23 1970.04 1173.23 1938.67 1148.14 1919.84C1160.69 1894.75 1135.59 1907.3 1129.32 1894.75C1112.59 1857.1 1091.67 1825.73 1066.58 1800.64C1066.58 1788.09 1047.75 1781.82 1066.58 1750.45C1100.04 1733.71 1118.86 1731.62 1123.04 1744.17L1179.51 1775.54ZM1486.93 1543.4C1643.78 1693.98 1712.8 1919.84 1825.73 2101.79L1907.29 2296.28C1907.29 2321.38 1913.57 2338.11 1926.11 2346.48L1982.58 2459.41L2020.22 2566.07C2028.59 2582.8 2020.22 2599.53 1995.13 2616.26C1957.48 2616.26 1940.75 2607.89 1944.94 2591.16L1919.84 2534.7L1794.36 2214.72L1769.26 2133.16C1748.35 2103.88 1733.71 2072.51 1725.35 2039.05C1681.43 1995.13 1668.88 1932.39 1624.96 1888.47L1549.67 1781.82H1530.85L1468.11 1700.25C1474.39 1668.88 1449.29 1681.43 1443.02 1662.61C1422.1 1620.78 1397.01 1583.14 1367.73 1549.68C1355.18 1541.31 1355.18 1524.58 1367.73 1499.49C1405.37 1474.39 1411.65 1493.21 1430.47 1499.49C1438.83 1516.22 1457.66 1530.86 1486.93 1543.4ZM1901.02 1499.49C2026.5 1668.88 2089.24 1875.93 2189.62 2057.87L2220.99 2108.06L2302.55 2321.38L2327.65 2371.57L2384.12 2490.78C2405.03 2532.6 2415.49 2574.43 2415.49 2616.26C2423.85 2628.81 2413.39 2643.44 2384.12 2660.18C2354.84 2655.99 2340.2 2645.54 2340.2 2628.81L2321.38 2566.07L2195.9 2227.27L2158.25 2145.71C2154.07 2120.61 2145.7 2099.7 2133.16 2082.97C2124.79 2070.42 2120.61 2055.78 2120.61 2039.05C2076.69 1988.86 2064.14 1926.12 2020.22 1882.2L1944.94 1756.72C1944.94 1756.72 1919.84 1756.72 1926.11 1750.45L1869.65 1656.34C1882.2 1631.24 1850.83 1637.51 1844.55 1618.69C1827.82 1572.68 1806.91 1530.86 1781.81 1493.21C1781.81 1474.39 1762.99 1461.84 1794.36 1430.47C1823.64 1422.11 1842.46 1426.29 1850.83 1443.02C1859.19 1459.75 1875.92 1478.57 1901.02 1499.49Z" fill="black"/>
<path d="M2547.24 2064.15C2572.34 1963.76 2612.07 1878.02 2666.45 1806.91L2779.38 1587.32L2886.04 1443.02C2902.77 1434.65 2911.13 1424.2 2911.13 1411.65L2967.6 1330.09L3030.34 1254.8C3030.34 1254.8 3042.89 1235.98 3074.26 1254.8C3090.99 1279.9 3095.17 1296.63 3086.81 1304.99L3055.44 1348.91L2886.04 1562.23L2848.39 1618.69C2829.57 1637.51 2835.85 1675.16 2804.48 1687.71C2798.2 1737.9 2754.28 1769.27 2754.28 1819.46V1844.56L2716.64 1919.84C2725.01 1924.03 2725.01 1930.3 2716.64 1938.67L2691.54 2013.95C2666.45 2013.95 2691.54 2032.77 2679 2045.32C2658.08 2074.6 2643.44 2105.97 2635.08 2139.43C2628.8 2145.71 2635.08 2158.26 2591.16 2164.53C2561.88 2151.98 2551.42 2139.43 2559.79 2126.89L2547.24 2064.15ZM2873.49 2045.32C2923.68 1907.29 2994.79 1777.63 3086.81 1656.34L3149.55 1549.68L3268.75 1399.1C3281.3 1390.74 3289.67 1378.19 3293.85 1361.46L3362.86 1279.9C3387.96 1246.43 3415.15 1223.43 3444.42 1210.88C3463.25 1210.88 3469.52 1192.06 3494.62 1223.43C3513.44 1261.07 3494.62 1267.35 3494.62 1273.62L3456.97 1311.27C3385.87 1378.19 3318.94 1449.29 3256.2 1524.58L3206.01 1581.05C3187.19 1599.87 3180.92 1643.79 3149.55 1656.34L3137 1687.71C3111.9 1721.17 3095.17 1756.72 3086.81 1794.36C3078.44 1832.01 3063.8 1867.56 3042.89 1901.02C3042.89 1901.02 3061.71 1919.84 3049.16 1919.84L3017.79 2001.41C2986.42 2001.41 3011.52 2026.5 2998.97 2039.05L2942.5 2139.43C2942.5 2151.98 2927.86 2158.26 2898.59 2158.26C2869.31 2141.52 2858.85 2126.89 2867.22 2114.34L2873.49 2045.32ZM3149.55 2057.87C3212.29 1888.47 3325.22 1750.45 3431.88 1618.69L3519.71 1505.76C3565.72 1447.2 3615.91 1392.83 3670.29 1342.64C3691.2 1325.9 3701.66 1313.36 3701.66 1304.99L3783.22 1210.88C3808.32 1177.42 3835.5 1148.14 3864.78 1123.05C3877.33 1123.05 3889.88 1104.22 3921.25 1123.05C3940.07 1160.69 3921.25 1173.24 3921.25 1185.79L3877.33 1229.7L3632.64 1480.66L3569.9 1543.4C3544.81 1562.23 3538.53 1606.14 3507.16 1618.69L3482.07 1656.34C3452.79 1689.8 3427.69 1729.53 3406.78 1775.54L3344.04 1888.47C3352.41 1892.66 3352.41 1901.02 3344.04 1913.57L3300.12 2001.41C3275.03 2001.41 3293.85 2026.5 3281.3 2039.05C3252.02 2072.51 3231.11 2112.25 3218.56 2158.26C3214.38 2170.8 3197.65 2177.08 3168.37 2177.08C3130.72 2164.53 3143.27 2145.71 3137 2133.16C3149.55 2108.06 3153.73 2082.97 3149.55 2057.87ZM3463.25 2145.71L3557.36 1982.58L3776.95 1687.71L3814.59 1624.97L3952.62 1468.12C3973.53 1455.57 3983.99 1440.93 3983.99 1424.2L4065.55 1336.36L4140.84 1254.8C4153.39 1254.8 4165.93 1235.98 4197.3 1261.07C4216.13 1298.72 4197.3 1304.99 4197.3 1317.54L4153.39 1361.46L3921.25 1599.87L3864.78 1662.61L3827.14 1725.35L3802.04 1737.9C3783.22 1800.64 3739.3 1832.01 3720.48 1888.47L3657.74 2001.41C3651.47 2001.41 3670.29 2026.5 3657.74 2026.5L3645.19 2045.32C3628.46 2062.05 3615.91 2082.97 3607.55 2108.06C3582.45 2108.06 3601.27 2133.16 3588.73 2145.71C3555.26 2179.17 3528.08 2214.72 3507.16 2252.37C3507.16 2264.91 3490.43 2269.1 3456.97 2264.91C3425.6 2246.09 3438.15 2227.27 3438.15 2214.72L3463.25 2145.71ZM3651.47 2835.85C3651.47 2752.19 3659.83 2668.54 3676.56 2584.89C3689.11 2459.41 3718.39 2333.93 3764.4 2208.45L3827.14 2051.6L3921.25 1888.47L3965.17 1813.19C3990.26 1792.27 4002.81 1775.54 4002.81 1762.99L4090.65 1637.51L4178.48 1524.58C4197.3 1518.31 4209.85 1499.48 4241.22 1524.58C4272.59 1549.68 4247.5 1562.23 4241.22 1581.05L4197.3 1643.79L3983.99 1919.84L3946.34 1982.58L3896.15 2070.42C3871.06 2108.06 3871.06 2151.98 3833.41 2183.35L3827.14 2233.54C3802.04 2283.73 3789.49 2338.11 3789.49 2396.67L3770.67 2553.52C3770.67 2566.07 3795.77 2572.34 3783.22 2578.61V2591.16L3770.67 2704.09C3745.58 2722.92 3770.67 2735.46 3770.67 2760.56C3758.12 2785.66 3751.85 2814.93 3751.85 2848.4V2936.23L3739.3 2955.05L3726.75 2967.6C3718.39 2959.24 3714.21 2959.24 3714.21 2967.6H3733.03V2973.88L3714.21 2980.15H3701.66V2967.6L3689.11 2961.33L3676.56 2942.51V2929.96L3657.74 2848.4L3651.47 2835.85Z" fill="black"/>
<path d="M3720.48 2923.68C3798.16 2833.66 3886.66 2753.58 3983.99 2685.27C4055.09 2635.08 4130.38 2593.25 4209.85 2559.79C4234.95 2534.7 4276.77 2524.24 4335.33 2528.42C4347.88 2528.42 4360.43 2538.88 4372.97 2559.79C4385.52 2580.71 4391.8 2595.34 4391.8 2603.71C4391.8 2637.17 4385.52 2662.27 4372.97 2679L4310.23 2785.66L4285.14 2817.03L4096.92 3080.53C4071.82 3109.81 4061.37 3130.73 4065.55 3143.27L4059.27 3155.82C4025.81 3210.2 4004.9 3262.48 3996.53 3312.67L3958.89 3425.6L3946.34 3475.8L3940.07 3500.89L3927.52 3513.44L3914.97 3519.71C3914.97 3528.08 3910.79 3532.26 3902.42 3532.26L3889.88 3525.99L3902.42 3519.71H3883.6L3871.05 3494.62V3463.25L3889.88 3362.86C3912.4 3277.23 3946.15 3194.96 3990.26 3118.18L4147.11 2892.31L4228.67 2785.66L4253.77 2748.01L4316.51 2660.18L4329.06 2609.98C4329.06 2601.62 4324.87 2595.34 4316.51 2591.16C4299.78 2582.8 4274.68 2591.16 4241.22 2616.26L4203.58 2641.35L4046.73 2760.56C4046.73 2777.29 4042.54 2785.66 4034.18 2785.66L3914.97 2886.04C3883.6 2886.04 3889.88 2917.41 3871.05 2929.96L3789.49 2992.7L3720.48 3067.99C3701.66 3080.53 3689.11 3105.63 3657.74 3086.81C3632.64 3055.44 3651.46 3042.89 3657.74 3024.07L3720.48 2929.96V2923.68ZM3093.08 4122.02L3500.89 4554.92C3576.18 4638.58 3653.56 4713.86 3733.03 4780.79L3871.05 4925.09L3946.34 5000.38C3967.26 5025.47 3988.17 5040.11 4009.08 5044.3L4134.56 5157.23C4176.39 5186.51 4218.22 5224.15 4260.04 5270.16L4285.14 5301.53C4285.14 5318.26 4278.86 5330.81 4266.32 5339.17H4228.67L4209.85 5320.35L4147.11 5270.16L4065.55 5207.42L3814.59 4975.28L3776.94 4925.09L3695.38 4837.25C3664.01 4793.34 3613.82 4774.51 3588.72 4724.32C3542.72 4690.86 3498.8 4649.03 3456.97 4598.84L3394.23 4554.92L3256.2 4429.44C3243.65 4429.44 3233.2 4425.26 3224.83 4416.9C3187.19 4391.8 3162.09 4341.61 3118.17 4316.51C3118.17 4278.87 3093.08 4291.42 3074.26 4266.32L2955.05 4109.47C2948.78 4090.65 2929.95 4071.83 2955.05 4046.73C2980.15 4021.63 2998.97 4046.73 3017.79 4059.28C3038.7 4084.37 3063.8 4105.29 3093.08 4122.02Z" fill="black"/>
<path d="M4140.84 3519.71L4303.96 3664.02C4458.72 3814.59 4626.03 3952.62 4805.88 4078.1L4981.56 4191.03L5282.71 4398.07L5295.25 4404.35L5358 4441.99L5533.67 4561.2L5690.52 4674.13C5711.43 4686.68 5721.89 4707.59 5721.89 4736.87C5690.52 4768.24 5659.15 4743.14 5640.33 4736.87L5552.49 4680.4L5251.34 4467.09L5075.67 4341.61L4956.46 4253.77C4906.27 4224.49 4858.17 4191.03 4812.16 4153.39L4768.24 4128.29L4548.65 3983.99C4485.91 3952.62 4429.44 3889.88 4372.98 3852.24C4356.25 3852.24 4343.7 3848.05 4335.33 3839.69L4228.68 3758.13L4197.31 3733.03C4197.31 3695.39 4159.66 3701.66 4140.84 3676.56C4090.65 3618.01 4038.36 3563.63 3983.99 3513.44C3963.08 3500.89 3954.71 3477.89 3958.89 3444.43C3990.26 3419.33 4009.09 3444.43 4034.18 3444.43C4063.46 3477.89 4099.01 3502.98 4140.84 3519.71ZM1192.06 4391.8L1361.46 4523.55C1469.21 4632.18 1591.71 4725.11 1725.35 4799.61C1779.72 4845.62 1842.46 4891.63 1913.57 4937.64C1926.12 4954.37 1938.66 4962.73 1951.21 4962.73L2064.15 5025.47H2076.69C2105.97 5029.66 2139.43 5044.3 2177.08 5069.39C2177.08 5081.94 2183.35 5090.3 2195.9 5094.49L2183.35 5132.13L2151.98 5144.68H2133.16L2082.97 5119.58L2032.78 5100.76C1937.18 5049.67 1848.6 4986.4 1769.27 4912.54C1739.99 4899.99 1714.89 4883.26 1693.98 4862.35L1656.33 4830.98C1635.42 4822.61 1618.69 4810.07 1606.14 4793.34C1543.4 4774.51 1499.48 4724.32 1436.74 4699.23C1392.83 4686.68 1361.46 4642.76 1323.81 4617.66C1311.26 4626.03 1302.9 4626.03 1298.72 4617.66L1286.17 4611.39L1217.15 4548.65C1217.15 4523.55 1192.06 4536.1 1179.51 4523.55L1072.85 4410.62C1072.85 4398.07 1054.03 4385.53 1072.85 4354.16C1110.5 4335.33 1116.77 4354.16 1129.32 4354.16C1146.05 4370.89 1166.96 4383.43 1192.06 4391.8ZM1235.98 4893.72C1185.78 5019.2 1091.67 5100.76 1028.93 5207.42L953.647 5345.45L865.811 5489.75L846.989 5527.39L815.619 5621.5C815.619 5654.96 807.254 5684.24 790.523 5709.34C786.34 5721.89 769.61 5726.07 740.331 5721.89C702.687 5709.34 715.235 5696.79 708.961 5684.24L721.509 5634.05C750.788 5533.67 794.706 5447.92 853.263 5376.82L897.181 5314.08C916.003 5295.26 909.729 5257.61 941.099 5245.06C945.282 5219.97 955.738 5196.96 972.469 5176.05L997.565 5113.31C1010.11 5071.48 1028.93 5038.02 1054.03 5012.93C1054.03 5006.65 1035.21 4987.83 1054.03 4994.1C1054.03 4962.73 1085.4 4950.19 1091.67 4918.82C1116.77 4918.82 1097.95 4899.99 1110.5 4893.72L1173.24 4805.88C1177.42 4793.34 1194.15 4789.15 1223.43 4793.34C1261.07 4812.16 1248.52 4824.71 1248.52 4837.25C1240.16 4853.98 1235.98 4874.9 1235.98 4899.99M1612.42 4962.73C1537.13 5125.86 1399.1 5238.79 1317.54 5401.91L1223.43 5521.12C1206.7 5537.85 1200.42 5550.4 1204.61 5558.76L1154.41 5646.6L1104.22 5721.89C1104.22 5738.62 1087.49 5740.71 1054.03 5728.16C1028.93 5707.25 1024.75 5692.61 1041.48 5684.24C1090.3 5584.95 1151.43 5492.2 1223.43 5408.19L1267.35 5345.45C1286.17 5332.9 1286.17 5295.26 1317.54 5282.71C1330.09 5232.52 1380.28 5207.42 1386.55 5157.23C1399.1 5123.77 1417.92 5092.4 1443.02 5063.12C1434.65 5050.57 1432.56 5042.2 1436.74 5038.02L1480.66 4975.28C1505.76 4975.28 1480.66 4950.19 1499.48 4937.64C1524.58 4912.54 1545.49 4885.35 1562.22 4856.08C1570.59 4843.53 1589.41 4839.34 1618.69 4843.53C1650.06 4868.62 1637.51 4881.17 1637.51 4893.72C1629.15 4906.27 1622.87 4927.18 1618.69 4956.46" fill="black"/>
<path d="M1888.47 5081.94L1794.36 5251.34C1735.8 5334.99 1687.7 5424.92 1650.06 5521.12L1612.42 5583.86L1562.22 5665.42C1545.49 5682.15 1539.22 5694.7 1543.4 5703.07L1499.48 5784.63V5809.72L1461.84 5872.46C1449.29 5878.74 1436.74 5897.56 1411.65 5872.46C1394.92 5847.37 1388.64 5832.73 1392.83 5828.55L1405.37 5790.9L1417.92 5765.81C1459.75 5686.34 1503.67 5615.23 1549.68 5552.49L1587.32 5496.02C1591.5 5466.75 1604.05 5441.65 1624.96 5420.74C1631.24 5376.82 1668.88 5339.17 1675.16 5295.26C1679.34 5261.79 1691.89 5232.52 1712.8 5207.42L1719.07 5194.87C1719.07 5194.87 1700.25 5176.05 1719.07 5176.05L1750.44 5107.04C1775.54 5107.04 1750.44 5088.21 1762.99 5075.67L1838.28 4987.83C1846.64 4975.28 1863.37 4975.28 1888.47 4987.83C1919.84 5019.2 1907.29 5025.47 1907.29 5031.75C1894.75 5048.48 1888.47 5065.21 1888.47 5081.94ZM3726.75 4736.87L3827.14 4630.21C3948.43 4525.65 4059.28 4412.71 4159.66 4291.42L4172.21 4278.87L4303.96 4147.11C4324.87 4130.38 4335.33 4115.74 4335.33 4103.2L4379.25 4059.28L4404.34 4015.36C4421.08 3981.9 4446.17 3952.62 4479.63 3927.52H4485.91C4485.91 3919.16 4500.55 3919.16 4529.82 3927.52C4550.74 3952.62 4552.83 3969.35 4536.1 3977.72L4498.45 4027.91L4435.71 4109.47C4385.52 4172.21 4333.24 4226.58 4278.86 4272.59L4222.4 4329.06H4216.12C4184.75 4354.16 4178.48 4391.8 4140.84 4404.35C4115.74 4454.54 4059.28 4485.91 4034.18 4542.38L3952.62 4636.49V4661.58L3908.7 4705.5L3883.6 4730.6C3852.23 4730.6 3864.78 4755.69 3852.23 4761.97L3751.85 4849.8C3739.3 4849.8 3733.03 4868.62 3701.66 4849.8C3684.93 4828.89 3680.74 4812.16 3689.11 4799.61C3705.84 4782.88 3718.39 4761.97 3726.75 4736.87Z" fill="black"/>
<path d="M4441.99 1129.32C4517.28 1003.84 4642.76 909.73 4705.5 777.976L4799.61 652.496C4812.16 648.313 4818.43 639.948 4818.43 627.4L4862.35 552.112C4870.72 527.016 4885.35 506.103 4906.27 489.372C4912.54 489.372 4918.82 470.55 4950.19 489.372C4981.56 520.742 4969.01 527.016 4969.01 533.29L4950.19 570.934C4909.69 639.156 4861.25 702.337 4805.88 759.154L4768.24 809.346L4724.32 872.086C4711.77 909.73 4667.86 934.826 4661.58 978.744C4661.58 1010.11 4630.21 1028.94 4617.66 1054.03C4626.03 1066.58 4626.03 1072.85 4617.66 1072.85C4617.66 1097.95 4586.29 1110.5 4580.02 1135.59C4554.92 1135.59 4580.02 1154.42 4561.2 1160.69C4531.92 1177.42 4511.01 1198.33 4498.46 1223.43C4494.27 1235.98 4477.54 1235.98 4448.27 1223.43C4416.9 1204.61 4429.44 1192.06 4429.44 1185.79L4441.99 1129.32ZM3977.72 596.03C3983.99 495.646 4040.46 388.988 4009.09 282.33V169.398C4013.27 156.85 4013.27 148.485 4009.09 144.302L3996.54 81.562V18.822L4027.91 0C4071.83 0 4065.55 12.548 4071.83 18.822V50.192C4084.37 112.932 4086.47 171.489 4078.1 225.864V276.056C4071.83 288.604 4090.65 307.426 4078.1 326.248C4090.65 357.618 4071.83 388.988 4090.65 420.358C4099.01 445.454 4099.01 468.459 4090.65 489.372C4090.65 495.646 4115.74 501.92 4103.2 501.92C4109.47 520.742 4090.65 539.564 4096.92 564.66C4071.83 564.66 4096.92 577.208 4096.92 583.482L4053 652.496C4061.37 665.044 4048.82 667.135 4015.36 658.77C3977.72 646.222 3983.99 639.948 3977.72 633.674V596.03ZM401.536 884.634C495.646 953.648 539.564 1072.85 639.948 1148.14L715.236 1235.98C715.236 1252.71 721.51 1258.98 734.058 1254.8L784.25 1304.99C800.981 1321.72 813.529 1344.73 821.894 1374.01V1405.38C819.724 1409.3 816.542 1412.57 812.681 1414.84C808.819 1417.12 804.418 1418.32 799.935 1418.32C795.452 1418.32 791.051 1417.12 787.189 1414.84C783.328 1412.57 780.146 1409.3 777.976 1405.38L752.88 1392.83H746.606L727.784 1380.28L621.126 1229.7C608.578 1221.34 598.121 1208.79 589.756 1192.06C581.391 1175.33 570.934 1160.69 558.386 1148.14C520.742 1135.59 514.468 1097.95 476.824 1085.4L420.358 1041.48H401.536L363.892 1003.84C376.44 985.018 351.344 997.566 351.344 985.018L307.426 922.278C307.426 909.73 294.878 909.73 326.248 878.36C347.161 861.629 359.709 857.447 363.892 865.812L401.536 884.634ZM464.276 2051.6C376.44 2095.52 288.604 2032.78 200.768 2051.6L119.206 2032.78H100.384L56.466 2039.05H12.548L0 2007.68C0 1970.04 6.27399 1976.31 12.548 1970.04L37.644 1963.76C87.836 1963.76 133.845 1970.04 175.672 1982.58L207.042 1988.86L244.686 1995.13C269.782 1982.58 288.604 2007.68 307.426 1988.86C326.248 1970.04 345.07 1988.86 357.618 1976.31L363.892 1963.76H401.536C407.81 1982.58 407.81 1957.49 414.084 1957.49C430.815 1965.85 447.545 1965.85 464.276 1957.49L489.372 1988.86C501.92 2018.14 504.011 2032.78 495.646 2032.78L464.276 2051.6Z" fill="#EC0000"/>
</svg>
