<svg width="6780" height="5478" viewBox="0 0 6780 5478" fill="none" xmlns="http://www.w3.org/2000/svg">
<path d="M1276.45 2312.2C1011.27 2114.11 802.554 1850.08 671.047 1546.33L2348.67 1349.39L3399 1298.33C3428.18 1298.33 3340.65 1633.86 3223.95 1838.09C3116.27 2031.83 2963.69 2196.91 2779.01 2319.49C2551.29 2457.22 2290.22 2530.02 2024.08 2530.02C1757.95 2530.02 1496.88 2457.22 1269.15 2319.49" fill="#EC0000"/>
<path d="M1670.33 576.225L2253.85 109.409C2596.67 -65.647 2910.31 167.761 3202.07 517.873C3287.34 621.514 3349.64 742.076 3384.85 871.587C3420.05 1001.1 3427.36 1136.61 3406.3 1269.16C3347.95 1276.45 3194.77 1298.33 3056.19 1298.33C2917.6 1298.33 2538.31 1334.8 2363.26 1356.68L2275.73 576.225H1670.33Z" fill="white"/>
<path d="M2574.78 423.052C2596.06 423.052 2616.47 414.598 2631.51 399.551C2646.56 384.505 2655.01 364.097 2655.01 342.818C2655.01 321.538 2646.56 301.13 2631.51 286.084C2616.47 271.037 2596.06 262.583 2574.78 262.583C2553.5 262.583 2533.09 271.037 2518.05 286.084C2503 301.13 2494.55 321.538 2494.55 342.818C2494.55 364.097 2503 384.505 2518.05 399.551C2533.09 414.598 2553.5 423.052 2574.78 423.052ZM2297.61 204.232C2326.78 452.228 2297.61 714.812 2348.67 970.102L2370.55 1225.39V1291.04L2392.43 1436.92C2407.02 1480.68 2411.88 1526.88 2407.02 1575.5C2411.88 1594.95 2399.72 1609.54 2370.55 1619.27C2326.78 1619.27 2334.08 1590.09 2326.78 1575.5V1502.56C2302.47 1366.41 2290.31 1227.82 2290.31 1086.81V984.689L2275.73 860.692C2253.84 787.752 2275.73 714.812 2246.55 641.872C2231.96 593.245 2224.67 542.187 2224.67 488.697C2224.67 481.403 2195.49 474.11 2210.08 466.816C2195.49 423.052 2210.08 379.288 2195.49 342.818C2217.37 320.935 2195.49 313.641 2195.49 291.759V123.997C2202.79 109.409 2195.49 87.5275 2239.26 80.2335C2283.02 72.9395 2268.43 102.115 2275.73 116.703L2297.61 204.232ZM1181.63 2159.02L1232.68 2202.79H1239.98L1283.74 2246.55C1370.8 2308.76 1463.62 2362.49 1560.91 2407.02L1633.85 2436.2L1684.91 2458.08C1757.85 2487.25 1833.22 2506.7 1911.03 2516.43L1983.97 2523.72H2093.38L2137.14 2516.43L2217.37 2509.14H2231.96L2290.31 2494.55L2363.25 2479.96L2407.02 2465.37H2428.9L2450.78 2458.08L2479.96 2443.49C2514 2433.76 2535.88 2424.04 2545.6 2414.31V2407.02L2589.37 2392.43L2625.84 2370.55L2647.72 2355.96L2676.9 2341.37L2720.66 2304.9L2727.95 2297.61L2757.13 2268.43C2771.72 2268.43 2783.88 2258.71 2793.6 2239.26L2866.54 2180.91L2903.01 2159.02H2939.48V2195.49L2917.6 2239.26L2844.66 2312.2L2735.25 2385.14L2655.01 2436.2L2596.66 2472.67L2560.19 2487.25H2545.6L2531.02 2494.55L2458.08 2531.02H2399.72L2348.67 2545.61L2290.31 2560.19L2253.84 2567.49H2217.37L2180.9 2574.78H2107.96L2049.61 2589.37H1998.55L1976.67 2582.08H1918.32L1881.85 2574.78L1845.38 2567.49H1816.2L1779.73 2552.9H1765.15L1692.21 2538.31H1663.03L1619.27 2523.72L1582.8 2516.43L1568.21 2501.84H1553.62L1546.33 2494.55H1524.44L1509.86 2479.96H1487.97L1436.92 2450.78H1400.45L1371.27 2436.2L1342.09 2421.61L1312.92 2399.73L1291.04 2385.14L1269.15 2370.55L1247.27 2355.96V2341.37L1218.1 2326.79L1181.63 2312.2V2297.61L1167.04 2290.32L1152.45 2275.73L1137.86 2261.14L1028.45 2137.14L1006.57 2093.38L1013.86 2064.2C1023.59 2059.34 1033.31 2059.34 1043.04 2064.2C1057.63 2064.2 1069.78 2071.5 1079.51 2086.08L1137.86 2137.14L1181.63 2159.02Z" fill="black"/>
<path d="M2385.14 7.29396H2538.31C2629.64 14.8946 2718.73 39.6398 2800.89 80.234L2903.01 138.586L3070.77 277.172L3158.3 364.7L3245.83 488.698L3282.3 539.756L3304.18 598.108L3318.77 641.872L3326.06 663.754L3333.36 678.342L3347.94 700.224C3347.94 734.263 3352.81 753.713 3362.53 758.576L3369.83 773.164L3377.12 809.634L3391.71 846.104V867.986L3399 897.162L3413.59 948.22V991.984L3428.18 1028.45V1115.98L3406.3 1152.45C3406.3 1162.18 3399 1167.04 3384.41 1167.04C3369.83 1167.04 3360.1 1162.18 3355.24 1152.45L3347.94 1115.98V1028.45L3326.06 926.338L3318.77 853.398L3296.89 802.34V773.164L3282.3 751.282L3260.42 685.636L3253.12 649.166L3238.53 612.696L3216.65 568.932L3202.06 539.756L3187.48 517.874L3172.89 495.992L3158.3 466.816L3136.42 437.64L3107.24 401.17L3099.95 386.582L3078.07 371.994L3070.77 350.112L3056.18 335.524L3034.3 328.23L3012.42 299.054L2975.95 269.878L2946.77 255.29V247.996L2895.72 211.526H2888.42L2866.54 204.232L2837.36 189.644L2808.19 182.35L2793.6 175.056L2786.31 167.762H2764.42L2749.84 153.174H2735.25L2691.48 138.586H2633.13L2618.54 123.998L2596.66 116.704H2560.19L2538.31 109.41L2531.02 102.116H2443.49L2421.61 94.822L2290.31 102.116H2253.84L2231.96 80.234L2239.26 51.058L2275.73 29.176L2348.67 14.588L2377.84 0M2253.84 160.468C2180.9 211.526 2129.85 211.526 2071.49 262.584L2005.85 335.524C1940.2 364.7 1940.2 393.876 1896.44 415.758L1889.14 423.052L1808.91 474.11C1735.97 525.168 1772.44 517.874 1706.79 554.344C1677.62 561.638 1677.62 619.99 1626.56 554.344C1607.11 539.756 1607.11 522.737 1626.56 503.286C1641.15 459.522 1743.26 430.346 1772.44 401.17L1830.79 357.406C1976.67 218.82 1976.67 240.702 2173.61 94.822L2202.79 72.9399C2224.67 72.9399 2275.73 138.586 2246.55 160.468" fill="black"/>
<path d="M2231.96 605.401C2166.32 605.401 2129.85 576.225 2064.2 590.813L1991.26 605.401C1932.91 598.107 1918.32 619.989 1881.85 605.401H1684.91C1663.03 598.107 1633.86 634.577 1633.86 554.343C1633.86 517.873 1633.86 525.167 1655.74 510.579C1692.21 495.991 1772.44 525.167 1808.91 525.167C2027.73 503.285 1991.26 510.579 2217.38 510.579H2246.55C2253.85 525.167 2253.85 605.401 2231.96 605.401ZM87.528 787.751L211.526 853.397L226.114 867.985L299.054 926.337H306.348L328.23 955.513L386.582 1013.86L444.934 1072.22L466.816 1101.39C466.816 1115.98 474.11 1123.27 488.698 1123.27L517.874 1159.74C551.913 1208.37 576.226 1237.55 590.814 1247.27L605.402 1254.57C629.715 1269.15 644.303 1288.61 649.166 1312.92L700.224 1371.27L707.518 1385.86L722.106 1400.45L751.282 1444.21L809.634 1517.15L816.928 1531.74L853.398 1582.8L889.868 1648.44L955.514 1794.32L970.102 1867.26C970.102 1881.85 962.808 1894.01 948.22 1903.73L904.456 1889.14L867.986 1830.79L795.046 1692.21L619.99 1422.33L612.696 1415.03L539.756 1342.09L510.58 1298.33C510.58 1283.74 505.717 1276.45 495.992 1276.45L488.698 1261.86L401.17 1159.74L357.406 1108.69L306.348 1050.33L269.878 1021.16L247.996 991.983L196.938 948.219C187.213 948.219 175.056 940.925 160.468 926.337L116.704 889.867L65.646 860.691L21.882 846.103L0 831.515V787.751L14.588 773.163H87.528M634.578 955.513L700.224 999.277L743.988 1028.45L758.576 1050.33L787.752 1079.51L809.634 1108.69L816.928 1123.27L831.516 1137.86L846.104 1152.45C855.829 1186.49 865.555 1201.08 875.28 1196.21L882.574 1203.51L897.162 1232.68L919.044 1261.86H926.338V1276.45L940.926 1298.33L970.102 1327.51V1334.8C979.827 1334.8 987.121 1342.09 991.984 1356.68L1013.87 1378.56L1050.34 1436.92L1057.63 1473.39L1050.34 1509.86L1021.16 1524.44L984.69 1509.86L955.514 1480.68L926.338 1444.21L875.28 1371.27L838.81 1312.92V1305.62L809.634 1269.15L795.046 1247.27L787.752 1232.68L751.282 1181.63L736.694 1152.45L714.812 1123.27L700.224 1108.69L692.93 1094.1L663.754 1079.51L649.166 1064.92L627.284 1050.33L605.402 1035.75H590.814L583.52 1028.45V999.277L590.814 977.395H627.284M991.984 970.101L1050.34 1013.86L1094.1 1043.04L1101.39 1064.92L1130.57 1094.1L1152.45 1123.27L1167.04 1137.86L1174.33 1152.45L1188.92 1167.04C1203.51 1196.21 1215.67 1210.8 1225.39 1210.8V1218.1C1239.98 1227.82 1247.27 1237.55 1247.27 1247.27L1269.16 1276.45V1283.74L1276.45 1291.04L1291.04 1312.92L1312.92 1349.39V1356.68L1334.8 1385.86L1349.39 1415.03L1371.27 1487.97V1524.44L1342.1 1553.62H1305.63L1276.45 1524.44L1247.27 1458.8L1210.8 1385.86L1181.63 1327.51V1320.21L1152.45 1283.74L1137.86 1261.86L1130.57 1247.27L1094.1 1196.21L1079.51 1167.04C1079.51 1152.45 1072.22 1142.73 1057.63 1137.86L1043.04 1123.27L1035.75 1108.69L1013.87 1094.1L991.984 1079.51L977.396 1057.63L955.514 1043.04C955.514 1033.32 950.651 1028.45 940.926 1028.45H926.338V999.277L940.926 970.101L955.514 948.219L991.984 970.101ZM2107.97 2771.72L2056.91 2830.07V2837.36L2027.73 2881.13L2013.14 2895.72L1983.97 2932.19C1983.97 2946.77 1976.67 2958.93 1962.09 2968.66C1962.09 2983.24 1957.22 2988.11 1947.5 2983.24L1940.2 3005.13L1925.62 3027.01L1889.15 3078.07V3092.66L1867.26 3121.83L1845.38 3158.3V3165.59L1838.09 3172.89L1816.21 3202.06L1794.32 3245.83V3253.12L1772.44 3282.3L1750.56 3318.77L1692.21 3384.42L1655.74 3406.3H1619.27L1604.68 3369.83L1611.97 3333.36L1633.86 3296.89L1663.03 3253.12L1757.85 3114.54L1765.15 3099.95H1772.44L1801.62 3048.89L1816.21 3019.71L1823.5 3012.42L1830.79 3005.13L1874.56 2939.48L1896.44 2910.3L1940.2 2851.95L1954.79 2837.36L1976.67 2800.9L1991.26 2779.01L2013.14 2757.13C2013.14 2742.54 2020.44 2732.82 2035.03 2727.95L2049.61 2706.07V2698.78H2064.2L2093.38 2713.37L2107.97 2727.95V2771.72ZM2742.54 2582.07V2727.95L2735.25 2749.84V2844.66L2720.66 2866.54V2983.24H2727.96V3260.42L2706.07 3391.71L2669.6 3406.3L2640.43 3391.71L2625.84 3347.95V3063.48H2633.13V2866.54L2640.43 2822.78L2647.72 2779.01V2625.84L2655.02 2589.37V2552.9L2669.6 2545.6H2720.66C2735.25 2555.33 2742.54 2565.06 2742.54 2574.78" fill="black"/>
<path d="M3836.64 4157.58C3749.12 3165.59 4631.69 3012.42 5083.92 3063.48C5054.74 3165.59 4996.39 3428.18 4996.39 3639.7C4996.39 3902.29 4967.21 4157.58 4996.39 4245.11C5018.27 4318.05 4624.4 4274.28 4412.87 4245.11L4077.35 4996.39C3987.74 4720.21 3909.87 4440.35 3843.94 4157.58" fill="white"/>
<path d="M6776.12 2749.84C6793.66 2502.67 6747.95 2255.12 6643.31 2030.52C6538.66 1805.91 6378.53 1611.67 6178.02 1466.09L5528.85 2275.73L5091.21 3085.36C5091.21 3085.36 4981.8 3566.77 4981.8 3690.76V4274.28C5310.03 4274.28 5813.32 4150.29 6097.78 3982.52C6447.89 3778.29 6717.77 3450.06 6768.83 2757.13" fill="#EC0000"/>
<path d="M4157.58 3946.05C4178.86 3946.05 4199.27 3937.6 4214.31 3922.55C4229.36 3907.51 4237.81 3887.1 4237.81 3865.82C4237.81 3844.54 4229.36 3824.13 4214.31 3809.09C4199.27 3794.04 4178.86 3785.59 4157.58 3785.59C4136.3 3785.59 4115.89 3794.04 4100.84 3809.09C4085.8 3824.13 4077.34 3844.54 4077.34 3865.82C4077.34 3887.1 4085.8 3907.51 4100.84 3922.55C4115.89 3937.6 4136.3 3946.05 4157.58 3946.05ZM5762.26 4252.4C5769.55 4398.28 5725.79 4544.16 5762.26 4682.75L5754.96 4828.63V4857.8L5769.55 4930.74V5010.98C5774.41 5025.57 5762.26 5035.29 5733.08 5040.15C5708.77 5040.15 5696.61 5032.86 5696.61 5018.27V4974.51C5682.02 4901.57 5679.59 4823.77 5689.32 4741.1V4682.75C5679.59 4663.3 5679.59 4638.98 5689.32 4609.81L5674.73 4493.1L5667.44 4405.58C5667.44 4405.58 5638.26 4405.58 5652.85 4398.28V4325.34C5667.44 4318.05 5645.55 4310.75 5652.85 4296.17L5667.44 4208.64C5662.57 4194.05 5674.73 4184.32 5703.91 4179.46C5728.22 4179.46 5740.38 4186.76 5740.38 4201.34C5740.38 4220.79 5745.24 4237.81 5754.96 4252.4M5412.15 4427.46C5412.15 4500.4 5375.68 4544.16 5375.68 4609.81C5375.68 4624.4 5390.26 4682.75 5382.97 4697.34C5368.38 4762.98 5382.97 4777.57 5382.97 4821.33C5368.38 4855.37 5361.09 4889.41 5361.09 4923.45L5346.5 5040.15C5339.21 5062.04 5375.68 5098.51 5295.44 5091.21C5251.68 5091.21 5258.97 5083.92 5251.68 5062.04C5237.09 5018.27 5280.85 4930.74 5280.85 4886.98C5280.85 4638.98 5295.44 4682.75 5317.32 4434.75V4405.58C5339.21 4390.99 5412.15 4405.58 5412.15 4427.46Z" fill="black"/>
<path d="M6739.66 3260.42C6630.25 3617.82 6316.6 3865.82 6024.84 4055.46L5937.32 4113.82C5820.61 4186.76 5696.61 4208.64 5565.32 4245.11C5506.97 4252.4 5499.68 4259.7 5477.79 4274.28C5424.31 4274.28 5370.82 4284.01 5317.33 4303.46H5244.39C5171.45 4313.19 5103.37 4313.19 5040.15 4303.46C5010.98 4308.32 4986.67 4296.17 4967.21 4266.99C4986.67 4237.81 5010.98 4225.66 5040.15 4230.52H5149.56L5310.03 4223.23C5455.91 4198.91 5601.79 4164.87 5747.67 4121.11C5806.02 4106.52 5854.65 4087.07 5893.55 4062.76L5995.67 4004.41L6061.31 3967.94C6134.25 3895 6236.37 3843.94 6302.02 3756.41L6447.9 3581.35L6462.48 3544.88L6557.31 3399C6593.78 3384.42 6571.89 3355.24 6593.78 3326.06C6637.54 3257.99 6669.15 3185.05 6688.6 3107.24C6698.32 3078.07 6717.77 3061.05 6746.95 3056.19C6771.26 3075.64 6776.13 3099.95 6761.54 3129.13L6739.66 3260.42ZM6170.72 1553.62C6095.1 1444.68 6045.21 1319.97 6024.84 1188.92L5973.79 1021.16C5964.06 957.945 5961.63 894.731 5966.49 831.516V780.458L5973.79 722.106L5981.08 671.048C5990.81 632.147 6005.39 600.539 6024.84 576.226C6029.71 561.638 6046.73 556.775 6075.9 561.638C6100.22 581.089 6105.08 598.108 6090.49 612.696L6075.9 656.46L6046.73 736.694L6032.14 933.632V1006.57C6032.14 1035.75 6061.31 1057.63 6054.02 1094.1L6083.2 1174.33C6083.2 1198.65 6090.49 1218.1 6105.08 1232.69L6156.14 1334.8H6170.72L6207.19 1415.04C6207.19 1429.62 6214.49 1439.35 6229.08 1444.21C6233.94 1487.98 6250.96 1522.01 6280.13 1546.33C6289.86 1556.05 6287.43 1573.07 6272.84 1597.39C6243.66 1619.27 6236.37 1597.39 6221.78 1597.39C6207.19 1577.94 6190.18 1563.35 6170.72 1553.62ZM5871.67 1123.28C5871.67 1196.22 5849.79 1254.57 5871.67 1320.21L5922.73 1400.45C5922.73 1434.49 5932.45 1458.8 5951.9 1473.39L5981.08 1524.45L6032.14 1626.56C6068.61 1699.5 6061.31 1670.33 6105.08 1728.68C6112.37 1757.85 6156.14 1728.68 6119.67 1801.62C6109.94 1830.79 6092.92 1838.09 6068.61 1823.5C6002.96 1801.62 5966.49 1677.62 5944.61 1641.15L5871.67 1509.86C5813.32 1393.15 5784.14 1371.27 5776.85 1145.16V1101.39C5798.73 1086.81 5871.67 1101.39 5871.67 1123.28ZM5674.73 1560.92C5674.73 1609.54 5684.46 1658.17 5703.91 1706.8L5754.97 1757.85C5784.14 1816.21 5806.02 1808.91 5827.91 1845.38L5886.26 1918.32L5959.2 1976.67C5973.79 1998.56 6024.84 1976.67 5988.37 2049.61C5978.65 2073.93 5964.06 2081.22 5944.61 2071.5C5893.55 2071.5 5842.49 1983.97 5813.32 1954.79C5756.13 1909.76 5706.83 1855.53 5667.44 1794.32C5638.26 1750.56 5601.79 1706.8 5587.2 1575.5V1546.33C5601.79 1531.74 5674.73 1539.03 5674.73 1553.62M5098.51 3114.54C4894.27 3099.95 4660.87 3099.95 4463.93 3180.18C4233.06 3276.38 4049.54 3459.89 3953.35 3690.76L3931.47 3771L3924.17 3800.17C3904.72 3848.8 3895 3904.72 3895 3967.94L3880.41 4157.58C3885.27 4181.89 3873.11 4201.34 3843.94 4215.93C3807.47 4215.93 3814.76 4179.46 3807.47 4157.58V4048.17C3816.7 3793.58 3920.76 3551.63 4099.23 3369.83C4133.27 3321.2 4177.03 3282.3 4230.52 3253.12C4293.74 3204.5 4361.81 3160.73 4434.75 3121.83L4493.1 3085.36C4566.04 3056.19 4638.98 3036.74 4711.92 3027.01C4726.51 3027.01 4733.81 2997.83 4748.39 3005.13L4930.74 2997.83C4952.63 3019.72 4974.51 2997.83 5003.68 2997.83L5237.09 3048.89C5266.27 3053.75 5283.29 3073.21 5288.15 3107.24C5268.7 3126.69 5244.39 3131.56 5215.21 3121.83H5105.8M3967.94 4186.76C4055.46 4186.76 4113.82 4215.93 4201.34 4208.64L4303.46 4194.05C4390.99 4208.64 4405.58 4194.05 4463.93 4194.05L4646.28 4201.34V4288.87H4660.87L4682.75 4274.28V4208.64L4733.81 4215.93C4755.69 4223.23 4806.75 4186.76 4806.75 4266.99C4806.75 4303.46 4792.16 4296.17 4762.98 4310.75H4711.92L4660.87 4303.46H4646.28L4638.98 4296.17H4631.69C4621.97 4296.17 4612.24 4284.01 4602.51 4259.7C4597.65 4240.25 4602.51 4223.23 4617.1 4208.64L4631.69 4201.34H4653.57C4711.92 4201.34 4711.92 4296.17 4653.57 4296.17L4558.75 4288.87C4237.81 4303.46 4296.17 4288.87 3982.52 4288.87H3946.05C3931.47 4266.99 3931.47 4186.76 3967.94 4186.76ZM4040.88 4981.8C4077.35 4908.86 4121.11 4879.69 4135.7 4806.75L4150.29 4719.22C4186.76 4660.87 4172.17 4638.98 4194.05 4595.22L4223.23 4500.4L4266.99 4376.4C4281.58 4361.81 4259.7 4303.46 4332.64 4332.64C4361.81 4342.36 4371.54 4356.95 4361.81 4376.4C4369.11 4420.16 4310.75 4507.69 4288.87 4544.16C4223.23 4806.75 4237.81 4762.98 4121.11 5010.98L4106.52 5040.15C4084.64 5040.15 4018.99 5003.68 4033.58 4981.8" fill="black"/>
<path d="M3894.99 4208.64C3916.88 4296.16 3909.58 4354.52 3938.76 4434.75L3989.82 4529.57C4004.4 4617.1 4026.29 4624.39 4033.58 4682.75C4038.44 4726.51 4048.17 4767.84 4062.76 4806.74C4084.64 4894.27 4084.64 4857.8 4099.23 4952.62C4099.23 4974.51 4150.28 5010.98 4070.05 5025.56C4026.29 5040.15 4033.58 5025.57 4018.99 5003.68C3989.82 4967.21 3989.82 4843.21 3975.23 4799.45C3873.11 4507.69 3894.99 4558.75 3807.47 4252.4L3800.17 4215.93C3814.76 4201.34 3887.7 4179.46 3894.99 4215.93M3530.29 5317.32C3581.35 5317.32 3654.29 5353.8 3654.29 5397.56C3654.29 5441.32 3581.35 5477.79 3537.59 5477.79C3516.31 5477.79 3495.9 5469.34 3480.85 5454.29C3465.81 5439.25 3457.35 5418.84 3457.35 5397.56C3457.35 5376.28 3465.81 5355.87 3480.85 5340.83C3495.9 5325.78 3516.31 5317.32 3537.59 5317.32M4580.63 5083.92C4609.81 5062.03 4682.75 5054.74 4704.63 5083.92C4726.51 5105.8 4690.04 5156.86 4660.86 5178.74C4648.29 5188.41 4632.39 5192.69 4616.66 5190.64C4600.93 5188.59 4586.66 5180.37 4576.98 5167.8C4567.31 5155.22 4563.03 5139.32 4565.08 5123.59C4567.13 5107.86 4575.35 5093.59 4587.92 5083.92M1597.38 4690.04C1633.85 4660.86 1728.68 4653.57 1757.85 4690.04C1787.03 4726.51 1735.97 4784.86 1699.5 4814.04C1683.06 4827.58 1661.91 4834.03 1640.71 4831.98C1619.5 4829.93 1599.98 4819.54 1586.44 4803.1C1572.9 4786.65 1566.45 4765.51 1568.5 4744.3C1570.55 4723.1 1580.94 4703.58 1597.38 4690.04ZM2742.54 4310.75C2763.82 4310.75 2784.23 4319.21 2799.28 4334.25C2814.32 4349.3 2822.78 4369.71 2822.78 4390.99C2822.78 4412.27 2814.32 4432.67 2799.28 4447.72C2784.23 4462.77 2763.82 4471.22 2742.54 4471.22C2721.26 4471.22 2700.85 4462.77 2685.81 4447.72C2670.76 4432.67 2662.31 4412.27 2662.31 4390.99C2662.31 4369.71 2670.76 4349.3 2685.81 4334.25C2700.85 4319.21 2721.26 4310.75 2742.54 4310.75ZM3216.65 3406.3C3245.83 3406.3 3311.47 3450.06 3311.47 3479.24C3311.47 3508.41 3260.42 3530.29 3223.95 3530.29C3215.8 3530.77 3207.65 3529.64 3199.94 3526.97C3192.24 3524.3 3185.13 3520.13 3179.04 3514.71C3172.94 3509.3 3167.97 3502.73 3164.42 3495.39C3160.86 3488.05 3158.78 3480.08 3158.3 3471.94C3157.82 3463.8 3158.95 3455.64 3161.62 3447.94C3164.3 3440.23 3168.46 3433.13 3173.88 3427.03C3179.3 3420.94 3185.86 3415.97 3193.2 3412.41C3200.54 3408.85 3208.51 3406.78 3216.65 3406.3Z" fill="black"/>
</svg>
