<svg width="6145" height="6465" viewBox="0 0 6145 6465" fill="none" xmlns="http://www.w3.org/2000/svg">
<path d="M325.86 1228.79L368.232 1468.9C376.813 1533.6 372.494 1599.37 355.525 1662.4C338.555 1725.42 309.272 1784.47 269.364 1836.12L163.434 1963.24C112.044 2024.22 74.1486 2095.4 52.2394 2172.08C30.3303 2248.76 24.9041 2329.21 36.318 2408.14L85.7521 3432.13C92.8141 3573.37 121.062 3954.72 149.31 4103.02L219.93 4788.04C232.634 5071.39 272.84 5352.84 339.984 5628.41L438.852 6030.95C450.298 6123.19 491.755 6209.1 556.837 6275.46C621.919 6341.82 707.015 6384.94 799.014 6398.17C1201.55 6454.67 1914.81 6504.1 2564.51 6419.36C3595.57 6299.31 4026.35 6066.26 4209.96 5910.89C4247.39 5874.56 4276.3 5830.38 4294.61 5781.54C4312.93 5732.69 4320.2 5680.4 4315.89 5628.41C4287.64 5324.75 4202.9 4569.11 4188.77 4329.01C4167.59 4025.34 4139.34 3467.44 4089.91 3100.22C4047.53 2725.93 3878.05 1829.06 3828.61 1617.2C3781.53 1419.46 3694.43 1282.93 3567.32 1207.6C3503.45 1170.43 3448.73 1119.42 3407.17 1058.31C3365.62 997.208 3338.3 927.562 3327.21 854.502C3291.9 642.642 3362.52 459.03 3094.16 402.534C2668.56 372.468 2240.85 400.982 1823 487.278C1589.96 536.712 1017.94 600.27 636.588 727.386C424.728 798.006 290.55 1009.87 332.922 1228.79" fill="white"/>
<path d="M2260.85 4216.01C2486.83 4004.15 2705.75 3848.79 3009.42 3813.48C3178.91 3799.36 3433.14 3841.73 3588.5 3919.41C3743.87 3997.09 3892.17 4095.96 3906.29 4265.45C3920.42 4406.69 3920.42 4618.55 3849.8 4738.6C3806.89 4822.35 3737.32 4889.44 3652.06 4929.28C3574.38 4964.59 3383.71 5014.02 3298.96 5014.02C3002.36 5014.02 3122.41 5049.33 2790.5 5105.83C2748.13 5119.95 2500.96 5197.63 2472.71 5197.63C2444.46 5197.63 2352.65 5197.63 2317.34 5141.14C2296.16 5056.39 2282.03 4908.09 2232.6 4837.47C2183.17 4780.97 2091.36 4738.6 2063.11 4682.11C1985.43 4526.74 2154.92 4314.88 2260.85 4216.01Z" fill="black"/>
<path d="M1046.18 2648.25C961.441 2662.37 799.015 2648.25 714.271 2683.56C460.039 2768.3 347.047 3071.97 318.799 3340.33C290.551 3726.38 344.693 4103.02 481.225 4470.25C509.473 4583.24 565.969 4672.69 650.713 4738.6C742.519 4795.1 890.821 4759.79 919.069 4660.92C775.004 4461.47 712.34 4214.62 743.826 3970.61C775.312 3726.59 898.583 3503.74 1088.56 3347.39C1215.67 3234.4 1371.04 3213.21 1505.22 3135.53C1710.01 2987.23 1363.97 2591.75 1046.18 2641.19M1710.01 5847.34C1787.69 6016.82 2006.62 6059.2 2197.29 6059.2C2729.71 6066.15 3256.55 5950.15 3736.81 5720.22C3830.97 5677.85 3918.07 5619 3998.1 5543.67C4139.34 5374.18 4096.97 5077.58 3913.36 4964.59C3800.37 4893.97 3652.06 4893.97 3517.89 4908.09C3117.71 4950.46 2724.59 5023.44 2338.53 5127.01C2070.18 5197.63 1547.59 5487.17 1710.01 5847.34Z" fill="#EC0000"/>
<path d="M2274.97 367.224L1512.28 473.154C1175.92 521.765 847.937 616.832 537.721 755.634C460.039 790.944 375.295 861.564 382.357 939.246C391.773 962.786 422.375 981.618 474.163 995.742C521.243 1009.87 568.323 1016.93 615.403 1016.93H693.085C928.485 1031.05 1163.89 1028.7 1399.29 1009.87C1519.34 1009.87 1533.46 995.742 1589.96 981.618C1724.14 974.556 1914.81 939.246 2034.87 910.998L2451.52 812.13C2508.02 788.59 2555.1 786.236 2592.76 805.068C2585.7 847.44 2515.08 861.564 2465.65 875.688C1870.33 1051 1248.84 1120.32 629.527 1080.49L467.101 1059.3C438.853 1054.59 410.605 1042.82 382.357 1023.99C354.109 1009.87 335.277 981.618 325.861 939.246C325.861 910.998 332.923 887.458 347.047 868.626C384.711 788.59 438.853 734.448 509.473 706.2C650.713 640.288 791.953 581.438 933.193 529.65C1074.43 473.154 1258.05 437.844 1413.41 402.534L1484.03 374.286H1491.09L1865.38 317.79C1928.94 324.852 1964.25 296.605 2034.87 289.543L2543.33 261.294C2599.83 256.586 2646.91 268.356 2684.57 296.604C2656.32 331.914 2592.76 324.853 2543.33 338.977C2458.59 338.977 2369.13 348.392 2274.97 367.224ZM2861.12 656.766L3164.79 550.836C3221.28 522.588 3284.84 466.093 3277.78 430.783C3273.07 388.411 3242.47 357.808 3185.97 338.977C3167.14 329.561 3153.02 329.561 3143.6 338.977C3110.64 324.853 3077.69 317.79 3044.73 317.79H2952.93C2945.86 310.728 2931.74 317.79 2924.68 275.418C2929.39 247.17 2938.8 235.4 2952.93 240.108H3009.42C3080.04 240.108 3143.6 251.878 3200.1 275.418C3237.76 284.834 3270.72 306.021 3298.96 338.977C3322.5 357.808 3336.63 383.702 3341.34 416.658C3341.34 463.738 3327.21 496.694 3298.96 515.526C3270.72 553.19 3237.76 581.438 3200.1 600.27L3178.91 621.456L3080.04 677.952C3080.04 687.368 3075.33 692.076 3065.92 692.076L2981.17 727.386C2971.76 722.678 2959.99 727.386 2945.86 741.51L2832.87 755.634C2823.46 765.05 2809.33 757.988 2790.5 734.448C2790.5 706.2 2797.56 692.076 2811.69 692.076L2861.12 656.766ZM714.271 1306.47H735.457C1159.18 1334.72 1589.96 1362.97 2006.62 1257.04L2430.34 1172.29L2529.21 1136.98C2599.83 1122.86 2698.69 1080.49 2762.25 1052.24L2974.11 967.495C3002.36 967.495 3037.67 946.309 3058.86 967.495C3049.44 1005.16 3030.61 1028.7 3002.36 1038.11L2889.37 1087.55C2669.17 1178.95 2439.39 1245.28 2204.35 1285.28L2027.8 1320.59C1957.18 1320.59 1886.56 1355.9 1815.94 1348.84C1695.89 1384.15 1568.77 1377.09 1448.72 1398.28C1359.27 1412.4 1269.82 1419.46 1180.36 1419.46L1137.99 1433.59L926.131 1426.52C890.821 1405.34 869.635 1426.52 834.325 1426.52L728.395 1405.34L551.845 1377.09C530.659 1362.97 488.287 1355.9 488.287 1320.59C511.827 1301.76 540.075 1297.05 573.031 1306.47C620.111 1315.89 667.191 1315.89 714.271 1306.47Z" fill="black"/>
<path d="M1180.36 868.627C1385.16 783.883 1611.15 776.821 1823.01 727.387L2034.86 713.263L2091.36 706.201L2218.48 692.077H2331.47C2350.3 687.369 2364.42 699.139 2373.84 727.387C2364.42 755.635 2350.3 767.405 2331.47 762.697H2274.97L1921.87 783.883H1837.13C1801.82 783.883 1766.51 812.131 1731.2 798.007C1674.7 826.255 1611.15 819.193 1561.71 847.441L1427.53 889.813C1427.53 899.229 1422.82 903.937 1413.41 903.937L1314.54 932.185C1293.35 918.061 1293.35 946.309 1272.17 946.309L1137.99 974.557C1123.87 983.973 1109.74 976.911 1095.62 953.371C1090.91 925.123 1097.97 908.645 1116.81 903.937C1135.64 899.229 1156.82 887.459 1180.36 868.627ZM2522.14 1362.97C2606.89 1348.84 2712.82 1362.97 2783.44 1313.53L2868.18 1285.29C2877.6 1285.29 2884.66 1280.58 2889.37 1271.16C2903.49 1271.16 2917.61 1261.75 2931.74 1242.91C2936.45 1228.79 2950.57 1219.37 2974.11 1214.67L3002.36 1235.85C3016.48 1264.1 3016.48 1278.22 3002.36 1278.22L2988.23 1299.41C2945.86 1332.37 2898.78 1353.55 2846.99 1362.97L2811.68 1370.03L2769.31 1384.15C2748.13 1405.34 2712.82 1398.28 2698.69 1419.46C2679.86 1433.59 2661.03 1440.65 2642.2 1440.65L2635.14 1454.77L2592.76 1461.84C2578.64 1447.71 2578.64 1468.9 2571.58 1461.84H2500.96L2486.83 1426.53L2493.9 1384.15C2508.02 1384.15 2517.43 1379.45 2522.14 1370.03M707.209 1581.89C841.387 1581.89 982.627 1624.26 1116.81 1596.01H1286.29L1356.91 1581.89L1427.53 1560.7L1455.78 1588.95C1465.2 1612.49 1462.84 1626.62 1448.72 1631.32L1406.35 1645.45L1293.35 1666.63H1180.36L1123.87 1659.57H1053.25L933.193 1673.7H848.449C848.449 1673.7 848.449 1701.94 834.325 1687.82H770.767C763.705 1666.63 756.643 1687.82 742.519 1687.82L650.713 1666.63C650.713 1659.57 636.589 1666.63 629.527 1624.26C638.943 1600.72 648.359 1588.95 657.775 1588.95L707.209 1581.89ZM4012.22 2146.85C4104.03 2761.24 4125.22 3403.89 4217.02 4011.22L4273.52 4639.74C4273.52 4724.48 4287.64 4738.6 4294.7 4780.98C4301.77 4886.91 4330.02 5035.21 4344.14 5134.08L4386.51 5465.99C4391.22 5513.07 4384.16 5553.09 4365.32 5586.04C4322.95 5571.92 4322.95 5515.42 4315.89 5480.11C4255.54 5086.33 4208.44 4690.64 4174.65 4293.7C4174.65 4204.25 4167.59 4119.5 4153.46 4039.47C4153.46 3933.54 4118.16 3827.61 4125.22 3735.8C4089.91 3559.25 4089.91 3382.7 4054.6 3213.21L4005.16 2831.86C4005.16 2810.68 3976.92 2796.55 3983.98 2775.37C3962.79 2676.5 3969.85 2570.57 3948.67 2471.7C3962.79 2422.27 3934.54 2401.08 3934.54 2344.59C3929.83 2217.47 3918.06 2085.65 3899.23 1949.11C3899.23 1913.8 3892.17 1857.31 3920.42 1836.12C3962.79 1850.25 3962.79 1906.74 3976.91 1942.05C3981.62 2012.67 3993.39 2083.29 4012.22 2153.91M3376.65 529.651C3390.77 656.767 3397.83 788.591 3397.83 925.123C3397.83 976.911 3421.37 1019.28 3468.45 1052.24L3524.95 1094.61L3616.75 1151.11C3635.58 1169.94 3649.71 1177 3659.12 1172.29L3743.87 1249.98C3776.82 1273.52 3800.36 1301.76 3814.49 1334.72C3823.91 1348.84 3819.2 1365.32 3800.36 1384.15C3767.41 1393.57 3750.93 1391.22 3750.93 1377.09L3715.62 1334.72C3654.42 1264.1 3583.8 1202.9 3503.76 1151.11C3470.8 1136.98 3447.26 1120.51 3433.14 1101.67C3400.18 1078.13 3376.65 1049.89 3362.52 1016.93C3348.4 993.389 3341.33 965.141 3341.33 932.185C3341.33 899.229 3336.63 875.689 3327.21 861.565C3313.09 814.485 3306.02 774.467 3306.02 741.511C3296.61 736.803 3291.9 729.741 3291.9 720.325L3284.84 635.581C3298.96 614.395 3277.78 607.333 3284.84 593.209V473.155C3280.13 459.031 3291.9 444.907 3320.15 430.783C3343.69 435.491 3355.46 447.261 3355.46 466.093C3355.46 484.925 3362.52 503.757 3376.65 522.589M410.605 1122.86L452.977 1490.08C457.685 1598.37 420.021 1685.47 339.985 1751.38L276.427 1814.94C219.931 1866.72 172.851 1925.57 135.187 1991.49C116.355 2015.03 109.293 2033.86 114.001 2047.98C95.1689 2085.65 83.3989 2128.02 78.6909 2175.1L71.6289 2295.15C76.3369 2313.98 64.5669 2328.11 36.3189 2337.52C8.07086 2332.82 -3.69914 2318.69 1.00886 2295.15V2224.53C5.71686 2073.88 57.5049 1949.11 156.373 1850.25C175.205 1817.29 198.745 1793.75 226.993 1779.63L304.675 1709.01L318.799 1694.88C354.109 1652.51 396.481 1596.01 382.357 1532.46L375.295 1504.21L354.109 1391.22C344.693 1391.22 339.985 1384.15 339.985 1370.03L318.799 1257.04C339.985 1235.85 318.799 1228.79 318.799 1207.6L304.675 1052.24C299.967 1033.41 309.383 1019.28 332.923 1009.87C375.295 1009.87 368.233 1031.05 375.295 1045.18L410.605 1122.86ZM121.063 2817.74C191.683 3580.44 219.931 4364.32 332.923 5119.95L354.109 5289.44L403.543 5713.16L438.853 5875.59C460.039 5981.52 474.163 5995.64 495.349 6045.07L544.783 6129.82C606.603 6213.15 693.076 6274.92 791.953 6306.37C919.069 6348.74 1050.89 6372.28 1187.43 6376.99C1243.92 6381.7 1291 6398.17 1328.67 6426.42C1300.42 6461.73 1229.8 6454.67 1187.43 6454.67L961.441 6426.42C791.953 6391.11 594.217 6327.55 488.287 6165.13C407.706 6027.06 359.42 5872.54 347.047 5713.16L311.737 5451.87L290.551 5289.44L276.427 5141.14L234.055 4766.85L156.373 4124.21L99.8769 3651.06L85.7529 3580.44L50.4429 3213.21C64.5669 3149.65 36.3189 3114.34 36.3189 3050.79L8.07088 2556.45C3.36288 2504.66 12.7789 2459.93 36.3189 2422.27C71.6289 2443.45 71.6289 2514.07 85.7529 2556.45C90.4609 2645.9 102.231 2733 121.063 2817.74ZM1900.69 6355.8L2451.52 6334.62L2804.62 6313.43C2962.18 6298.98 3118.15 6270.62 3270.71 6228.69C3397.83 6205.15 3520.24 6174.54 3637.94 6136.88L3708.56 6108.63C3779.18 6094.51 3779.18 6080.38 3814.49 6066.26C3885.11 6038.01 3983.98 5988.58 4040.47 5946.21L4231.15 5797.9C4249.98 5769.66 4275.87 5757.89 4308.83 5762.59C4330.02 5797.9 4294.71 5826.15 4280.58 5847.34L4181.71 5932.08C3976.05 6087.33 3736.41 6191.42 3482.57 6235.75C3421.37 6259.29 3360.17 6273.41 3298.96 6278.12C3228.34 6296.95 3153.01 6311.08 3072.98 6320.49C2988.24 6339.32 2901.14 6353.45 2811.68 6362.86C2764.6 6362.86 2724.59 6369.93 2691.63 6384.05L2458.58 6412.3H2402.09C2392.67 6426.42 2378.55 6433.48 2359.72 6433.48C2289.1 6447.61 2211.42 6433.48 2140.8 6447.61C2105.49 6426.42 2084.3 6447.61 2041.93 6447.61H1752.39C1714.72 6452.32 1686.47 6442.9 1667.64 6419.36C1686.47 6391.11 1710.01 6376.99 1738.26 6376.99C1794.76 6376.99 1848.9 6367.57 1900.69 6348.74M2628.07 3608.68C2549.04 3468.56 2434.59 3351.67 2296.16 3269.71C2013.68 3100.22 1618.21 3079.03 1314.54 3241.46C1248.01 3278.4 1186.34 3323.47 1130.93 3375.64C984.981 3502.75 876.697 3662.83 806.077 3855.85C777.829 3926.47 784.891 3947.66 777.829 3990.03L770.767 4060.65C761.473 4171.32 778.41 4282.61 820.201 4385.5C853.157 4460.83 897.883 4519.68 954.379 4562.05C982.627 4585.59 1006.17 4613.84 1025 4646.8C989.689 4675.05 940.255 4646.8 904.945 4618.55C857.051 4581.55 816.358 4536.07 784.891 4484.37L749.581 4413.75C702.501 4296.05 686.023 4178.35 700.147 4060.65C718.979 3862.92 789.599 3684.01 912.007 3523.94C959.087 3453.32 1015.58 3392.11 1081.49 3340.33C1142.7 3279.12 1213.32 3229.69 1293.35 3192.03L1328.67 3177.9C1484.03 3086.1 1660.58 3071.97 1830.07 3057.85C1961.89 3062.56 2089.01 3086.09 2211.42 3128.47C2232.6 3142.59 2253.79 3128.47 2267.91 3142.59L2345.59 3177.9L2522.14 3312.08C2543.33 3361.51 2578.64 3361.51 2613.95 3403.89C2693.98 3516.88 2748.13 3639.29 2776.38 3771.11C2776.38 3806.42 2790.5 3862.92 2755.19 3884.1C2726.94 3855.85 2710.46 3822.9 2705.75 3785.23C2691.63 3719.32 2665.74 3660.47 2628.07 3608.68Z" fill="black"/>
<path d="M1243.92 3615.74C1173.3 3728.74 1088.56 3884.1 1123.87 4039.46L1137.99 4110.08C1137.99 4133.62 1145.05 4157.16 1159.18 4180.7C1159.18 4204.24 1163.89 4216.01 1173.3 4216.01L1229.8 4286.63L1286.29 4321.94L1293.36 4364.32C1279.23 4399.63 1265.11 4385.5 1258.05 4385.5L1208.61 4364.32C1169.2 4335.17 1136.29 4298.15 1111.98 4255.59C1087.66 4213.04 1072.47 4165.89 1067.37 4117.15V4046.53C1067.37 4025.34 1046.19 3997.09 1067.37 3968.84C1046.19 3919.41 1067.37 3877.04 1067.37 3827.6C1053.25 3792.29 1081.5 3756.98 1088.56 3721.67C1079.14 3721.67 1076.79 3714.61 1081.5 3700.49L1116.81 3629.87C1137.99 3629.87 1123.87 3608.68 1137.99 3594.56L1222.74 3523.94C1236.86 3523.94 1243.92 3502.75 1265.11 3523.94C1279.23 3552.19 1281.59 3568.66 1272.17 3573.37L1243.92 3615.74ZM2063.11 4406.69C2077.24 4373.73 2093.72 4350.19 2112.55 4336.07C2271.13 4128.03 2488.51 3972.38 2736.55 3889.28C2984.58 3806.19 3251.86 3799.46 3503.76 3869.98C3616.75 3902.93 3715.62 3961.78 3800.36 4046.53C3848.71 4097.81 3887.04 4157.69 3913.36 4223.08L3948.67 4350.19V4406.69L3892.17 4653.86L3849.8 4752.73C3814.65 4810.39 3766.22 4858.81 3708.56 4893.97C3670.9 4922.21 3635.59 4926.92 3602.63 4908.09C3602.63 4872.78 3645 4858.66 3666.19 4837.47C3714.61 4803.9 3755.5 4760.61 3786.24 4710.35C3828.61 4611.49 3856.86 4507.91 3870.99 4399.63C3880.4 4281.93 3840.38 4180.7 3750.93 4095.96L3680.31 4025.34L3496.7 3933.53L3440.2 3919.41L3249.53 3884.1C3098.87 3874.68 2957.63 3891.16 2825.81 3933.53C2734 3975.91 2613.95 4004.15 2536.27 4067.71L2500.96 4103.02C2425.63 4140.69 2362.07 4187.77 2310.28 4244.26C2267.91 4265.45 2267.91 4300.76 2239.66 4329.01C2160.43 4399.48 2105.97 4493.56 2084.3 4597.36C2070.18 4625.61 2084.3 4667.98 2048.99 4682.11C2006.62 4675.04 2006.62 4618.55 2006.62 4583.24C2020.74 4512.62 2039.57 4451.41 2063.11 4399.63" fill="black"/>
<path d="M1293.35 2754.18C1211.03 2705.75 1119.74 2674.51 1025 2662.38C848.449 2648.25 657.775 2711.81 530.659 2845.99C382.357 3015.48 347.047 3269.71 354.109 3495.69L368.233 3990.03V4032.4C368.233 4110.09 382.357 4124.21 396.481 4159.52C424.3 4351.17 507.791 4530.43 636.589 4675.05C650.713 4703.29 686.023 4724.48 678.961 4759.79C643.651 4780.98 608.341 4745.67 580.093 4724.48L481.225 4590.3C372.348 4405.45 309.384 4197.18 297.613 3982.97L290.551 3728.74V3488.63C290.551 3408.59 297.613 3326.2 311.737 3241.46C326.034 3081.5 382.04 2928.1 474.163 2796.55C549.209 2708.46 646.88 2642.54 756.643 2605.88C766.059 2587.05 780.183 2575.28 799.015 2570.57C874.866 2549.69 954.243 2544.88 1032.06 2556.45H1074.43C1116.8 2584.69 1145.05 2563.51 1194.49 2584.69C1307.48 2631.77 1406.35 2700.04 1491.09 2789.49C1512.28 2817.74 1547.59 2853.05 1526.4 2888.36C1493.44 2883.65 1465.2 2867.17 1441.66 2838.93C1401.2 2799.18 1353.17 2767.96 1300.42 2747.12" fill="black"/>
<path d="M608.341 3121.4C573.031 3361.51 516.535 3615.74 573.031 3862.91C573.031 3947.66 584.801 4030.05 608.341 4110.08C608.341 4138.33 613.049 4157.16 622.465 4166.58L664.837 4307.82L714.271 4427.87C714.271 4449.06 728.395 4463.18 693.085 4484.37C660.129 4484.37 643.651 4474.95 643.651 4456.12L615.403 4385.5C563.615 4258.39 533.013 4124.21 523.597 3982.97L509.473 3877.04C500.057 3834.67 497.703 3792.29 502.411 3749.92C481.225 3679.3 502.411 3608.68 481.225 3538.06V3375.64C471.809 3375.64 469.455 3368.57 474.163 3354.45L488.287 3234.4C509.473 3213.21 488.287 3199.09 488.287 3177.9L544.783 3022.54C544.783 3003.7 558.907 2991.93 587.155 2987.23C622.465 3001.35 608.341 3022.54 615.403 3036.66L608.341 3121.4ZM1794.76 5783.78L1865.38 5854.4C2020.74 5974.45 2239.66 5995.64 2451.52 6002.7C2930.19 6021.76 3402.54 5888.22 3800.36 5621.35C3863.92 5578.98 3870.98 5564.86 3892.17 5536.61C3955.73 5473.05 3991.04 5345.93 3969.85 5268.25L3955.73 5211.76C3929.17 5150.26 3881.61 5100.2 3821.55 5070.52C3783.89 5061.1 3757.99 5042.27 3743.87 5014.02C3772.12 4985.77 3807.43 4983.42 3849.8 5006.96C3905.09 5029.74 3953.69 5066.19 3991.04 5112.89C4009.87 5136.43 4023.99 5162.32 4033.41 5190.57C4125.22 5458.93 3885.11 5677.85 3694.43 5776.72L3567.32 5840.27C3496.7 5877.94 3426.08 5906.19 3355.46 5925.02C3266.01 5962.68 3176.55 5986.22 3087.1 5995.64C2936.45 6033.3 2781.08 6059.2 2621.01 6073.32C2569.22 6087.44 2512.73 6092.15 2451.52 6087.44H2274.97C2256.14 6096.86 2237.31 6096.86 2218.48 6087.44C2124.32 6082.74 2032.51 6059.2 1943.06 6016.82C1914.81 5988.58 1872.44 5995.64 1837.13 5967.39L1808.88 5932.08C1770.76 5901.2 1739.5 5862.72 1717.07 5819.09C1688.83 5739.05 1691.18 5668.43 1724.14 5607.23C1745.32 5571.92 1766.51 5522.48 1808.88 5536.61C1813.59 5569.56 1808.88 5600.17 1794.76 5628.41C1771.22 5689.62 1771.22 5739.05 1794.76 5776.72" fill="black"/>
<path d="M2091.36 5706.1C2324.41 5720.22 2578.64 5741.41 2818.75 5691.97L2959.99 5663.72L3242.47 5593.1C3284.84 5586.04 3284.84 5578.98 3306.02 5564.86L3461.39 5501.3L3602.63 5444.8C3630.88 5444.8 3645 5430.68 3673.25 5458.93C3668.54 5487.17 3656.77 5506.01 3637.94 5515.42C3462.64 5591.24 3280.57 5650.35 3094.16 5691.97L2974.11 5720.22C2931.74 5720.22 2882.3 5748.47 2832.87 5748.47C2755.19 5776.72 2663.38 5769.65 2585.7 5790.84C2524.5 5804.96 2463.29 5812.03 2402.09 5812.03L2373.84 5826.15H2232.6C2204.35 5797.9 2190.23 5826.15 2161.98 5819.09L1978.37 5776.72C1954.83 5772.01 1938.35 5755.53 1928.93 5727.28C1952.47 5703.74 1971.31 5696.68 1985.43 5706.1H2091.36ZM2126.67 4858.66L2020.74 4752.73C1894.41 4672.04 1752.4 4619.09 1604.08 4597.36C1349.85 4554.99 1067.37 4590.3 855.511 4738.6C748.469 4813.47 667.096 4919.5 622.465 5042.27C570.677 5169.38 558.907 5296.5 587.155 5423.62C603.347 5487.53 632.16 5547.56 671.899 5600.17C714.271 5670.79 735.457 5670.79 763.705 5699.03C815.493 5746.11 874.343 5783.78 940.255 5812.03L1060.31 5854.4C1168.59 5873.23 1274.52 5882.65 1378.1 5882.65C1420.47 5873.23 1455.78 5880.29 1484.03 5903.83C1476.97 5946.2 1413.41 5946.2 1378.1 5953.27H1201.55C1102.68 5953.27 1006.17 5929.73 912.007 5882.65C819.728 5841.67 737.309 5781.39 670.306 5705.86C603.304 5630.33 553.276 5541.31 523.597 5444.8L509.473 5296.5C509.473 5202.34 525.951 5115.24 558.907 5035.21C595.907 4937.21 656.556 4849.87 735.457 4780.97L820.201 4696.23C937.901 4620.9 1062.66 4564.41 1194.49 4526.74C1326.31 4498.49 1455.78 4491.43 1582.9 4505.56H1646.45C1745.32 4505.56 1844.19 4554.99 1943.06 4590.3C1978.37 4625.61 2013.68 4618.55 2063.11 4653.86L2084.3 4667.98C2187.87 4748.02 2267.91 4846.89 2324.41 4964.59C2338.53 4999.9 2359.72 5056.39 2324.41 5077.58C2289.1 5077.58 2282.03 5028.14 2253.79 4999.9C2230.25 4943.4 2190.23 4891.61 2133.73 4844.53" fill="black"/>
<path d="M813.138 5310.62C846.094 5357.7 888.466 5402.43 940.254 5444.8C989.534 5482.88 1048.01 5507.24 1109.74 5515.42C1137.99 5515.42 1161.53 5524.84 1180.36 5543.67L1229.8 5550.73C1243.92 5560.15 1255.69 5560.15 1265.11 5550.73C1288.65 5564.86 1312.19 5564.86 1335.73 5550.73H1392.22C1396.93 5546.02 1408.7 5553.09 1427.53 5571.92C1427.53 5600.17 1422.82 5614.29 1413.41 5614.29L1371.04 5628.41C1295.71 5637.83 1229.8 5630.77 1173.3 5607.23L1145.05 5593.1C1130.93 5593.1 1114.45 5586.04 1095.62 5571.92C1072.08 5571.92 1050.89 5564.86 1032.06 5550.73C989.688 5550.73 961.44 5515.42 919.068 5515.42H904.944L841.386 5473.05C836.678 5482.47 831.97 5482.47 827.262 5473.05C803.722 5463.63 784.89 5449.51 770.766 5430.68C770.766 5416.55 763.704 5407.14 749.58 5402.43L714.27 5317.69C704.854 5308.27 711.916 5296.5 735.456 5282.38C758.996 5268.25 773.12 5268.25 777.828 5282.38C782.536 5296.5 794.306 5305.92 813.138 5310.62ZM2183.17 2789.49C2234.95 2667.08 2298.51 2549.38 2373.84 2436.39C2515.08 2238.65 2726.94 2076.23 2974.11 2012.67C3096.19 1982.76 3224.03 1985.97 3344.45 2021.97C3464.87 2057.98 3573.5 2125.46 3659.12 2217.47L3715.62 2288.09C3781.53 2429.33 3814.49 2577.63 3814.49 2732.99V2930.73C3793.3 3022.54 3800.36 3036.66 3793.3 3086.09C3779.18 3192.02 3743.87 3347.39 3708.56 3439.19C3675.46 3550.8 3627.98 3657.63 3567.32 3756.98C3539.07 3792.29 3510.82 3841.73 3475.51 3834.67C3454.33 3799.36 3489.64 3756.98 3503.76 3721.67L3574.38 3566.31C3692.08 3297.95 3750.93 3020.18 3750.93 2732.99L3736.81 2577.63C3724.34 2494.75 3700.58 2413.96 3666.19 2337.52L3609.69 2252.78L3468.45 2125.66C3391.67 2086 3307.6 2062.41 3221.39 2056.34C3135.18 2050.26 3048.63 2061.84 2967.05 2090.35C2854.06 2132.72 2745.77 2196.28 2642.2 2281.03L2606.89 2330.46L2465.65 2499.95L2423.27 2556.44C2380.9 2584.69 2387.96 2627.06 2359.72 2669.44C2293.8 2777.72 2234.95 2895.42 2183.17 3022.54C2173.75 3069.62 2150.21 3100.22 2112.55 3114.34C2084.3 3086.09 2112.55 3036.66 2112.55 2994.29L2183.17 2789.49Z" fill="black"/>
<path d="M3517.88 2372.83C3580.82 2638.12 3575.96 2914.98 3503.76 3177.9C3480.22 3262.64 3447.26 3347.39 3404.89 3432.13C3386.06 3455.67 3379 3474.5 3383.71 3488.63L3313.09 3622.81L3221.28 3742.86C3211.86 3756.98 3193.03 3761.69 3164.78 3756.98C3143.6 3721.67 3164.78 3707.55 3164.78 3693.43L3207.16 3636.93C3282.48 3519.23 3348.4 3396.82 3404.89 3269.71L3440.2 3170.84L3475.51 3043.72C3475.51 2973.1 3496.7 2902.48 3475.51 2831.86V2669.44C3475.51 2662.37 3447.26 2655.31 3454.33 2648.25C3454.33 2605.88 3449.62 2565.86 3440.2 2528.2C3454.33 2507.01 3426.08 2499.95 3426.08 2478.76C3426.08 2422.27 3416.66 2368.12 3397.83 2316.34C3388.41 2302.21 3393.12 2283.38 3411.95 2259.84C3444.91 2264.55 3463.74 2273.96 3468.45 2288.09C3477.87 2321.04 3491.99 2349.29 3510.82 2372.83M1533.46 3622.81L1469.9 3573.37C1441.66 3549.83 1408.7 3556.89 1371.04 3594.56C1352.2 3622.81 1349.85 3660.47 1363.97 3707.55C1363.97 3721.67 1368.68 3733.44 1378.1 3742.86C1406.35 3766.4 1444.01 3764.05 1491.09 3735.8L1540.52 3693.43C1545.23 3669.89 1540.52 3646.35 1526.4 3622.81M2091.36 3495.69C2058.4 3472.15 2025.45 3472.15 1992.49 3495.69C1973.66 3495.69 1957.18 3507.46 1943.06 3531V3672.24C1943.06 3695.78 1952.47 3714.61 1971.31 3728.74C1999.55 3742.86 2023.09 3738.15 2041.93 3714.61C2060.76 3691.07 2077.24 3662.82 2091.36 3629.87L2112.55 3594.56C2120.93 3579.33 2123.41 3561.54 2119.5 3544.61C2115.59 3527.67 2105.57 3512.76 2091.36 3502.75M1837.13 3954.72C1815.94 3933.53 1766.51 3933.53 1745.32 3954.72H1738.26C1719.43 3940.6 1698.24 3940.6 1674.7 3954.72L1660.58 3997.09C1655.87 4030.05 1660.58 4058.3 1674.7 4081.84C1698.24 4105.38 1724.14 4110.08 1752.38 4095.96L1780.63 4067.71H1815.94C1858.31 4060.65 1886.56 3997.09 1851.25 3954.72M2352.65 3827.6L2331.47 3799.36C2290.49 3802.23 2251.24 3816.95 2218.48 3841.73C2180.81 3869.98 2164.33 3909.99 2169.04 3961.78C2173.75 3999.45 2192.58 4020.63 2225.54 4025.34C2267.91 4015.92 2279.68 3992.38 2260.85 3954.72C2284.39 3973.55 2307.93 3973.55 2331.47 3954.72L2359.72 3884.1L2352.65 3827.6ZM2500.96 3064.91V2987.23C2505.66 2958.98 2496.25 2942.5 2472.71 2937.79C2449.17 2928.38 2430.34 2935.44 2416.21 2958.98C2410.01 2969.71 2406.75 2981.89 2406.75 2994.29C2406.75 3006.68 2410.01 3018.86 2416.21 3029.6C2383.26 3029.6 2364.42 3043.72 2359.72 3071.97C2359.72 3095.51 2369.13 3119.05 2387.96 3142.59H2409.15L2416.21 3128.47C2430.34 3128.47 2442.11 3135.53 2451.52 3149.65C2472.71 3177.9 2522.14 3163.78 2522.14 3128.47L2500.96 3064.91ZM2705.75 2916.61C2712.82 2973.1 2790.5 3008.41 2839.93 2980.16C2863.47 2966.04 2872.89 2944.85 2868.18 2916.61C2861.12 2895.42 2818.75 2888.36 2811.68 2916.61L2825.81 2845.99C2839.93 2813.03 2828.16 2794.2 2790.5 2789.49C2755.19 2789.49 2691.63 2860.11 2705.75 2916.61ZM3115.35 3100.22C3072.98 3104.93 3051.79 3128.47 3051.79 3170.84C3051.79 3213.21 3087.1 3262.64 3122.41 3255.58C3155.37 3246.17 3178.91 3222.63 3193.03 3184.96C3193.03 3156.71 3188.32 3133.17 3178.91 3114.34C3160.08 3090.8 3138.89 3086.09 3115.35 3100.22ZM3200.09 2492.89C3157.72 2464.64 3087.1 2492.89 3072.98 2542.32C3063.56 2598.82 3084.75 2641.19 3136.54 2669.44H3164.78C3202.45 2622.36 3218.93 2575.28 3214.22 2528.2C3214.22 2490.53 3197.74 2471.7 3164.78 2471.7M940.254 2916.61C933.192 2895.42 876.696 2874.23 841.386 2881.3C817.846 2876.59 799.014 2878.94 784.89 2888.36C775.474 2921.31 775.474 2949.56 784.89 2973.1L735.456 3036.66C731.258 3048.62 730.354 3061.48 732.839 3073.91C735.324 3086.33 741.107 3097.86 749.58 3107.28C759.68 3114.58 771.535 3119.09 783.938 3120.33C796.342 3121.57 808.853 3119.5 820.2 3114.34C834.324 3109.63 846.094 3100.22 855.51 3086.09L926.13 3015.47C944.962 2977.81 949.67 2944.85 940.254 2916.61ZM784.89 3333.26L756.642 3340.33C742.518 3340.33 733.102 3356.8 728.394 3389.76V3432.13L671.898 3460.38C657.774 3483.92 662.482 3507.46 686.022 3531H756.642L806.076 3474.5C820.2 3450.96 829.616 3425.07 834.324 3396.82C834.324 3354.45 817.846 3330.91 784.89 3326.2M1250.98 3057.85C1250.98 3029.6 1194.49 3029.6 1180.36 3057.85H1187.42C1182.72 3076.68 1185.07 3090.8 1194.49 3100.22C1222.73 3114.34 1265.11 3086.09 1250.98 3057.85ZM940.254 4893.97C919.068 4908.09 890.82 4957.52 890.82 4978.71L897.882 5014.02L933.192 5056.39C961.44 5061.1 987.334 5049.33 1010.87 5021.08C1034.41 5002.25 1050.89 4978.71 1060.31 4950.46C1074.43 4926.92 1074.43 4903.38 1060.31 4879.84C1046.18 4858.66 975.564 4865.72 940.254 4893.97ZM1363.97 5035.21C1331.02 5039.91 1307.48 5058.75 1293.35 5091.7L1286.29 5183.51L1279.23 5211.76C1279.23 5235.3 1295.71 5247.07 1328.66 5247.07C1347.5 5247.07 1366.33 5237.65 1385.16 5218.82L1441.66 5155.26C1465.2 5141.14 1479.32 5117.6 1484.03 5084.64C1488.74 5051.68 1472.26 5028.14 1434.59 5014.02C1415.76 4999.9 1392.22 4995.19 1363.97 4999.9C1335.73 5004.6 1321.6 5021.08 1321.6 5049.33L1363.97 5035.21ZM1745.32 4752.73L1695.89 4759.79C1681.76 4773.91 1677.06 4790.39 1681.76 4809.22L1724.14 4837.47C1742.97 4851.59 1757.09 4870.43 1766.51 4893.97C1780.63 4917.51 1799.46 4924.57 1823 4915.15L1837.13 4886.9L1893.62 4844.53C1912.46 4820.99 1914.81 4797.45 1900.69 4773.91C1891.27 4755.08 1874.79 4738.6 1851.25 4724.48C1818.3 4700.94 1785.34 4693.88 1752.38 4703.29C1705.3 4722.12 1686.47 4750.37 1695.89 4788.04L1745.32 4752.73Z" fill="black"/>
<path d="M2995.3 4321.94C2959.99 4293.7 2882.3 4321.94 2882.3 4321.94C2835.22 4336.07 2811.68 4364.32 2811.68 4406.69C2811.68 4420.81 2818.75 4432.58 2832.87 4442C2868.18 4456.12 2896.43 4427.87 2924.68 4420.81L2967.05 4413.75C3009.42 4399.63 3023.54 4343.13 2995.3 4321.94ZM2635.13 4173.64C2624.4 4167.44 2612.22 4164.18 2599.82 4164.18C2587.43 4164.18 2575.25 4167.44 2564.51 4173.64C2540.97 4187.77 2533.91 4206.6 2543.33 4230.14L2557.45 4258.39C2557.45 4279.57 2536.27 4307.82 2557.45 4329.01L2599.82 4321.94C2646.9 4293.7 2665.74 4258.39 2656.32 4216.01C2656.32 4197.18 2649.26 4183.06 2635.13 4173.64ZM2508.02 4477.31C2479.77 4477.31 2453.88 4484.37 2430.34 4498.49C2406.8 4526.74 2406.8 4550.28 2430.34 4569.11H2458.58L2529.2 4554.99C2552.74 4545.57 2559.81 4526.74 2550.39 4498.49C2536.27 4474.95 2515.08 4467.89 2486.83 4477.31H2508.02ZM3263.65 4456.12C3235.4 4489.08 3228.34 4522.03 3242.47 4554.99H3270.71L3327.21 4519.68C3350.75 4510.26 3369.58 4496.14 3383.71 4477.31C3393.12 4463.18 3393.12 4444.35 3383.71 4420.81C3355.46 4397.27 3329.56 4397.27 3306.02 4420.81L3263.65 4456.12ZM3327.21 4117.15C3350.75 4131.27 3367.23 4150.1 3376.64 4173.64C3381.35 4216.01 3364.87 4239.55 3327.21 4244.26C3289.55 4248.97 3258.94 4234.85 3235.4 4201.89L3214.22 4180.7C3204.8 4157.16 3211.86 4138.33 3235.4 4124.21C3268.36 4105.38 3298.96 4105.38 3327.21 4124.21" fill="white"/>
<path d="M2345.59 5451.86L2274.97 5430.68C2251.43 5421.26 2225.54 5425.97 2197.29 5444.8C2176.1 5458.93 2169.04 5501.3 2197.29 5515.42L2225.54 5529.55C2249.08 5538.96 2274.97 5543.67 2303.22 5543.67C2331.47 5543.67 2352.65 5529.55 2366.78 5501.3L2345.59 5451.86ZM2592.76 5197.63H2522.14C2498.6 5207.05 2482.12 5223.53 2472.71 5247.07V5289.44C2479.77 5324.75 2529.2 5345.94 2543.33 5317.69L2564.51 5282.38C2578.64 5261.19 2621.01 5275.32 2635.13 5247.07C2635.13 5223.53 2621.01 5207.05 2592.76 5197.63ZM3051.79 5388.31C3032.86 5356.93 3002.47 5334.14 2967.05 5324.75L2896.43 5360.06L2875.24 5367.12L2832.87 5409.49C2809.33 5433.03 2809.33 5456.57 2832.87 5480.11L2868.18 5494.24L2988.23 5480.11C3030.61 5475.4 3054.15 5454.22 3058.85 5416.55L3051.79 5388.31ZM3419.02 5070.52C3390.77 5061.1 3367.23 5061.1 3348.4 5070.52C3329.56 5079.93 3310.73 5084.64 3291.9 5084.64H3277.78C3254.24 5075.22 3235.4 5084.64 3221.28 5112.89L3214.22 5162.32L3221.28 5232.94C3225.99 5261.19 3240.11 5277.67 3263.65 5282.38C3287.19 5277.67 3306.02 5261.19 3320.15 5232.94L3390.77 5162.32C3409.6 5162.32 3423.72 5155.26 3433.14 5141.14C3442.56 5112.89 3437.85 5089.35 3419.02 5070.52Z" fill="black"/>
<path d="M3913.36 918.06C3927.48 748.572 4005.17 586.146 4019.29 416.658L4061.66 247.17V211.86C4075.79 178.904 4080.49 145.948 4075.79 112.992C4071.08 80.036 4075.79 49.434 4089.91 21.186C4096.97 14.124 4089.91 0 4132.28 0C4160.53 14.124 4169.95 25.894 4160.53 35.31V84.744C4149.14 176.236 4127.83 266.218 4096.97 353.1L4082.85 423.72C4068.72 451.968 4082.85 480.216 4061.66 501.402L4047.54 642.642L4033.41 748.572C4033.41 755.634 4054.6 762.696 4040.48 769.758C4047.54 798.006 4026.35 819.192 4033.41 847.44C4005.17 861.564 4033.41 868.626 4026.35 882.75L3998.1 988.68C3998.1 998.096 3983.98 1007.51 3955.73 1016.93C3927.48 1002.8 3915.71 991.034 3920.42 981.618L3913.36 918.06ZM5636.49 451.968C5424.63 642.642 5177.46 805.068 4986.78 1009.87L4774.92 1200.54C4746.68 1214.66 4730.2 1231.14 4725.49 1249.97L4612.5 1362.97L4506.57 1475.96C4485.38 1475.96 4471.26 1504.21 4435.95 1475.96C4431.24 1447.71 4435.95 1428.88 4450.07 1419.46C4576.41 1286.52 4710.84 1161.52 4852.6 1045.18L4937.35 974.556C4975.01 932.184 5010.32 899.228 5043.28 875.688C5092.71 812.13 5170.39 769.758 5212.77 706.2C5255.14 659.12 5299.86 619.102 5346.94 586.146L5354.01 557.898L5459.94 466.092C5478.77 461.384 5495.25 449.614 5509.37 430.782L5657.67 324.852C5671.8 317.79 5692.98 296.604 5721.23 324.852C5725.94 348.392 5721.23 367.224 5707.11 381.348L5636.49 451.968ZM4916.16 1843.18C5135.09 1793.75 5368.13 1807.87 5579.99 1758.44L5805.97 1737.25C5829.51 1737.25 5845.99 1732.54 5855.41 1723.13C5902.49 1723.13 5944.86 1716.07 5982.52 1701.94L6102.58 1687.82C6121.41 1683.11 6135.54 1694.88 6144.95 1723.13C6140.24 1751.38 6128.47 1765.5 6109.64 1765.5L6046.08 1772.56C5923.68 1796.1 5805.97 1807.87 5692.98 1807.87L5601.18 1814.93L5488.18 1829.06C5431.69 1850.24 5361.07 1843.18 5304.57 1871.43L5170.4 1892.62C5170.4 1892.62 5163.33 1920.86 5156.27 1913.8C5120.96 1927.93 5085.65 1913.8 5050.34 1927.93C5029.16 1906.74 5022.09 1934.99 5000.91 1934.99C4953.83 1930.28 4906.75 1932.63 4859.67 1942.05C4845.54 1946.76 4831.42 1937.34 4817.29 1913.8C4822 1885.55 4831.42 1871.43 4845.54 1871.43L4916.16 1843.18Z" fill="#EC0000"/>
</svg>
