<svg width="3324" height="4273" viewBox="0 0 3324 4273" fill="none" xmlns="http://www.w3.org/2000/svg">
<path d="M3026.97 3236.04L3299.67 3463.29C3323.91 3484.5 3329.97 3510.26 3317.85 3540.56L3245.13 3686C3181.5 3758.72 3076.96 3899.61 3008.79 3967.79L2926.98 4026.87C2913.71 4034.03 2898.88 4037.78 2883.8 4037.78C2868.73 4037.78 2853.89 4034.03 2840.62 4026.87L2740.63 3935.97L2963.34 3195.14L3026.97 3236.04ZM709.02 1058.99C677.205 1027.17 709.02 972.631 754.47 986.266C913.545 1040.81 1254.42 1158.98 1418.04 1249.88C1636.2 1377.14 1731.65 1490.76 1763.46 1636.2V1649.84C1791.03 1821.84 1777 1997.95 1722.56 2163.42C1768.01 2202.81 1814.97 2249.78 1863.45 2304.32L1945.26 2395.22L1949.81 2404.31L1958.9 2413.4V2427.03L1949.81 2499.75L1908.9 2686.1C1867.99 2831.54 1795.28 3004.25 1654.38 3117.87L1640.74 3131.51L1627.11 3117.87L1290.78 2836.08L1154.43 2722.46L1113.53 2690.64L981.72 2772.45C899.91 2817.9 786.285 2863.35 672.66 2854.26C459.045 2836.08 204.525 2686.1 109.08 2304.32L104.535 2286.14L27.27 1954.35C9.09002 1863.45 0 1787.7 0 1727.1C0 1714.98 4.54501 1704.38 13.635 1695.29L45.45 1690.74C63.63 1690.74 80.295 1699.83 95.445 1718.01L709.02 2354.31L727.2 2345.22L804.465 2277.05L986.265 2113.43C1090.99 2019.79 1189.66 1919.6 1281.69 1813.46L1304.41 1781.64V1772.55L1168.06 1604.39L986.265 1377.14L709.02 1058.99Z" fill="#EC0000"/>
<path d="M2895.16 3526.92C2727 3808.71 2695.18 4117.77 2699.73 4235.94L1581.66 4254.12L1490.76 4004.15C1436.22 3863.25 1204.42 3776.9 1172.61 3436.02C1140.79 3163.32 1277.14 2931.53 1349.86 2845.17L1631.65 3095.15C1768.94 2880.57 1876 2648.11 1949.8 2404.31L1777.09 2272.5L1954.35 2095.25C2136.15 2022.53 2208.87 2186.15 2222.5 2277.05C2463.39 2186.15 2536.11 2367.95 2540.65 2467.94C2740.63 2486.12 2776.99 2727 2767.9 2845.17C2813.35 2813.36 2913.34 2772.45 2986.06 2845.17C3076.96 2936.07 3108.78 3163.32 2895.16 3517.83M495.405 2149.79L136.35 1795.28L318.15 1295.33L818.1 1204.43L1168.06 1581.66L1008.99 2045.25L495.405 2149.79Z" fill="white"/>
<path d="M704.474 1440.77L454.499 1499.85L386.324 1749.83L568.124 1931.63L818.099 1863.45L886.274 1618.02L704.474 1440.77Z" fill="black"/>
<path d="M586.305 1508.94L463.59 1540.75L486.315 1513.48L413.595 1758.91L404.505 1736.19L581.76 1917.99H563.58L686.295 1881.63L813.555 1849.81L795.375 1863.45L831.735 1745.28C843.855 1718.01 848.4 1698.31 845.37 1686.19L863.55 1618.02L868.095 1636.2L813.555 1590.75L718.11 1490.76C699.93 1478.64 693.87 1463.49 699.93 1445.31C721.14 1436.22 737.805 1440.76 749.925 1458.94L804.465 1504.39L904.455 1604.38L909 1627.11L836.28 1877.08L822.645 1890.72H804.465C771.135 1905.87 736.29 1914.96 699.93 1917.99C659.025 1922.53 622.665 1945.26 577.215 1945.26L572.67 1949.8H559.035C510.555 1898.29 459.045 1849.81 404.505 1804.36L368.145 1772.55L359.055 1745.28L390.87 1640.74V1618.02C396.93 1578.63 407.535 1539.24 422.685 1499.85C425.715 1484.7 433.29 1477.12 445.41 1477.12L490.86 1458.94C548.43 1455.91 602.97 1446.82 654.48 1431.67C672.66 1431.67 690.84 1422.58 699.93 1440.76C696.9 1461.97 686.295 1474.09 668.115 1477.12C637.815 1483.18 610.545 1493.79 586.305 1508.94Z" fill="black"/>
<path d="M1127.16 599.94C1131.71 486.315 1186.25 381.78 1190.79 272.7L1218.06 163.62C1224.12 151.5 1224.12 142.41 1218.06 136.35C1227.15 115.14 1231.7 93.93 1231.7 72.72C1231.7 51.51 1234.73 31.815 1240.79 13.635C1237.76 7.575 1246.85 3.03 1268.06 0C1286.24 9.09 1292.3 16.665 1286.24 22.725C1277.2 93.6053 1261.99 163.561 1240.79 231.795L1231.7 277.245C1231.7 295.425 1227.15 312.09 1218.06 327.24L1208.97 418.14L1199.88 490.86L1208.97 499.95L1199.88 554.49C1186.25 559.035 1199.88 568.125 1199.88 577.215C1184.73 598.425 1177.16 621.15 1177.16 645.39C1172.61 649.935 1177.16 659.025 1149.89 659.025C1131.71 655.995 1125.65 649.935 1131.71 640.845L1127.16 599.94ZM2245.23 295.425C2108.88 418.14 1949.81 522.675 1822.55 659.025L1686.2 781.74C1664.99 793.86 1654.38 804.465 1654.38 813.555C1624.08 834.765 1598.33 860.52 1577.12 890.82L1508.94 954.45C1499.85 966.57 1484.7 968.085 1463.49 958.995C1460.46 940.815 1463.49 928.695 1472.58 922.635C1554.05 837.237 1640.56 756.798 1731.65 681.75L1790.73 631.755L1858.91 572.67C1890.72 527.22 1940.72 504.495 1972.53 459.045C1990.71 431.775 2031.61 409.05 2054.34 381.78C2054.34 372.69 2057.37 366.63 2063.43 363.6L2131.61 304.515C2149.79 304.515 2145.24 286.335 2158.88 281.79L2258.86 213.615C2267.95 209.07 2281.59 195.435 2299.77 213.615C2305.83 228.765 2302.8 240.885 2290.68 249.975L2245.23 295.425ZM1777.1 1204.43C1917.99 1168.07 2067.98 1177.16 2208.87 1145.34L2354.31 1131.7C2372.49 1131.7 2383.1 1128.68 2386.13 1122.62C2416.43 1122.62 2443.69 1118.07 2467.93 1108.98L2549.74 1099.89C2558.84 1096.86 2567.92 1104.44 2577.02 1122.62C2570.95 1140.8 2563.38 1149.89 2554.29 1149.89L2281.59 1177.16L2217.96 1181.7L2149.79 1190.79C2108.88 1204.43 2067.97 1199.88 2031.61 1218.06L1940.72 1236.24C1940.72 1242.3 1937.69 1245.33 1931.63 1245.33L1863.45 1254.42C1854.36 1251.39 1843.76 1252.91 1831.64 1258.97L1740.74 1263.51C1728.62 1266.54 1718.01 1260.48 1708.92 1245.33C1711.95 1227.15 1719.53 1218.06 1731.65 1218.06C1743.77 1218.06 1758.92 1212 1777.1 1199.88" fill="#EC0000"/>
<path d="M81.8098 1863.45L145.44 2199.78C168.165 2349.77 204.525 2499.75 290.88 2622.47C315.54 2657.92 346.321 2688.7 381.78 2713.37C466.507 2778.97 570.072 2815.62 677.205 2817.9C709.02 2822.45 713.565 2817.9 736.29 2813.36C781.74 2813.36 854.46 2781.54 895.365 2758.82L1040.8 2672.46C1058.98 2657.31 1078.68 2654.28 1099.89 2663.37C1099.89 2684.58 1089.28 2701.25 1068.07 2713.37L990.81 2763.36C899.91 2817.9 790.83 2867.9 672.66 2863.35C606.652 2860.96 541.773 2845.51 481.77 2817.9C442.38 2802.75 404.505 2780.03 368.145 2749.72C322.695 2722.46 286.335 2686.09 259.065 2640.64C199.98 2567.92 177.255 2477.03 140.895 2395.22C116.655 2334.62 101.505 2274.02 95.4448 2213.42V2204.33C90.8998 2195.24 72.7198 2186.15 77.2648 2177.06L45.4498 2031.62C54.5398 2004.35 36.3598 1990.71 31.8148 1963.44C31.8148 1899.81 13.6348 1827.09 13.6348 1763.46C13.6348 1739.22 21.2098 1719.53 36.3598 1704.38C54.5398 1719.53 63.6298 1737.71 63.6298 1758.92C63.6298 1795.28 69.6898 1830.12 81.8098 1863.45Z" fill="black"/>
<path d="M113.625 1740.73C222.705 1854.36 313.605 1990.71 431.775 2090.7L545.4 2208.87C551.46 2224.02 560.55 2233.11 572.67 2236.14L636.3 2299.77L695.385 2363.4C695.385 2372.49 709.02 2381.58 695.385 2399.76C677.205 2405.82 665.085 2404.3 659.025 2395.21L627.21 2363.4C566.61 2302.8 509.04 2239.17 454.5 2172.51L409.05 2122.51C395.415 2099.79 363.6 2090.7 354.51 2063.43L254.52 1972.53C230.28 1954.35 207.555 1933.14 186.345 1908.9L168.165 1904.35L118.17 1845.27C112.11 1833.15 104.535 1825.57 95.4448 1822.54L36.3598 1736.19C31.8148 1727.1 18.1798 1718.01 36.3598 1699.83C54.5398 1693.77 66.6598 1695.28 72.7198 1704.37C81.8098 1719.52 95.4447 1731.64 113.625 1740.73ZM777.195 2304.31C916.245 2220.03 1035.59 2106.89 1127.16 1972.53L1190.79 1904.35C1205.94 1892.23 1213.51 1883.14 1213.51 1877.08L1258.96 1808.91L1281.69 1745.28C1286.23 1736.19 1281.69 1727.1 1308.96 1722.55C1327.14 1731.64 1333.2 1742.25 1327.14 1754.37L1318.05 1799.82C1278.66 1875.57 1228.66 1939.2 1168.06 1990.71L1158.97 1999.8L1127.16 2036.16C1115.04 2060.4 1099.89 2078.58 1081.71 2090.7L999.9 2190.69C981.72 2214.93 960.51 2236.14 936.27 2254.32V2272.5L877.185 2317.95C859.005 2313.4 863.55 2331.58 849.915 2336.13L759.015 2377.03C749.925 2377.03 740.835 2386.12 727.2 2367.94C727.2 2346.73 731.745 2336.13 740.835 2336.13L777.195 2304.31ZM1140.79 2622.46C1218.06 2686.09 1281.69 2772.45 1368.04 2826.99L1445.31 2899.71C1448.34 2908.8 1454.4 2914.86 1463.49 2917.89L1508.94 2958.79C1524.09 2967.88 1536.21 2981.52 1545.3 2999.7C1545.3 3004.24 1558.93 3008.79 1545.3 3026.97C1524.09 3036.06 1513.48 3036.06 1513.48 3026.97L1490.76 3008.79C1448.34 2972.43 1410.46 2933.04 1377.13 2890.62L1345.32 2858.8C1330.17 2849.71 1318.05 2839.11 1308.96 2826.99C1281.69 2813.35 1263.51 2786.08 1236.24 2781.54L1186.24 2740.63C1180.18 2746.69 1175.64 2746.69 1172.61 2740.63C1157.46 2731.54 1145.34 2720.94 1136.25 2708.82C1136.25 2695.18 1122.61 2704.27 1118.07 2695.18C1105.95 2677 1090.8 2660.34 1072.62 2645.19V2613.37C1093.83 2604.28 1104.43 2602.77 1104.43 2608.83L1140.79 2622.46ZM2822.44 3967.78L2913.34 4031.41H2881.53C2966.37 3985.96 3036.06 3922.33 3090.6 3840.52L3186.04 3726.9C3195.13 3714.78 3199.68 3704.17 3199.68 3695.08L3231.49 3636L3263.31 3567.82C3263.31 3558.73 3272.4 3554.19 3290.58 3554.19C3313.3 3567.82 3304.21 3576.91 3304.21 3586L3290.58 3626.91C3260.34 3698.17 3218.91 3764.15 3167.86 3822.34L3131.5 3867.79C3113.32 3881.43 3108.78 3908.7 3086.05 3913.24C3061.81 3949.6 3036.06 3981.42 3008.79 4008.69C2990.61 4032.93 2967.88 4052.62 2940.61 4067.77L2936.07 4081.41L2922.43 4095.04H2886.07C2873.95 4082.92 2858.8 4073.83 2840.62 4067.77C2840.62 4049.59 2826.99 4058.68 2817.9 4049.59L2749.72 3981.42C2749.72 3976.87 2736.09 3967.78 2749.72 3949.6C2764.88 3940.51 2775.48 3940.51 2781.54 3949.6L2822.44 3967.78ZM1718.01 2163.42C1763.46 2195.23 1786.18 2258.86 1840.72 2286.13L1877.08 2331.58L1890.72 2336.13C1896.78 2348.25 1905.87 2354.31 1917.99 2354.31L1940.71 2377.03C1943.74 2380.06 1940.71 2387.64 1931.62 2399.76C1916.47 2411.88 1908.9 2414.91 1908.9 2408.85L1895.26 2399.76C1871.02 2384.61 1848.3 2363.4 1827.09 2336.13L1822.54 2317.95L1804.36 2295.22C1786.18 2295.22 1781.64 2272.5 1758.91 2272.5L1731.64 2249.77C1728.61 2252.8 1725.58 2252.8 1722.55 2249.77L1704.37 2231.59L1695.28 2227.05C1692.25 2211.9 1686.19 2199.78 1677.1 2190.69C1671.04 2187.66 1674.07 2180.08 1686.19 2167.96C1698.31 2155.84 1705.89 2152.81 1708.92 2158.87L1718.01 2163.42Z" fill="black"/>
<path d="M1740.73 1545.3L1763.46 1586.21C1808.91 1690.74 1795.27 1799.82 1808.91 1904.36C1805.88 1946.78 1798.3 1987.68 1786.18 2027.07C1780.12 2039.19 1780.12 2048.28 1786.18 2054.34C1774.06 2075.55 1764.97 2098.28 1758.91 2122.52L1722.55 2181.6C1718.01 2181.6 1713.46 2195.24 1690.74 2181.6C1681.65 2166.45 1681.65 2155.85 1690.74 2149.79L1704.37 2122.52C1728.61 2071.01 1746.79 2014.95 1758.91 1954.35C1758.91 1936.17 1761.94 1921.02 1768 1908.9C1761.94 1887.69 1761.94 1868 1768 1849.82C1758.91 1818 1768 1786.19 1754.37 1758.92L1736.19 1686.2C1736.19 1686.2 1718.01 1686.2 1722.55 1677.11L1708.92 1631.66C1711.95 1619.54 1710.43 1613.48 1704.37 1613.48L1699.83 1608.93C1696.8 1584.69 1687.71 1561.97 1672.56 1540.76C1666.5 1534.7 1669.53 1524.09 1681.65 1508.94C1699.83 1502.88 1710.43 1504.4 1713.46 1513.49L1740.73 1545.3ZM513.585 2108.88C604.485 2086.16 695.385 2095.25 786.285 2063.43L872.64 2054.34C881.73 2054.34 889.305 2051.31 895.365 2045.25L940.815 2031.62L986.265 2022.53C995.355 2016.47 1002.93 2022.53 1008.99 2040.71C1008.99 2058.89 1005.96 2067.98 999.9 2067.98L977.175 2072.52C931.725 2087.67 883.245 2096.76 831.735 2099.79H795.375C777.195 2099.79 763.56 2117.97 749.925 2108.88L677.205 2131.61L622.665 2149.79L618.12 2158.88C604.485 2167.97 586.305 2158.88 572.67 2167.97C563.58 2154.33 563.58 2167.97 554.49 2167.97H495.405C489.345 2171 483.285 2164.94 477.225 2149.79C477.225 2131.61 480.255 2122.52 486.315 2122.52C492.375 2122.52 501.465 2117.97 513.585 2108.88Z" fill="black"/>
<path d="M277.245 1440.77C245.43 1554.39 186.345 1668.02 145.44 1781.64V1758.92L236.34 1849.82C266.64 1889.21 301.485 1928.6 340.875 1967.99C352.995 1986.17 363.6 1995.26 372.69 1995.26L440.865 2058.89L499.95 2122.52C512.07 2131.61 513.585 2143.73 504.495 2158.88C486.315 2172.51 477.225 2158.88 468.135 2158.88L249.975 1931.63L204.525 1877.09C186.345 1861.94 169.68 1842.24 154.53 1818L113.625 1786.19V1768.01L136.35 1686.2C142.41 1649.84 151.5 1616.51 163.62 1586.21C160.59 1580.15 160.59 1574.09 163.62 1568.03L186.345 1495.31C204.525 1490.76 190.89 1477.13 199.98 1463.49L245.43 1372.59C245.43 1357.44 256.035 1349.87 277.245 1349.87C289.365 1361.99 293.91 1374.11 290.88 1386.23C287.85 1398.35 283.305 1416.53 277.245 1440.77ZM740.835 1240.79C663.57 1263.51 577.215 1245.33 504.495 1277.15L422.685 1286.24L404.505 1290.78L359.055 1304.42L313.605 1313.51L299.97 1295.33C299.97 1277.15 303 1268.06 309.06 1268.06L331.785 1263.51C374.205 1248.36 416.625 1240.79 459.045 1240.79H495.405C504.495 1240.79 518.13 1222.61 531.765 1231.7C554.49 1218.06 577.215 1227.15 595.395 1213.52C613.575 1204.43 630.24 1199.88 645.39 1199.88C645.39 1199.88 645.39 1181.7 649.935 1190.79L690.84 1181.7C699.93 1195.34 699.93 1181.7 704.475 1181.7H759.015C765.075 1178.67 771.135 1184.73 777.195 1199.88C777.195 1218.06 774.165 1227.15 768.105 1227.15C762.045 1227.15 752.955 1231.7 740.835 1240.79ZM1004.45 1972.53C1040.81 1840.73 1108.98 1713.47 1154.43 1581.66V1599.84L1095.35 1545.3L986.265 1413.5C980.205 1398.35 971.115 1389.26 958.995 1386.23C940.815 1361.99 919.605 1339.26 895.365 1318.05L831.735 1249.88C831.735 1240.79 818.1 1231.7 831.735 1208.97C849.915 1202.91 862.035 1205.94 868.095 1218.06L904.455 1254.42C965.055 1318.05 1024.14 1386.23 1081.71 1458.95L1122.61 1513.49C1136.25 1536.21 1168.06 1549.85 1177.16 1577.12V1581.66C1183.21 1581.66 1184.73 1586.21 1181.7 1595.3L1145.34 1731.65C1139.28 1761.95 1128.68 1793.76 1113.53 1827.09C1119.59 1833.15 1119.59 1839.21 1113.53 1845.27L1090.8 1922.54C1072.62 1927.08 1086.25 1940.72 1077.16 1954.35L1031.71 2049.8C1031.71 2061.92 1021.11 2069.49 999.9 2072.52C984.75 2057.37 980.205 2045.25 986.265 2036.16L999.9 1977.08" fill="black"/>
<path d="M1049.89 1386.23C1108.98 1440.77 1140.79 1522.58 1199.88 1568.03L1249.87 1627.11C1252.9 1639.23 1258.96 1643.78 1268.05 1640.75L1299.87 1672.56C1315.02 1681.65 1324.11 1692.26 1327.14 1704.38C1333.2 1704.38 1330.17 1713.47 1318.05 1731.65C1302.9 1740.74 1293.81 1740.74 1290.78 1731.65L1277.14 1718.01L1195.33 1622.57L1172.61 1595.3C1163.52 1589.24 1155.94 1580.15 1149.88 1568.03C1127.16 1554.39 1122.61 1531.67 1099.89 1522.58C1084.74 1513.49 1072.62 1502.88 1063.53 1490.76H1049.89L1027.17 1458.95C1027.17 1452.89 1024.14 1449.86 1018.08 1449.86C1012.02 1431.68 1002.93 1416.53 990.808 1404.41C987.778 1398.35 990.808 1389.26 999.898 1377.14C1018.08 1368.05 1027.17 1366.53 1027.17 1372.59L1049.89 1386.23ZM1313.5 2954.25C1199.88 3172.41 1127.16 3454.2 1268.05 3676.91C1310.47 3746.6 1360.47 3816.29 1418.04 3885.98C1433.19 3913.25 1446.82 3928.4 1458.94 3931.43L1486.21 3976.88L1540.75 4063.23C1564.99 4108.68 1580.14 4154.13 1586.2 4199.58C1586.2 4217.76 1595.29 4240.49 1577.11 4249.58C1555.9 4243.52 1543.78 4229.88 1540.75 4208.67L1518.03 4145.04L1445.31 4004.15L1295.32 3795.08C1271.08 3764.78 1251.39 3734.48 1236.24 3704.18V3695.09C1212 3658.73 1195.33 3620.85 1186.24 3581.46C1154.43 3513.29 1154.43 3436.02 1140.79 3363.3C1140.79 3305.73 1146.85 3249.68 1158.97 3195.14C1152.91 3186.05 1152.91 3178.47 1158.97 3172.41C1165.03 3129.99 1177.15 3089.09 1195.33 3049.7C1213.51 3031.52 1204.42 3017.88 1218.06 2995.16L1308.96 2849.72C1318.05 2840.63 1331.68 2817.9 1354.41 2826.99C1363.5 2845.17 1361.98 2861.84 1349.86 2876.99C1331.68 2901.23 1319.56 2926.98 1313.5 2954.25ZM1554.39 3158.78C1596.81 3113.33 1634.68 3060.3 1668.01 2999.7C1734.67 2893.65 1786.18 2780.03 1822.54 2658.83L1854.36 2572.47L1886.17 2477.03C1892.23 2455.82 1893.75 2440.67 1890.72 2431.58C1898.97 2397.35 1900.51 2361.85 1895.26 2327.04L1881.63 2231.6C1878.6 2216.45 1883.14 2202.81 1895.26 2190.69C1916.47 2193.72 1928.59 2202.81 1931.62 2217.96L1940.71 2272.5C1958.89 2381.58 1931.62 2490.66 1895.26 2586.11V2590.65L1863.45 2667.92C1857.39 2698.22 1845.27 2728.52 1827.09 2758.82C1818 2808.81 1781.64 2858.81 1772.55 2908.8C1757.4 2948.19 1739.22 2986.07 1718.01 3022.43V3040.61C1705.89 3070.91 1690.74 3098.18 1672.56 3122.42C1649.83 3126.96 1658.92 3145.14 1645.29 3158.78C1614.99 3189.08 1580.14 3216.35 1540.75 3240.59C1531.66 3245.13 1513.48 3258.77 1499.85 3240.59C1499.85 3219.38 1504.39 3205.74 1513.48 3199.68C1531.66 3190.59 1546.81 3175.44 1558.93 3154.23M2136.15 2063.43C2181.6 2090.7 2214.93 2127.06 2236.14 2172.51C2260.38 2245.23 2269.47 2316.44 2263.41 2386.13V2531.57C2260.38 2583.08 2252.8 2636.1 2240.68 2690.64C2234.62 2705.79 2234.62 2717.91 2240.68 2727L2213.41 2817.9L2181.6 2895.17C2175.54 2907.29 2163.42 2911.83 2145.24 2908.8C2133.12 2893.65 2130.09 2881.53 2136.15 2872.44L2154.33 2836.08C2184.63 2757.3 2205.84 2677.01 2217.96 2595.2L2222.5 2531.57L2227.05 2454.3V2386.13C2227.05 2364.92 2222.5 2345.22 2213.41 2327.04L2195.23 2236.14C2189.17 2236.14 2186.14 2233.11 2186.14 2227.05L2172.51 2204.33C2172.51 2189.18 2166.45 2177.06 2154.33 2167.97C2151.3 2158.88 2145.24 2152.82 2136.15 2149.79C2117.97 2119.49 2095.24 2104.34 2067.97 2104.34C2058.88 2095.25 2049.79 2099.79 2045.25 2077.07C2040.7 2054.34 2063.43 2054.34 2077.06 2054.34L2136.15 2063.43ZM2408.85 3040.61C2467.73 2897.66 2500.07 2745.19 2504.29 2590.65V2436.12C2504.29 2417.94 2499.75 2407.34 2490.66 2404.31C2490.66 2389.16 2486.11 2377.04 2477.02 2367.95L2449.75 2331.59L2390.67 2295.23C2381.58 2290.68 2372.49 2295.23 2367.94 2267.96C2377.03 2249.78 2389.15 2243.72 2404.3 2249.78C2422.48 2249.78 2437.63 2255.84 2449.75 2267.96C2479.45 2286.6 2503.13 2313.43 2517.93 2345.22C2544.53 2398.67 2555.55 2458.52 2549.74 2517.93V2590.65L2540.65 2667.92L2531.56 2804.27C2528.53 2840.63 2522.47 2873.96 2513.38 2904.26C2519.44 2913.35 2520.96 2919.41 2517.93 2922.44L2495.2 2999.7C2477.02 3008.79 2490.66 3017.88 2481.57 3031.52L2422.48 3122.42C2416.42 3131.51 2404.3 3134.54 2386.12 3131.51C2367.94 3113.33 2381.58 3104.24 2386.12 3095.15L2408.85 3040.61ZM2731.54 2522.48L2767.9 2586.11C2783.05 2637.62 2787.6 2687.61 2781.54 2736.09L2767.9 2972.43C2764.87 3020.91 2754.27 3069.39 2736.09 3117.87L2727 3154.23L2699.73 3236.04L2658.82 3304.22C2652.76 3316.34 2640.64 3319.37 2622.46 3313.31C2613.37 3295.13 2613.37 3283.01 2622.46 3276.95L2640.64 3245.13C2670.94 3175.44 2696.7 3104.24 2717.91 3031.52L2727 2972.43L2736.09 2904.26C2731.54 2863.35 2745.18 2822.45 2736.09 2781.54L2727 2736.09V2690.64C2720.94 2690.64 2717.91 2687.61 2717.91 2681.55C2708.82 2663.37 2717.91 2636.1 2708.82 2622.47V2608.83L2699.73 2595.2C2693.67 2567.93 2678.52 2548.23 2654.28 2536.11C2648.22 2533.08 2643.67 2522.48 2640.64 2504.3C2652.76 2489.15 2664.88 2486.12 2677 2495.21L2731.54 2522.48ZM3013.33 2872.44L3031.51 2908.8C3055.75 2969.4 3060.3 3030 3045.15 3090.6C3017.88 3286.04 2936.07 3467.84 2876.98 3649.64L2776.99 3895.07C2758.81 3926.88 2763.36 3931.43 2758.81 3949.61L2727 4095.05L2704.27 4231.4C2701.24 4249.58 2690.64 4263.21 2672.46 4272.3C2654.28 4260.18 2648.22 4245.03 2654.28 4226.85C2670.07 4057.86 2716.26 3893.11 2790.63 3740.54L2831.53 3645.09C2843.65 3599.64 2858.8 3560.25 2876.98 3526.92C2895.16 3454.2 2931.52 3390.57 2940.61 3317.85L2972.43 3163.32C2966.37 3154.23 2964.85 3145.14 2967.88 3136.05L2976.97 3081.51V3017.88C2990.61 2999.7 2976.97 2990.61 2976.97 2972.43L2967.88 2931.53C2958.79 2898.2 2937.58 2873.96 2904.25 2858.81C2892.13 2855.78 2880.01 2845.17 2867.89 2826.99C2872.44 2804.27 2904.25 2808.81 2922.43 2813.36C2952.73 2828.51 2981.52 2848.2 3008.79 2872.44" fill="black"/>
</svg>
