<svg width="4627" height="4761" viewBox="0 0 4627 4761" fill="none" xmlns="http://www.w3.org/2000/svg">
<path d="M824.58 3349.22C684.81 3715.36 579.167 4093.62 509 4479.2C509 4479.2 972.19 4682.8 1135.07 4682.8C1292.86 4682.8 1796.77 4759.15 1796.77 4759.15C1984.15 4381.58 2159 3997.92 2321.04 3608.81C2422.84 3349.22 2219.24 3206.7 2117.44 3206.7C2117.44 3094.72 1974.92 3003.1 1898.57 2967.47C2000.37 2891.12 2193.79 2728.24 2163.25 2662.07C2122.53 2580.63 1918.93 2641.71 1796.77 2641.71C1599.41 2663.13 1408.7 2725.54 1236.87 2824.95C1069.49 2972.65 931.358 3150.49 829.67 3349.22" fill="white"/>
<path d="M1048.54 666.791C1048.54 534.451 1929.11 229.051 2315.95 381.751C2768.96 564.991 2595.9 895.841 2916.57 1043.45C3186.34 1135.07 3445.93 1073.99 3466.29 1073.99C3517.19 1073.99 3542.64 1379.39 3568.09 1501.55C3593.54 1613.53 3618.99 1684.79 3649.53 1781.5C3685.16 1908.75 3766.6 2203.97 3766.6 2244.69C3766.6 2285.41 3715.7 2321.04 3715.7 2321.04C3547.73 2504.28 3364.49 2509.37 3145.62 2499.19C2631.53 2478.83 2234.51 1837.49 1913.84 1705.15C1715.33 1623.71 1399.75 1806.95 1353.94 1817.13C1313.22 1827.31 1252.14 1496.46 1252.14 1496.46C1252.14 1496.46 1048.54 804.221 1048.54 666.791Z" fill="#EC0000"/>
<path d="M3374.67 3598.63C3391.64 3557.91 3400.12 3490.04 3400.12 3395.03C3400.12 3393.68 3399.58 3392.39 3398.63 3391.43C3397.67 3390.48 3396.38 3389.94 3395.03 3389.94C3393.68 3389.94 3392.39 3390.48 3391.43 3391.43C3390.48 3392.39 3389.94 3393.68 3389.94 3395.03C3356.01 3415.39 3322.07 3425.57 3288.14 3425.57C3220.27 3435.75 3155.8 3428.96 3094.72 3405.21C3062.51 3392.41 3033.26 3373.17 3008.75 3348.66C2984.24 3324.15 2965 3294.9 2952.2 3262.69L2819.86 3410.3L2840.22 3451.02C2901.3 3559.61 2998.01 3618.99 3130.35 3629.17C3215.18 3646.14 3296.62 3635.96 3374.67 3598.63ZM0 346.12C35.63 218.87 152.7 117.07 254.5 50.9C290.13 25.45 356.3 10.18 376.66 0L519.18 152.7C407.2 178.15 142.52 381.75 137.43 498.82H132.34C61.08 432.65 40.72 397.02 0 351.21M4626.81 3893.85C4626.81 4031.28 4535.19 4158.53 4458.84 4245.06C4428.3 4280.69 4367.22 4311.23 4346.86 4321.41L4173.8 4209.43C4275.6 4163.62 4479.2 3904.03 4458.84 3786.96L4626.81 3893.85ZM3797.14 234.14C3757.04 225.673 3715.64 225.365 3675.41 233.235C3635.19 241.106 3596.96 256.993 3563 279.95C3508.71 313.883 3454.41 342.727 3400.12 366.48L3328.86 386.84L3354.31 483.55L3384.85 605.71H3400.12C3457.81 581.957 3513.8 553.113 3568.09 519.18C3645.66 475.212 3733.43 452.394 3822.59 453.01L3797.14 234.14Z" fill="black"/>
<path d="M2163.25 1145.25C2122.53 1201.24 2127.62 1297.95 2183.61 1348.85L2295.59 1415.02C2371.94 1465.92 2402.48 1562.63 2448.29 1644.07C2461.86 1671.22 2482.22 1691.58 2509.37 1705.15L2570.45 1725.51C2651.89 1725.51 2733.33 1664.43 2763.87 1588.08C2778.28 1547.43 2783.92 1504.18 2780.41 1461.19C2776.9 1418.21 2764.32 1376.45 2743.51 1338.67C2699.4 1264.02 2643.41 1201.24 2575.54 1150.34C2458.47 1063.81 2265.05 982.37 2163.25 1140.16" fill="white"/>
<path d="M498.82 4224.7C557.254 3902.11 667.248 3591.03 824.58 3303.41C917.276 3113.22 1045.07 2942.25 1201.24 2799.5C1306.43 2735.03 1416.72 2690.91 1532.09 2667.16L1710.24 2631.53C1786.59 2621.35 1796.77 2616.26 1832.4 2606.08C1924.02 2600.99 2056.36 2585.72 2147.98 2616.26C2171.73 2623.05 2192.09 2634.92 2209.06 2651.89C2226.03 2668.86 2236.21 2692.61 2239.6 2723.15C2239.6 2757.08 2229.42 2780.84 2209.06 2794.41C2175.13 2828.34 2141.19 2852.1 2107.26 2865.67C2071.63 2875.85 2036 2896.21 2005.46 2875.85C2022.43 2848.7 2049.57 2828.34 2086.9 2814.77C2127.62 2794.41 2173.43 2763.87 2183.61 2733.33C2183.61 2723.15 2178.52 2709.58 2168.34 2692.61C2005.46 2600.99 1750.96 2677.34 1542.27 2712.97C1423.27 2739.29 1309.66 2785.77 1206.33 2850.4L1053.63 3003.1C969.5 3124.5 897.875 3254.11 839.85 3389.94C804.22 3481.56 748.23 3593.54 717.69 3690.25L707.51 3741.15L636.25 3980.38C610.8 4016.01 620.98 4041.46 610.8 4082.18C576.867 4190.77 551.417 4301.05 534.45 4413.03C524.27 4443.57 524.27 4489.38 493.73 4499.56C468.28 4479.2 478.46 4433.39 478.46 4402.85L498.82 4224.7Z" fill="black"/>
<path d="M1664.43 2926.75C1756.05 2886.03 1893.48 2942.02 1929.11 3043.82C1969.83 3221.97 1878.21 3349.22 1827.31 3491.74C1793.38 3559.61 1752.66 3627.47 1705.15 3695.34L1674.61 3741.15L1664.43 3756.42L1572.81 3842.95C1537.18 3868.4 1491.37 3893.85 1435.38 3878.58C1415.02 3878.58 1384.48 3853.13 1404.84 3827.68H1445.56L1496.46 3817.5C1547.46 3801.11 1591.99 3769.05 1623.71 3725.88L1735.69 3557.91L1786.59 3476.47L1837.49 3374.67C1847.67 3313.59 1883.3 3252.51 1878.21 3186.34C1878.21 3145.62 1888.39 3099.81 1868.03 3069.27V3064.18C1857.85 3064.18 1851.06 3060.79 1847.67 3054C1830.7 3026.85 1808.65 3009.89 1781.5 3003.1C1771.32 2977.65 1761.14 2998.01 1745.87 2992.92C1705.15 2989.53 1662.73 2999.71 1618.62 3023.46C1603.35 3023.46 1593.17 3038.73 1567.72 3023.46C1567.72 3003.1 1576.2 2986.13 1593.17 2972.56L1664.43 2926.75ZM1766.23 3914.21L1827.31 3837.86C1908.75 3746.24 2000.37 3659.71 2041.09 3547.73C2071.63 3503.62 2090.29 3457.81 2097.08 3410.3V3374.67C2100.47 3350.92 2097.08 3325.47 2086.9 3298.32L2056.36 3227.06C2049.57 3220.27 2052.97 3208.4 2066.54 3191.43C2086.9 3181.25 2098.78 3184.64 2102.17 3201.61L2127.62 3242.33C2149.15 3293.75 2156.19 3350.08 2147.98 3405.21L2117.44 3507.01L2086.9 3563C2076.72 3590.15 2063.15 3613.9 2046.18 3634.26C2030.91 3674.98 1995.28 3705.52 1980.01 3746.24L1924.02 3827.68V3842.95C1913.84 3863.31 1901.96 3876.88 1888.39 3883.67L1878.21 3904.03C1857.85 3904.03 1868.03 3919.3 1857.85 3929.48L1771.32 3995.65C1761.14 3995.65 1745.87 4010.92 1730.6 3985.47C1727.21 3965.11 1730.6 3953.23 1740.78 3949.84C1754.35 3939.66 1762.84 3927.78 1766.23 3914.21ZM1944.38 4016.01C1987.85 4012.03 2028.89 3994.19 2061.45 3965.11C2095.38 3931.18 2127.62 3892.15 2158.16 3848.04L2209.06 3751.33L2244.69 3674.98L2265.05 3624.08C2271.84 3610.51 2273.53 3600.33 2270.14 3593.54C2280.32 3569.79 2285.41 3544.34 2285.41 3517.19V3445.93C2282.02 3439.14 2288.8 3430.66 2305.77 3420.48C2332.92 3423.87 2343.1 3432.36 2336.31 3445.93L2341.4 3486.65C2341.4 3561.3 2324.43 3629.17 2290.5 3690.25L2275.23 3715.7C2268.44 3739.45 2258.26 3756.42 2244.69 3766.6C2237.9 3793.75 2226.03 3814.11 2209.06 3827.68L2193.79 3868.4L2153.07 3939.66C2142.89 3966.81 2125.92 3990.56 2102.17 4010.92C2102.17 4021.1 2098.78 4027.89 2091.99 4031.28C2075.02 4048.25 2052.97 4061.82 2025.82 4072C2010.55 4061.82 2005.46 4082.18 1990.19 4082.18H1939.29C1918.93 4082.18 1901.96 4075.39 1888.39 4061.82C1871.42 4058.43 1868.03 4046.55 1878.21 4026.19C1895.18 4016.01 1905.36 4012.62 1908.75 4016.01H1944.38Z" fill="black"/>
<path d="M2249.78 3842.95C2198.88 4021.1 2081.81 4168.71 2015.64 4331.59L2005.46 4351.95L1924.02 4519.92C1910.45 4536.89 1905.36 4550.46 1908.75 4560.64L1857.85 4662.44L1806.95 4748.97C1800.16 4759.15 1786.59 4762.54 1766.23 4759.15C1756.05 4742.18 1756.05 4726.91 1766.23 4713.34L1791.68 4672.62L1929.11 4407.94C1939.29 4380.79 1951.17 4358.74 1964.74 4341.77L1974.92 4311.23C1981.71 4287.48 1991.89 4270.51 2005.46 4260.33C2020.73 4209.43 2056.36 4163.62 2066.54 4112.72C2076.72 4078.79 2091.99 4044.85 2112.35 4010.92C2108.96 3997.35 2108.96 3990.56 2112.35 3990.56C2112.35 3960.02 2137.8 3939.66 2142.89 3909.12C2163.25 3898.94 2147.98 3883.67 2158.16 3873.49L2209.06 3771.69C2209.06 3754.72 2220.94 3746.24 2244.69 3746.24C2261.66 3756.42 2266.75 3768.3 2259.96 3781.87C2253.17 3802.23 2249.78 3824.29 2249.78 3848.04M1119.8 916.199C1184.22 1355.44 1281.19 1789.29 1409.93 2214.15L1511.73 2656.98C1516.82 2718.06 1521.91 2723.15 1532.09 2758.78L1582.99 3008.19C1603.35 3086.24 1616.92 3165.98 1623.71 3247.42C1623.71 3277.96 1633.89 3313.59 1608.44 3328.86C1577.9 3318.68 1577.9 3277.96 1567.72 3252.51L1415.02 2417.75C1394.66 2360.06 1379.39 2300.68 1369.21 2239.6C1353.94 2168.34 1318.31 2102.17 1313.22 2025.82C1267.41 1913.84 1247.05 1781.5 1206.33 1669.52C1179.18 1581.29 1157.13 1491.37 1140.16 1399.75C1126.59 1386.18 1119.8 1372.6 1119.8 1359.03L1079.08 1145.25C1089.26 1109.62 1068.9 1094.35 1063.81 1053.63L1033.27 773.679C1033.27 743.139 1023.09 707.509 1048.54 687.149C1073.99 697.329 1079.08 738.049 1084.17 763.499C1090.96 814.399 1102.83 863.602 1119.8 911.109M3639.35 2448.29C3493.44 2529.73 3339.04 2563.66 3176.16 2550.09C2835.13 2519.55 2595.9 2270.14 2361.76 2071.63C2244.69 1969.83 2147.98 1852.76 2015.64 1766.23C1981.71 1742.48 1956.26 1730.6 1939.29 1730.6H1918.93C1838.34 1704.18 1752 1700.66 1669.52 1720.42C1591.47 1737.39 1518.52 1766.23 1450.65 1806.95C1425.2 1817.13 1399.75 1842.58 1374.3 1837.49C1364.12 1806.95 1399.75 1781.5 1425.2 1761.14C1459.13 1733.99 1498.16 1711.94 1542.27 1694.97C1674.88 1637.89 1824.41 1634.24 1959.65 1684.79C2071.63 1739.08 2166.64 1810.34 2244.69 1898.57L2382.12 2030.91C2433.02 2081.81 2504.28 2132.71 2550.09 2183.61C2651.89 2259.96 2753.69 2351.58 2870.76 2402.48C2952.2 2433.02 3048.91 2473.74 3135.44 2478.83C3152.41 2475.44 3165.98 2475.44 3176.16 2478.83C3250.81 2478.83 3322.07 2472.04 3389.94 2458.47C3425.57 2468.65 3440.84 2443.2 3481.56 2433.02C3575.23 2411.23 3662.43 2367.63 3736.06 2305.77C3756.42 2290.5 3776.78 2265.05 3807.32 2270.14C3817.5 2300.68 3786.96 2326.13 3766.6 2346.49C3725.88 2383.82 3681.77 2417.75 3634.26 2448.29M3741.15 2158.16C3664.8 1954.56 3649.53 1730.6 3588.45 1527C3581.66 1459.13 3569.79 1387.87 3552.82 1313.22C3552.82 1292.86 3547.73 1277.59 3537.55 1267.41L3501.92 1150.34L3471.38 1038.36C3471.38 1023.09 3461.2 1007.82 3486.65 992.549C3507.01 995.942 3518.89 1006.12 3522.28 1023.09C3564.34 1154.94 3598.34 1289.22 3624.08 1425.2L3634.26 1511.73C3639.35 1547.36 3659.71 1577.9 3654.62 1613.53C3668.19 1674.61 3685.16 1733.99 3705.52 1791.68L3741.15 1918.93C3741.15 1924.02 3761.51 1924.02 3756.42 1934.2L3781.87 2036C3771.69 2051.27 3792.05 2056.36 3797.14 2076.72L3827.68 2209.06C3827.68 2224.33 3837.86 2239.6 3812.41 2254.87C3792.05 2251.48 3780.17 2241.3 3776.78 2224.33C3769.99 2200.58 3758.12 2178.52 3741.15 2158.16ZM3120.17 1109.62C3057.42 1109.14 2995.29 1097.06 2936.93 1073.99C2774.05 1012.91 2712.97 829.669 2662.07 702.419C2634.82 635.063 2593.47 574.322 2540.79 524.279C2488.11 474.235 2425.33 436.05 2356.67 412.289L2346.49 402.109C2244.69 361.389 2136.1 341.029 2020.73 341.029C1969.83 341.029 1964.74 341.029 1939.29 351.209C1878.21 351.209 1796.77 366.479 1740.78 386.839L1562.63 437.739C1537.18 447.919 1511.73 463.189 1491.37 437.739C1498.16 413.986 1515.12 398.716 1542.27 391.929L1638.98 356.299C1872.6 272.372 2128.14 272.372 2361.76 356.299L2366.85 366.479C2424.54 386.839 2477.13 415.682 2524.64 453.009C2616.26 503.909 2667.16 605.709 2718.06 692.239C2753.69 753.319 2768.96 834.759 2814.77 885.659L2840.22 906.019C2874.15 946.739 2914.87 977.279 2962.38 997.639L2967.47 1007.82C2982.74 1023.09 3003.1 1007.82 3023.46 1023.09C3091.33 1043.45 3164.28 1051.93 3242.33 1048.54C3269.48 1045.15 3289.84 1051.93 3303.41 1068.9C3293.23 1092.65 3272.87 1104.53 3242.33 1104.53L3120.17 1109.62Z" fill="black"/>
<path d="M1506.64 570.079C1532.09 661.699 1491.37 748.229 1476.1 834.759L1430.29 906.019C1423.5 916.199 1421.81 922.986 1425.2 926.379L1394.66 967.099C1391.27 984.066 1381.09 995.942 1364.12 1002.73C1364.12 1009.52 1353.94 1006.12 1333.58 992.549C1323.4 978.976 1321.7 968.796 1328.49 962.009L1343.76 946.739L1415.02 844.939L1430.29 819.489C1440.47 809.309 1430.29 788.949 1445.56 783.859C1452.35 760.106 1454.04 738.049 1450.65 717.689V666.789L1440.47 661.699V626.069C1450.65 615.889 1435.38 615.889 1440.47 610.799V559.899C1433.68 556.506 1440.47 549.719 1460.83 539.539H1491.37C1491.37 556.506 1496.46 566.686 1506.64 570.079ZM1404.84 1328.49C1506.64 1318.31 1593.17 1369.21 1674.61 1409.93H1689.88L1761.14 1481.19C1767.93 1494.76 1773.02 1499.85 1776.41 1496.46L1817.13 1542.27C1827.31 1552.45 1835.79 1567.72 1842.58 1588.08C1849.37 1594.87 1844.28 1603.35 1827.31 1613.53C1796.77 1623.71 1801.86 1613.53 1796.77 1613.53L1781.5 1588.08L1694.97 1476.1L1664.43 1455.74L1654.25 1445.56C1644.07 1445.56 1635.59 1440.47 1628.8 1430.29C1603.35 1430.29 1582.99 1404.84 1557.54 1409.93C1532.09 1415.02 1521.91 1399.75 1501.55 1404.84C1501.55 1404.84 1491.37 1420.11 1491.37 1409.93H1450.65C1445.56 1389.57 1440.47 1409.93 1430.29 1404.84L1379.39 1394.66C1369.21 1394.66 1362.42 1386.18 1359.03 1369.21C1359.03 1348.85 1362.42 1338.67 1369.21 1338.67C1382.78 1338.67 1394.66 1335.28 1404.84 1328.49ZM3252.51 1180.88C3252.51 1214.81 3262.69 1250.44 3283.05 1287.77C3300.02 1314.92 3318.68 1333.58 3339.04 1343.76L3395.03 1389.57C3398.42 1396.36 3403.51 1396.36 3410.3 1389.57C3420.48 1399.75 3432.36 1404.84 3445.93 1404.84L3481.56 1415.02C3481.56 1420.11 3491.74 1415.02 3486.65 1445.56C3479.86 1465.92 3473.08 1472.71 3466.29 1465.92H3445.93C3404.85 1457.08 3367.51 1435.74 3339.04 1404.84L3313.59 1384.48C3308.5 1369.21 3288.14 1374.3 3288.14 1353.94C3271.17 1343.76 3257.6 1331.88 3247.42 1318.31L3237.24 1313.22L3211.79 1272.5H3196.52L3186.34 1231.78C3196.52 1221.6 3176.16 1221.6 3181.25 1211.42C3181.25 1191.06 3184.64 1174.09 3191.43 1160.52C3196.52 1150.34 3191.43 1145.25 3221.97 1150.34C3242.33 1153.73 3250.81 1158.82 3247.42 1165.61L3252.51 1180.88ZM3583.36 2061.45C3527.37 2112.35 3440.84 2147.98 3420.48 2229.42L3384.85 2300.68C3378.06 2310.86 3378.06 2317.65 3384.85 2321.04C3374.67 2334.61 3372.97 2349.88 3379.76 2366.85V2407.57C3369.58 2412.66 3374.67 2417.75 3349.22 2422.84C3328.86 2422.84 3320.38 2417.75 3323.77 2407.57V2382.12C3323.77 2331.22 3335.65 2283.71 3359.4 2239.6L3379.76 2209.06C3389.94 2198.88 3379.76 2178.52 3400.12 2173.43L3435.75 2107.26C3435.75 2091.99 3461.2 2081.81 3471.38 2066.54C3464.59 2063.15 3464.59 2058.06 3471.38 2051.27C3478.17 2044.48 3488.35 2036 3501.92 2025.82C3512.1 2025.82 3517.19 2022.43 3517.19 2015.64C3537.55 2012.25 3556.21 2005.46 3573.18 1995.28C3576.57 1991.89 3585.06 1996.98 3598.63 2010.55V2041.09C3591.84 2044.48 3586.75 2051.27 3583.36 2061.45Z" fill="white"/>
<path d="M987.46 3374.67C1041.75 3262.69 1109.62 3157.5 1191.06 3059.09C1238.57 2987.83 1303.04 2931.84 1384.48 2891.12C1428.59 2870.76 1472.71 2870.76 1516.82 2891.12C1598.26 2947.11 1577.9 3043.82 1567.72 3104.9L1476.1 3410.3C1459.13 3444.23 1450.65 3467.99 1450.65 3481.56L1389.57 3649.53L1323.4 3802.23C1316.61 3825.98 1299.65 3839.56 1272.5 3842.95C1257.23 3822.59 1272.5 3797.14 1272.5 3781.87L1308.13 3700.43C1372.6 3544.34 1431.99 3386.55 1486.28 3227.06L1521.91 3104.9V3094.72C1532.09 3047.21 1535.48 3004.8 1532.09 2967.47L1496.46 2931.84C1469.31 2918.27 1438.77 2918.27 1404.84 2931.84L1338.67 2977.65L1236.87 3094.72L1221.6 3120.17C1221.6 3133.74 1218.21 3143.92 1211.42 3150.71L1135.07 3272.87C1109.62 3283.05 1114.71 3308.5 1099.44 3328.86C1058.72 3383.15 1024.79 3439.14 997.64 3496.83C984.067 3517.19 967.1 3529.07 946.74 3532.46C926.38 3512.1 946.74 3486.65 946.74 3471.38C967.1 3437.45 980.674 3403.51 987.46 3369.58M1700.06 3211.79C1684.79 3262.69 1633.89 3288.14 1623.71 3344.13L1598.26 3384.85C1594.87 3384.85 1594.87 3388.24 1598.26 3395.03C1591.47 3401.82 1588.08 3412 1588.08 3425.57L1572.81 3445.93C1576.2 3452.72 1567.72 3452.72 1547.36 3445.93C1527 3432.36 1520.21 3423.87 1527 3420.48V3410.3L1572.81 3339.04C1572.81 3332.25 1576.2 3327.16 1582.99 3323.77C1593.17 3318.68 1582.99 3303.41 1598.26 3303.41C1593.17 3288.14 1613.53 3277.96 1603.35 3262.69L1613.53 3232.15L1608.44 3227.06L1618.62 3201.61C1633.89 3201.61 1618.62 3201.61 1618.62 3196.52C1632.19 3189.73 1640.68 3181.25 1644.07 3171.07H1674.61C1691.58 3181.25 1698.36 3188.04 1694.97 3191.43L1700.06 3211.79ZM2392.3 982.369C2473.74 999.336 2541.61 1033.27 2595.9 1084.17C2670.55 1138.46 2729.94 1206.33 2774.05 1287.77C2814.77 1379.39 2819.86 1469.31 2789.32 1557.54C2767.15 1616.97 2723.58 1665.98 2667.16 1694.97C2635.1 1708.69 2600.04 1713.95 2565.36 1710.24C2499.19 1705.15 2458.47 1654.25 2422.84 1603.35L2402.48 1562.63L2371.94 1501.55C2351.58 1460.83 2322.74 1426.9 2285.41 1399.75L2270.14 1389.57C2242.32 1376.59 2217.8 1357.48 2198.41 1333.68C2179.02 1309.88 2165.26 1282.01 2158.16 1252.14C2158.16 1231.78 2147.98 1201.24 2173.43 1191.06C2197.18 1201.24 2209.06 1216.51 2209.06 1236.87C2219.24 1264.02 2231.12 1286.07 2244.69 1303.04L2315.95 1353.94C2402.48 1409.93 2427.93 1506.64 2468.65 1577.9C2485.36 1609.11 2509.92 1635.43 2539.91 1654.25L2570.45 1664.43C2597.6 1664.43 2621.35 1661.04 2641.71 1654.25C2682.43 1637.28 2716.36 1608.44 2743.51 1567.72L2748.6 1542.27C2772.35 1474.4 2768.96 1406.54 2738.42 1338.67L2723.15 1313.22C2699.4 1272.5 2670.55 1236.87 2636.62 1206.33C2626.44 1196.15 2611.17 1206.33 2611.17 1191.06L2550.09 1140.16L2499.19 1109.62C2492.4 1096.05 2475.44 1087.56 2448.29 1084.17C2404.18 1050.24 2351.58 1036.66 2290.5 1043.45C2273.53 1050.24 2256.57 1046.84 2239.6 1033.27C2229.42 1002.73 2259.96 997.639 2280.32 987.459L2392.3 982.369Z" fill="black"/>
<path d="M3919.3 2575.54C3990.56 2519.55 4082.18 2463.56 4107.63 2366.85L4143.26 2275.23C4150.05 2265.05 4150.05 2258.26 4143.26 2254.87C4153.44 2237.9 4155.14 2219.24 4148.35 2198.88V2147.98C4144.96 2141.19 4153.44 2134.41 4173.8 2127.62C4204.34 2127.62 4199.25 2142.89 4204.34 2147.98V2178.52C4207.73 2232.81 4195.86 2287.11 4168.71 2341.4L4148.35 2382.12C4138.17 2392.3 4143.26 2417.75 4122.9 2422.84C4122.9 2453.38 4092.36 2473.74 4087.27 2504.28C4077.09 2524.64 4063.52 2541.61 4046.55 2555.18V2570.45L4010.92 2606.08C3990.56 2595.9 4000.74 2616.26 3990.56 2621.35L3929.48 2646.8C3922.69 2653.59 3912.51 2648.5 3898.94 2631.53C3892.15 2611.17 3892.15 2600.99 3898.94 2600.99C3912.51 2597.6 3919.3 2589.11 3919.3 2575.54ZM3781.87 3003.1C3888.76 2972.56 4021.1 2952.2 4102.54 2860.58C4136.47 2836.83 4167.01 2809.68 4194.16 2779.14C4207.73 2768.96 4212.82 2762.17 4209.43 2758.78L4250.15 2697.7C4256.94 2677.34 4267.12 2660.37 4280.69 2646.8C4280.69 2633.23 4290.87 2629.83 4311.23 2636.62C4336.68 2651.89 4326.5 2662.07 4326.5 2667.16C4326.5 2680.73 4321.41 2692.61 4311.23 2702.79C4279.67 2764.75 4234.41 2818.71 4178.89 2860.58C4165.32 2874.15 4150.05 2884.33 4133.08 2891.12C4122.9 2908.09 4105.93 2919.96 4082.18 2926.75L3995.65 2992.92C3975.29 3009.89 3953.23 3021.76 3929.48 3028.55C3924.39 3028.55 3929.48 3048.91 3919.3 3043.82L3858.22 3064.18C3848.04 3048.91 3848.04 3069.27 3832.77 3069.27L3751.33 3074.36C3741.15 3077.75 3732.67 3069.27 3725.88 3048.91C3725.88 3031.94 3730.97 3023.46 3741.15 3023.46C3758.12 3023.46 3771.69 3016.67 3781.87 3003.1ZM763.501 2061.45C729.568 2081.81 699.028 2108.96 671.881 2142.89C627.768 2203.97 614.194 2271.84 631.161 2346.49C645.428 2390.31 674.14 2427.99 712.601 2453.38C756.033 2488.71 806.282 2514.7 860.211 2529.73C877.178 2539.91 889.054 2541.61 895.841 2534.82C929.774 2541.61 963.708 2541.61 997.641 2534.82L1089.26 2524.64C1102.83 2521.25 1113.01 2528.03 1119.8 2545C1116.41 2568.75 1107.92 2580.63 1094.35 2580.63L1043.45 2585.72C968.798 2599.29 892.448 2594.2 814.401 2570.45L748.231 2539.91C724.478 2526.34 704.118 2509.37 687.151 2489.01C663.398 2472.04 643.038 2449.99 626.071 2422.84L590.441 2356.67L570.081 2275.23C566.688 2231.12 573.474 2190.4 590.441 2153.07C583.654 2146.28 583.654 2139.5 590.441 2132.71L605.711 2102.17L646.431 2051.27C666.791 2051.27 661.701 2036 676.971 2025.82L794.041 1980.01C804.221 1973.22 816.098 1978.31 829.671 1995.28C829.671 2019.03 822.884 2030.91 809.311 2030.91C792.344 2037.7 777.074 2047.88 763.501 2061.45ZM279.951 2595.9L305.401 2672.25C335.941 2738.42 391.931 2804.59 463.191 2824.95L564.991 2860.58H661.701L712.601 2850.4C748.231 2845.31 763.501 2880.94 743.141 2901.3C736.354 2911.48 724.478 2911.48 707.511 2901.3C697.331 2880.94 695.634 2869.06 702.421 2865.67L727.871 2906.39L697.331 2911.48C631.809 2924.37 563.868 2915.43 503.911 2886.03L458.101 2865.67C437.741 2858.88 420.774 2848.7 407.201 2835.13C376.661 2830.04 356.301 2794.41 325.761 2784.23C302.008 2770.66 285.041 2753.69 274.861 2733.33C264.681 2733.33 259.591 2729.94 259.591 2723.15L249.411 2712.97L229.051 2672.25C239.231 2656.98 218.871 2656.98 218.871 2646.8V2560.27C218.871 2546.7 230.748 2541.61 254.501 2545L274.861 2565.36L279.951 2595.9Z" fill="#EC0000"/>
</svg>
