<svg width="8374" height="5071" viewBox="0 0 8374 5071" fill="none" xmlns="http://www.w3.org/2000/svg">
<path d="M1413.96 3419.07C1808.28 3419.07 2133.63 3714.3 2180.63 4095.64C2223.79 4081.02 2270.04 4073.09 2318.14 4073.09C2554.62 4073.09 2746.31 4264.66 2746.31 4500.96C2746.31 4523.13 2744.62 4544.91 2741.37 4566.18L3453.92 4624.88V4624.89C3620.14 4624.89 3756.04 4754.73 3765.56 4918.46H256.977C249.663 4887.13 245.796 4854.47 245.796 4820.91C245.796 4595.55 420.199 4410.87 641.454 4394.26V4393.18L648.727 4393.78C655.192 4393.4 661.694 4393.17 668.253 4393.08C650.794 4328.66 641.491 4260.89 641.491 4190.95C641.491 3764.65 987.347 3419.07 1413.96 3419.07Z" fill="#9BC3D3"/>
<path d="M1536.35 2019.6L2428.9 489.993C2732.03 -29.4828 3482.86 -29.4817 3785.99 489.994L4678.54 2019.6V4918.45C3631.14 4918.45 2583.75 4918.45 1536.35 4918.45V2019.6Z" fill="#FFE699"/>
<path d="M4678.56 2262.78L6952.12 2262.78L7219.9 2718.95V4918.48H4678.56V2262.78Z" fill="#FFCC33"/>
<path d="M2428.91 489.957C2689.33 43.6689 3280.18 -19.2058 3633.71 301.33C3262.62 256.477 2869.83 418.118 2655.02 786.254L1536.35 2703.35V2019.56L2428.91 489.957Z" fill="#FFE699"/>
<path fill-rule="evenodd" clip-rule="evenodd" d="M3691.03 562.463C3432.05 112.33 2782.97 112.33 2523.99 562.463L1072.56 3085.15C1041.63 3138.9 973.021 3157.39 919.309 3126.44C865.597 3095.49 847.125 3026.83 878.05 2973.08L2329.48 450.395C2674.79 -149.783 3540.23 -149.783 3885.54 450.395L5336.97 2973.08C5367.89 3026.83 5349.42 3095.49 5295.71 3126.44C5242 3157.39 5173.39 3138.9 5142.46 3085.15L3691.03 562.463Z" fill="#F4A48D"/>
<path d="M3098.59 0.305146C3101.5 0.276768 3104.42 0.262293 3107.33 0.26172L3098.53 0.261719L3098.59 0.305146Z" fill="#EC0000"/>
<path d="M5242.44 3141.41H7481.53C7483.28 3141.45 7485.03 3141.45 7486.78 3141.41H7487.73L7487.72 3141.38C7505.55 3140.81 7523.5 3135.97 7540.05 3126.44C7593.76 3095.49 7612.23 3026.83 7581.3 2973.08L6129.87 450.395C5957.22 150.303 5654.52 0.258791 5351.84 0.261719V1.34399L5349.97 0.261719L3107.69 0.26172C3410.32 0.321235 3712.92 150.366 3885.54 450.395L5336.97 2973.08C5367.89 3026.83 5349.42 3095.49 5295.71 3126.44C5278.88 3136.14 5260.58 3140.98 5242.44 3141.41Z" fill="#EC0000"/>
<path d="M3098.59 0.305146C3101.5 0.276768 3104.42 0.262293 3107.33 0.26172L3098.53 0.261719L3098.59 0.305146Z" stroke="#EC0000" stroke-width="0.52" stroke-linecap="round"/>
<path d="M5242.44 3141.41H7481.53C7483.28 3141.45 7485.03 3141.45 7486.78 3141.41H7487.73L7487.72 3141.38C7505.55 3140.81 7523.5 3135.97 7540.05 3126.44C7593.76 3095.49 7612.23 3026.83 7581.3 2973.08L6129.87 450.395C5957.22 150.303 5654.52 0.258791 5351.84 0.261719V1.34399L5349.97 0.261719L3107.69 0.26172C3410.32 0.321235 3712.92 150.366 3885.54 450.395L5336.97 2973.08C5367.89 3026.83 5349.42 3095.49 5295.71 3126.44C5278.88 3136.14 5260.58 3140.98 5242.44 3141.41Z" stroke="#EC0000" stroke-width="0.52" stroke-linecap="round"/>
<path d="M3670.2 4918.47V3234.78C3670.2 3173.33 3619.95 3123.51 3557.98 3123.51H2537.42C2475.44 3123.51 2425.2 3173.33 2425.2 3234.78V4918.47H3670.2Z" fill="#856300"/>
<path d="M8373.73 4918.47H0.000780106V5070.95H8373.73V4918.47Z" fill="#DEEDF2"/>
<path d="M1221.12 4378.15C1154.36 4323.37 1111.94 4241.37 1111.94 4149.73C1111.94 3984.81 1249.3 3851.12 1418.73 3851.12C1588.16 3851.12 1725.52 3984.81 1725.52 4149.73C1725.52 4209.6 1707.4 4265.37 1676.23 4312.11C1857.48 4377.74 1986.62 4547.66 1986.62 4746.94C1986.62 4807.54 1974.67 4865.42 1952.96 4918.48H1067.27C1045.56 4865.42 1033.61 4807.54 1033.61 4746.94C1033.61 4596.56 1107.15 4462.89 1221.12 4378.15Z" fill="#9BC3D3"/>
<path d="M6964.99 3419.09C6568.98 3419.09 6242.23 3714.32 6195.04 4095.66C6151.69 4081.04 6105.24 4073.11 6056.93 4073.11C5819.44 4073.11 5626.92 4264.68 5626.92 4500.98C5626.92 4523.15 5628.62 4544.93 5631.89 4566.2L5579.96 4586.78L5579.95 4586.79C5406.82 4586.79 5266.45 4726.45 5266.45 4898.73C5266.45 4905.37 5266.66 4911.95 5267.07 4918.48H8126.94C8134.29 4887.15 8138.17 4854.49 8138.17 4820.93C8138.17 4595.57 7963.02 4410.89 7740.82 4394.28V4393.2L7733.51 4393.8C7727.02 4393.42 7720.49 4393.19 7713.9 4393.1C7731.43 4328.68 7740.78 4260.91 7740.78 4190.97C7740.78 3764.67 7393.44 3419.09 6964.99 3419.09Z" fill="#9BC3D3"/>
</svg>
