<svg width="2681" height="3096" viewBox="0 0 2681 3096" fill="none" xmlns="http://www.w3.org/2000/svg">
<path d="M1353.65 25.4062C1228.43 292.162 1037.89 401.042 776.581 531.698C711.253 560.733 644.111 584.324 575.153 602.47C313.841 667.798 172.297 646.022 85.1934 689.574C3.53344 689.574 139.633 1936.25 493.493 2437.1C689.477 2720.19 983.453 2965.17 1326.43 3019.61C1580.48 2921.61 1812.76 2783.7 2023.26 2605.86C2110.36 2526.02 2186.58 2437.1 2251.91 2339.11C2306.35 2252 2404.34 2105.01 2442.45 2012.47C2502.33 1854.59 2529.55 1816.48 2573.1 1658.61C2658.65 1339.39 2693.55 1008.73 2676.54 678.686C2632.99 569.806 2279.13 586.138 2088.59 531.698C1979.71 502.664 1881.71 459.112 1794.61 401.042C1636.73 297.606 1516.97 128.842 1359.09 25.4062" fill="white"/>
<path d="M90.6376 689.573C112.414 727.681 36.1977 1517.06 346.506 2105.01C656.814 2687.52 1005.23 2839.95 1005.23 2839.95L983.454 3095.82C983.454 3095.82 439.054 2758.29 194.074 2224.78C-61.7943 1419.07 8.97762 923.665 8.97762 923.665C8.97762 923.665 74.3055 651.465 96.0815 689.573M1533.3 68.9574L1555.07 96.1774C1649.44 197.799 1747.43 288.532 1849.05 368.377C1921.64 419.188 1997.85 455.481 2077.7 477.257C2146.66 506.292 2217.43 529.883 2290.01 548.029H2300.9C2322.68 558.917 2340.82 562.547 2355.34 558.917C2388.01 569.805 2447.89 580.693 2486 580.693L2611.21 591.581C2622.1 597.025 2643.87 591.581 2649.32 624.245C2634.8 646.021 2620.28 653.28 2605.77 646.021H2534.99C2446.79 639.115 2359.36 624.543 2273.68 602.469L2159.36 564.361L2066.81 526.253C2030.52 515.365 1994.22 499.033 1957.93 477.257C1910.75 459.111 1867.2 435.52 1827.27 406.485L1783.72 384.709C1740.17 362.933 1698.43 333.899 1658.51 297.605L1636.73 292.161L1555.07 210.501C1555.07 188.725 1533.3 194.169 1516.97 177.837L1500.63 150.617L1429.86 58.0693L1413.53 41.7374V14.5174C1420.79 3.08263e-05 1429.86 -3.62934 1440.75 3.62932L1467.97 14.5174C1486.12 36.2934 1507.89 54.44 1533.3 68.9574ZM733.03 526.253C869.13 477.257 1027.01 422.817 1125 303.049L1233.88 188.725L1255.65 156.061L1310.09 85.2893L1359.09 14.5174C1359.09 3.62936 1371.79 3.62936 1397.2 14.5174C1418.97 30.8494 1402.64 41.7374 1397.2 47.1814C1397.2 61.6987 1389.94 74.4013 1375.42 85.2893C1328.24 157.876 1273.8 225.019 1212.1 286.717L1157.66 330.269C1146.77 352.045 1128.63 370.192 1103.22 384.709C1076 422.817 1032.45 439.149 999.786 477.257L918.126 531.697L907.238 548.029L831.021 575.249C820.133 575.249 811.06 580.693 803.802 591.581C767.508 591.581 731.215 597.025 694.922 607.913C687.663 611.543 676.775 604.284 662.258 586.137C665.887 564.361 673.146 553.473 684.034 553.473L733.03 526.253Z" fill="black"/>
<path d="M123.301 929.11C115.877 1399.56 238.318 1862.95 477.161 2268.33C557.007 2402.62 653.184 2524.2 765.693 2633.08C814.689 2682.08 820.133 2687.52 852.797 2698.41C907.237 2752.85 1005.23 2812.73 1070.56 2845.4L1293.76 2954.28C1330.05 2965.17 1353.65 2983.31 1364.53 3008.72C1342.76 3035.94 1304.65 3014.16 1277.43 3008.72L1152.22 2954.28C854.816 2816.98 607.485 2590.58 444.497 2306.44C400.945 2241.11 364.652 2172.16 335.617 2099.57C264.845 1990.69 226.737 1854.59 177.741 1734.82C145.077 1640.46 121.487 1544.28 106.969 1446.29C106.969 1429.96 85.1933 1424.51 90.6373 1408.18L57.9734 1179.53C74.3054 1141.43 52.5293 1125.09 52.5293 1081.54L57.9734 776.678C63.4174 749.458 63.4173 705.906 90.6373 695.018C108.784 716.794 117.857 744.014 117.857 776.678L123.301 929.11Z" fill="black"/>
<path d="M79.7491 1174.09C90.6371 1555.17 123.301 1974.36 308.397 2317.33C359.208 2437.1 424.536 2549.61 504.381 2654.86C537.045 2703.85 547.933 2709.3 569.709 2725.63C607.817 2780.07 678.589 2839.95 733.029 2878.06L896.349 3003.27C925.384 3014.16 943.53 3032.31 950.789 3057.71C923.569 3079.49 896.349 3057.71 869.129 3052.27L771.137 2986.94C545.685 2827.97 371.602 2606.58 270.289 2349.99C233.996 2295.55 208.591 2235.67 194.073 2170.34C139.633 2066.91 123.301 1952.58 85.1932 1843.7L36.1971 1604.17C28.9385 1593.28 25.3091 1580.58 25.3091 1566.06C14.4211 1504.36 7.16254 1440.85 3.5332 1375.52C19.8652 1342.85 3.5332 1321.08 3.5332 1293.86C3.5332 1206.75 7.16237 1121.47 14.421 1037.99C14.421 1005.33 25.3092 981.736 47.0852 967.219C65.2318 988.995 74.3052 1012.59 74.3052 1037.99L79.7491 1174.09ZM2654.76 1364.63C2597.81 1756.92 2448.54 2130.08 2219.24 2453.43C2146.65 2558.68 2055.92 2653.04 1947.04 2736.52L1876.27 2790.96L1696.62 2921.61C1636.63 2959.26 1572.75 2990.29 1506.08 3014.16C1478.86 3019.61 1451.64 3035.94 1429.86 3014.16C1429.86 2981.5 1462.53 2970.61 1484.3 2959.72C1706.96 2860.95 1909.86 2722.61 2083.14 2551.42L2181.13 2431.65C2224.69 2388.1 2251.91 2322.77 2290.01 2279.22C2348.08 2184.86 2393.45 2086.87 2426.11 1985.25L2502.33 1762.04C2495.07 1747.53 2495.07 1734.82 2502.33 1723.93L2545.88 1544.28C2567.66 1517.06 2551.33 1495.29 2562.21 1468.07C2583.99 1388.22 2598.51 1308.38 2605.76 1228.53C2609.39 1199.5 2622.1 1177.72 2643.87 1163.2C2671.09 1174.09 2660.21 1206.75 2665.65 1233.97L2660.2 1364.63" fill="black"/>
<path fill-rule="evenodd" clip-rule="evenodd" d="M510 2225.35V2139.3C510 1952.69 748.619 1826.36 967.477 1826.36C1075.75 1826.36 1191.87 1858.28 1273.87 1880.83C1318.35 1893.07 1352.79 1902.54 1370.5 1902.65C1388.21 1902.54 1422.65 1893.07 1467.13 1880.83C1549.13 1858.28 1665.24 1826.36 1773.52 1826.36C1992.38 1826.36 2231 1952.69 2231 2139.3V2225.35C2231 2320.4 2153.95 2397.45 2058.9 2397.45H682.1C587.051 2397.45 510 2320.4 510 2225.35Z" fill="#23779A"/>
<path fill-rule="evenodd" clip-rule="evenodd" d="M1045.79 2397.45H2058.9C2153.95 2397.45 2231 2320.4 2231 2225.35V2139.3C2231 1952.69 1992.38 1826.36 1773.52 1826.36C1665.25 1826.36 1549.13 1858.28 1467.13 1880.83C1422.65 1893.06 1388.21 1902.54 1370.5 1902.65C1362.11 1902.6 1349.97 1900.45 1334.79 1896.89L1045.79 2397.45Z" fill="#34466B"/>
<path d="M1726.17 1447.65L1770.12 1082.66C1800.47 851.232 1590.18 676.436 1370.1 676.436C1136.82 676.436 934.806 862.62 970.87 1084.73L1014.21 1446.08C1046.18 1624.05 1185.29 1752.86 1370.1 1752.86C1555.49 1752.86 1698.5 1629.67 1726.17 1447.65Z" fill="#9BC3D3"/>
<path fill-rule="evenodd" clip-rule="evenodd" d="M1165.14 1690.01C1133.23 1644.72 1110.85 1591.13 1100.26 1532.13L1056.92 1170.77C1020.86 948.67 1222.87 762.486 1456.14 762.486C1548.06 762.486 1638.27 792.975 1709.96 845.346C1635.47 741.732 1504.61 676.436 1370.1 676.436C1136.82 676.436 934.806 862.62 970.87 1084.73L1014.21 1446.08C1032.69 1548.94 1086.95 1635.37 1165.14 1690.01Z" fill="#CEDEE7"/>
<path fill-rule="evenodd" clip-rule="evenodd" d="M1772.09 1063.66H968.146C947.68 850.973 1144.23 676.436 1370.1 676.436C1584.11 676.436 1788.87 841.731 1772.09 1063.66Z" fill="#34466B"/>
<path fill-rule="evenodd" clip-rule="evenodd" d="M988.988 1235.77H1035.74L1049.43 1290.55C1066.67 1359.5 1128.62 1407.87 1199.7 1407.87H1240.14C1293.99 1407.87 1342.61 1380.1 1370.5 1336.65C1398.4 1380.1 1447.02 1407.87 1500.87 1407.87H1541.31C1612.39 1407.87 1674.34 1359.5 1691.58 1290.55L1705.27 1235.77H1751.69L1762.05 1149.72H978.668L988.988 1235.77ZM1425.61 1235.77H1616.58L1608.1 1269.68C1600.44 1300.32 1572.9 1321.82 1541.31 1321.82H1500.87C1469.28 1321.82 1441.75 1300.32 1434.08 1269.68L1425.61 1235.77ZM1315.4 1235.77H1124.43L1132.91 1269.68C1140.57 1300.32 1168.11 1321.82 1199.7 1321.82H1240.14C1271.73 1321.82 1299.26 1300.32 1306.93 1269.68L1315.4 1235.77Z" fill="#34466B"/>
<path fill-rule="evenodd" clip-rule="evenodd" d="M1057.73 1063.66H968.146C947.68 850.973 1144.23 676.436 1370.1 676.436C1504.61 676.436 1635.47 741.732 1709.96 845.346C1638.27 792.975 1548.06 762.486 1456.14 762.486C1261.65 762.486 1088.9 891.906 1057.73 1063.66ZM1054.2 1149.71H978.663L988.982 1235.76H1035.73L1049.43 1290.54C1054.91 1312.48 1064.92 1332.34 1078.32 1349.22L1056.92 1170.77C1055.77 1163.72 1054.87 1156.69 1054.2 1149.71Z" fill="#23779A"/>
</svg>
