<svg width="2681" height="3096" viewBox="0 0 2681 3096" fill="none" xmlns="http://www.w3.org/2000/svg">
<path d="M1353.65 25.4062C1228.43 292.162 1037.89 401.042 776.581 531.698C711.253 560.733 644.111 584.324 575.153 602.47C313.841 667.798 172.297 646.022 85.1934 689.574C3.53344 689.574 139.633 1936.25 493.493 2437.1C689.477 2720.19 983.453 2965.17 1326.43 3019.61C1580.48 2921.61 1812.76 2783.7 2023.26 2605.86C2110.36 2526.02 2186.58 2437.1 2251.91 2339.11C2306.35 2252 2404.34 2105.01 2442.45 2012.47C2502.33 1854.59 2529.55 1816.48 2573.1 1658.61C2658.65 1339.39 2693.55 1008.73 2676.54 678.686C2632.99 569.806 2279.13 586.138 2088.59 531.698C1979.71 502.664 1881.71 459.112 1794.61 401.042C1636.73 297.606 1516.97 128.842 1359.09 25.4062" fill="white"/>
<path d="M90.6376 689.573C112.414 727.681 36.1977 1517.06 346.506 2105.01C656.814 2687.52 1005.23 2839.95 1005.23 2839.95L983.454 3095.82C983.454 3095.82 439.054 2758.29 194.074 2224.78C-61.7943 1419.07 8.97762 923.665 8.97762 923.665C8.97762 923.665 74.3055 651.465 96.0815 689.573M1533.3 68.9574L1555.07 96.1774C1649.44 197.799 1747.43 288.532 1849.05 368.377C1921.64 419.188 1997.85 455.481 2077.7 477.257C2146.66 506.292 2217.43 529.883 2290.01 548.029H2300.9C2322.68 558.917 2340.82 562.547 2355.34 558.917C2388.01 569.805 2447.89 580.693 2486 580.693L2611.21 591.581C2622.1 597.025 2643.87 591.581 2649.32 624.245C2634.8 646.021 2620.28 653.28 2605.77 646.021H2534.99C2446.79 639.115 2359.36 624.543 2273.68 602.469L2159.36 564.361L2066.81 526.253C2030.52 515.365 1994.22 499.033 1957.93 477.257C1910.75 459.111 1867.2 435.52 1827.27 406.485L1783.72 384.709C1740.17 362.933 1698.43 333.899 1658.51 297.605L1636.73 292.161L1555.07 210.501C1555.07 188.725 1533.3 194.169 1516.97 177.837L1500.63 150.617L1429.86 58.0693L1413.53 41.7374V14.5174C1420.79 3.08263e-05 1429.86 -3.62934 1440.75 3.62932L1467.97 14.5174C1486.12 36.2934 1507.89 54.44 1533.3 68.9574ZM733.03 526.253C869.13 477.257 1027.01 422.817 1125 303.049L1233.88 188.725L1255.65 156.061L1310.09 85.2893L1359.09 14.5174C1359.09 3.62936 1371.79 3.62936 1397.2 14.5174C1418.97 30.8494 1402.64 41.7374 1397.2 47.1814C1397.2 61.6987 1389.94 74.4013 1375.42 85.2893C1328.24 157.876 1273.8 225.019 1212.1 286.717L1157.66 330.269C1146.77 352.045 1128.63 370.192 1103.22 384.709C1076 422.817 1032.45 439.149 999.786 477.257L918.126 531.697L907.238 548.029L831.021 575.249C820.133 575.249 811.06 580.693 803.802 591.581C767.508 591.581 731.215 597.025 694.922 607.913C687.663 611.543 676.775 604.284 662.258 586.137C665.887 564.361 673.146 553.473 684.034 553.473L733.03 526.253Z" fill="black"/>
<path d="M123.301 929.11C115.877 1399.56 238.318 1862.95 477.161 2268.33C557.007 2402.62 653.184 2524.2 765.693 2633.08C814.689 2682.08 820.133 2687.52 852.797 2698.41C907.237 2752.85 1005.23 2812.73 1070.56 2845.4L1293.76 2954.28C1330.05 2965.17 1353.65 2983.31 1364.53 3008.72C1342.76 3035.94 1304.65 3014.16 1277.43 3008.72L1152.22 2954.28C854.816 2816.98 607.485 2590.58 444.497 2306.44C400.945 2241.11 364.652 2172.16 335.617 2099.57C264.845 1990.69 226.737 1854.59 177.741 1734.82C145.077 1640.46 121.487 1544.28 106.969 1446.29C106.969 1429.96 85.1933 1424.51 90.6373 1408.18L57.9734 1179.53C74.3054 1141.43 52.5293 1125.09 52.5293 1081.54L57.9734 776.678C63.4174 749.458 63.4173 705.906 90.6373 695.018C108.784 716.794 117.857 744.014 117.857 776.678L123.301 929.11Z" fill="black"/>
<path d="M79.7491 1174.09C90.6371 1555.17 123.301 1974.36 308.397 2317.33C359.208 2437.1 424.536 2549.61 504.381 2654.86C537.045 2703.85 547.933 2709.3 569.709 2725.63C607.817 2780.07 678.589 2839.95 733.029 2878.06L896.349 3003.27C925.384 3014.16 943.53 3032.31 950.789 3057.71C923.569 3079.49 896.349 3057.71 869.129 3052.27L771.137 2986.94C545.685 2827.97 371.602 2606.58 270.289 2349.99C233.996 2295.55 208.591 2235.67 194.073 2170.34C139.633 2066.91 123.301 1952.58 85.1932 1843.7L36.1971 1604.17C28.9385 1593.28 25.3091 1580.58 25.3091 1566.06C14.4211 1504.36 7.16254 1440.85 3.5332 1375.52C19.8652 1342.85 3.5332 1321.08 3.5332 1293.86C3.5332 1206.75 7.16237 1121.47 14.421 1037.99C14.421 1005.33 25.3092 981.736 47.0852 967.219C65.2318 988.995 74.3052 1012.59 74.3052 1037.99L79.7491 1174.09ZM2654.76 1364.63C2597.81 1756.92 2448.54 2130.08 2219.24 2453.43C2146.65 2558.68 2055.92 2653.04 1947.04 2736.52L1876.27 2790.96L1696.62 2921.61C1636.63 2959.26 1572.75 2990.29 1506.08 3014.16C1478.86 3019.61 1451.64 3035.94 1429.86 3014.16C1429.86 2981.5 1462.53 2970.61 1484.3 2959.72C1706.96 2860.95 1909.86 2722.61 2083.14 2551.42L2181.13 2431.65C2224.69 2388.1 2251.91 2322.77 2290.01 2279.22C2348.08 2184.86 2393.45 2086.87 2426.11 1985.25L2502.33 1762.04C2495.07 1747.53 2495.07 1734.82 2502.33 1723.93L2545.88 1544.28C2567.66 1517.06 2551.33 1495.29 2562.21 1468.07C2583.99 1388.22 2598.51 1308.38 2605.76 1228.53C2609.39 1199.5 2622.1 1177.72 2643.87 1163.2C2671.09 1174.09 2660.21 1206.75 2665.65 1233.97L2660.2 1364.63" fill="black"/>
<path fill-rule="evenodd" clip-rule="evenodd" d="M618.929 1940.44C573.681 1940.44 537 1903.76 537 1858.51V1407.9C537 1325.97 616.517 1285.01 689.448 1285.01C725.531 1285.01 764.225 1294.17 791.551 1300.64C806.372 1304.15 817.849 1306.86 823.751 1306.9C829.653 1306.86 841.129 1304.15 855.951 1300.64C883.277 1294.17 921.971 1285.01 958.054 1285.01C1030.99 1285.01 1110.5 1325.97 1110.5 1407.9V1858.51C1110.5 1903.76 1073.82 1940.44 1028.57 1940.44H618.929Z" fill="#23779A"/>
<path fill-rule="evenodd" clip-rule="evenodd" d="M542.25 1887.44C553.94 1918.41 583.861 1940.44 618.927 1940.44H1028.57C1073.82 1940.44 1110.5 1903.76 1110.5 1858.51V1407.9C1110.5 1325.97 1030.98 1285.01 958.052 1285.01C933.375 1285.01 907.476 1289.29 884.828 1294.07L542.25 1887.44Z" fill="#34466B"/>
<path d="M1003.01 963.488L983.324 1116.28C970.932 1192.48 906.883 1244.04 823.853 1244.04C741.088 1244.04 678.788 1190.12 664.469 1115.62L645.059 964.353C628.908 871.376 719.38 793.436 823.853 793.436C922.42 793.436 1016.6 866.608 1003.01 963.488Z" fill="#9BC3D3"/>
<path d="M744.721 1190.72C747.497 1205.17 752.077 1218.84 758.26 1231.49C709.261 1211.37 674.676 1168.73 664.469 1115.62L645.059 964.353C628.908 871.376 719.38 793.436 823.853 793.436C894.472 793.436 962.839 830.996 990.932 887.925C964.422 875.482 934.472 868.537 904.106 868.537C799.633 868.537 709.161 946.477 725.311 1039.45L744.721 1190.72Z" fill="#CEDEE7"/>
<path d="M618.91 1940.45H1028.55V2401.3C1028.55 2418.26 1014.8 2432.02 997.831 2432.02H649.633C632.666 2432.02 618.91 2418.26 618.91 2401.3V1940.45Z" fill="#9BC3D3"/>
<path d="M1679.58 1833.18C1690.36 1844.13 1703.16 1853.08 1717.36 1859.42L1645.51 2147.25L1644.34 2154.67C1643.7 2164.6 1646.72 2174.48 1652.88 2182.42C1660.66 2192.35 1672.62 2198.17 1685.24 2198.17H2176.81L2184.24 2197.48C2193.97 2195.67 2202.87 2190.36 2209.1 2182.42C2216.8 2172.5 2219.58 2159.55 2216.47 2147.25L2144.61 1859.42L2155.07 1854.14C2192.38 1833.03 2217.78 1793.09 2217.78 1747.17L2217.7 1428.92L2217.14 1420.2C2211.07 1355.9 2160.82 1285.01 2036.06 1285.01C2032.78 1285.01 2029.59 1285.33 2026.39 1286.16C2022.44 1287.12 2018.36 1288.08 2014.21 1289.04L1990.79 1294.14L1679.58 1833.18Z" fill="#CC0000"/>
<path d="M1990.78 1294.14L1679.56 1833.18C1660.48 1813.79 1647.74 1788.12 1644.87 1759.53L1644.25 1747.17V1430.31C1646.63 1359.38 1694.81 1285.01 1822.94 1285.01C1826.06 1285.01 1829.09 1285.33 1832.12 1285.99L1858.32 1291.57L1884.43 1296.47L1917.75 1302.02L1932.32 1304.2L1936.75 1303.93L1950.19 1302.09L1978.35 1296.85L1990.78 1294.14Z" fill="#EC0000"/>
<path d="M2116.95 963.502L2097.27 1116.29C2084.87 1192.49 2020.83 1244.06 1937.8 1244.06C1855.03 1244.06 1792.73 1190.14 1778.42 1115.63L1759 964.367C1742.85 871.389 1833.32 793.449 1937.8 793.449C2036.36 793.449 2130.54 866.622 2116.95 963.502Z" fill="#F67F7F"/>
<path d="M1858.67 1190.74C1861.44 1205.18 1866.02 1218.85 1872.2 1231.51C1823.2 1211.39 1788.62 1168.74 1778.42 1115.63L1759 964.367C1742.85 871.389 1833.32 793.449 1937.8 793.449C2008.42 793.449 2076.78 831.01 2104.88 887.939C2078.37 875.496 2048.42 868.551 2018.05 868.551C1913.58 868.551 1823.11 946.491 1839.25 1039.47L1858.67 1190.74Z" fill="#FAB2B2"/>
<path d="M1717.65 2198.17H2127.29V2401.3C2127.29 2418.27 2113.53 2432.03 2096.56 2432.03H1748.37C1731.4 2432.03 1717.65 2418.27 1717.65 2401.3V2198.17Z" fill="#F67F7F"/>
<path fill-rule="evenodd" clip-rule="evenodd" d="M1233.69 2089.73C1201.94 2089.73 1176.2 2064 1176.2 2032.25V1716.12C1176.2 1658.63 1231.99 1629.89 1283.16 1629.89C1308.47 1629.89 1335.62 1636.32 1354.79 1640.86C1365.19 1643.32 1373.24 1645.23 1377.39 1645.26C1381.53 1645.23 1389.58 1643.32 1399.97 1640.86C1419.14 1636.32 1446.29 1629.89 1471.61 1629.89C1522.77 1629.89 1578.56 1658.63 1578.56 1716.12V2032.25C1578.56 2064 1552.83 2089.73 1521.08 2089.73H1233.69Z" fill="#BB7295"/>
<path fill-rule="evenodd" clip-rule="evenodd" d="M1179.89 2052.54C1188.1 2074.28 1209.09 2089.73 1233.69 2089.73H1521.09C1552.83 2089.73 1578.57 2064 1578.57 2032.25V1716.12C1578.57 1658.63 1522.78 1629.89 1471.61 1629.89C1454.3 1629.89 1436.13 1632.9 1420.24 1636.25L1179.89 2052.54Z" fill="#9E3667"/>
<path d="M1503.15 1404.31L1489.34 1511.51C1480.64 1564.97 1435.71 1601.14 1377.46 1601.14C1319.39 1601.14 1275.68 1563.32 1265.64 1511.05L1252.02 1404.92C1240.69 1339.69 1304.16 1285.01 1377.46 1285.01C1446.61 1285.01 1512.68 1336.35 1503.15 1404.31Z" fill="#CF9BB3"/>
<path d="M1321.94 1563.74C1323.89 1573.87 1327.1 1583.46 1331.44 1592.34C1297.06 1578.23 1272.8 1548.31 1265.64 1511.05L1252.02 1404.92C1240.69 1339.69 1304.16 1285.01 1377.46 1285.01C1427 1285.01 1474.97 1311.36 1494.67 1351.3C1476.08 1342.57 1455.06 1337.7 1433.76 1337.7C1360.47 1337.7 1296.99 1392.38 1308.32 1457.61L1321.94 1563.74Z" fill="#E2C3D2"/>
<path d="M1233.66 2089.72H1521.06V2413.04C1521.06 2424.95 1511.41 2434.6 1499.5 2434.6H1255.22C1243.31 2434.6 1233.66 2424.95 1233.66 2413.04V2089.72Z" fill="#CF9BB3"/>
<path d="M1353.65 25.4062C1228.43 292.162 1037.89 401.042 776.581 531.698C711.253 560.733 644.111 584.324 575.153 602.47C313.841 667.798 172.297 646.022 85.1934 689.574C3.53344 689.574 139.633 1936.25 493.493 2437.1C689.477 2720.19 983.453 2965.17 1326.43 3019.61C1580.48 2921.61 1812.76 2783.7 2023.26 2605.86C2110.36 2526.02 2186.58 2437.1 2251.91 2339.11C2306.35 2252 2404.34 2105.01 2442.45 2012.47C2502.33 1854.59 2529.55 1816.48 2573.1 1658.61C2658.65 1339.39 2693.55 1008.73 2676.54 678.686C2632.99 569.806 2279.13 586.138 2088.59 531.698C1979.71 502.664 1881.71 459.112 1794.61 401.042C1636.73 297.606 1516.97 128.842 1359.09 25.4062" fill="white"/>
<path d="M90.6376 689.573C112.414 727.681 36.1977 1517.06 346.506 2105.01C656.814 2687.52 1005.23 2839.95 1005.23 2839.95L983.454 3095.82C983.454 3095.82 439.054 2758.29 194.074 2224.78C-61.7943 1419.07 8.97762 923.665 8.97762 923.665C8.97762 923.665 74.3055 651.465 96.0815 689.573M1533.3 68.9574L1555.07 96.1774C1649.44 197.799 1747.43 288.532 1849.05 368.377C1921.64 419.188 1997.85 455.481 2077.7 477.257C2146.66 506.292 2217.43 529.883 2290.01 548.029H2300.9C2322.68 558.917 2340.82 562.547 2355.34 558.917C2388.01 569.805 2447.89 580.693 2486 580.693L2611.21 591.581C2622.1 597.025 2643.87 591.581 2649.32 624.245C2634.8 646.021 2620.28 653.28 2605.77 646.021H2534.99C2446.79 639.115 2359.36 624.543 2273.68 602.469L2159.36 564.361L2066.81 526.253C2030.52 515.365 1994.22 499.033 1957.93 477.257C1910.75 459.111 1867.2 435.52 1827.27 406.485L1783.72 384.709C1740.17 362.933 1698.43 333.899 1658.51 297.605L1636.73 292.161L1555.07 210.501C1555.07 188.725 1533.3 194.169 1516.97 177.837L1500.63 150.617L1429.86 58.0693L1413.53 41.7374V14.5174C1420.79 3.08263e-05 1429.86 -3.62934 1440.75 3.62932L1467.97 14.5174C1486.12 36.2934 1507.89 54.44 1533.3 68.9574ZM733.03 526.253C869.13 477.257 1027.01 422.817 1125 303.049L1233.88 188.725L1255.65 156.061L1310.09 85.2893L1359.09 14.5174C1359.09 3.62936 1371.79 3.62936 1397.2 14.5174C1418.97 30.8494 1402.64 41.7374 1397.2 47.1814C1397.2 61.6987 1389.94 74.4013 1375.42 85.2893C1328.24 157.876 1273.8 225.019 1212.1 286.717L1157.66 330.269C1146.77 352.045 1128.63 370.192 1103.22 384.709C1076 422.817 1032.45 439.149 999.786 477.257L918.126 531.697L907.238 548.029L831.021 575.249C820.133 575.249 811.06 580.693 803.802 591.581C767.508 591.581 731.215 597.025 694.922 607.913C687.663 611.543 676.775 604.284 662.258 586.137C665.887 564.361 673.146 553.473 684.034 553.473L733.03 526.253Z" fill="black"/>
<path d="M123.301 929.11C115.877 1399.56 238.318 1862.95 477.161 2268.33C557.007 2402.62 653.184 2524.2 765.693 2633.08C814.689 2682.08 820.133 2687.52 852.797 2698.41C907.237 2752.85 1005.23 2812.73 1070.56 2845.4L1293.76 2954.28C1330.05 2965.17 1353.65 2983.31 1364.53 3008.72C1342.76 3035.94 1304.65 3014.16 1277.43 3008.72L1152.22 2954.28C854.816 2816.98 607.485 2590.58 444.497 2306.44C400.945 2241.11 364.652 2172.16 335.617 2099.57C264.845 1990.69 226.737 1854.59 177.741 1734.82C145.077 1640.46 121.487 1544.28 106.969 1446.29C106.969 1429.96 85.1933 1424.51 90.6373 1408.18L57.9734 1179.53C74.3054 1141.43 52.5293 1125.09 52.5293 1081.54L57.9734 776.678C63.4174 749.458 63.4173 705.906 90.6373 695.018C108.784 716.794 117.857 744.014 117.857 776.678L123.301 929.11Z" fill="black"/>
<path d="M79.7491 1174.09C90.6371 1555.17 123.301 1974.36 308.397 2317.33C359.208 2437.1 424.536 2549.61 504.381 2654.86C537.045 2703.85 547.933 2709.3 569.709 2725.63C607.817 2780.07 678.589 2839.95 733.029 2878.06L896.349 3003.27C925.384 3014.16 943.53 3032.31 950.789 3057.71C923.569 3079.49 896.349 3057.71 869.129 3052.27L771.137 2986.94C545.685 2827.97 371.602 2606.58 270.289 2349.99C233.996 2295.55 208.591 2235.67 194.073 2170.34C139.633 2066.91 123.301 1952.58 85.1932 1843.7L36.1971 1604.17C28.9385 1593.28 25.3091 1580.58 25.3091 1566.06C14.4211 1504.36 7.16254 1440.85 3.5332 1375.52C19.8652 1342.85 3.5332 1321.08 3.5332 1293.86C3.5332 1206.75 7.16237 1121.47 14.421 1037.99C14.421 1005.33 25.3092 981.736 47.0852 967.219C65.2318 988.995 74.3052 1012.59 74.3052 1037.99L79.7491 1174.09ZM2654.76 1364.63C2597.81 1756.92 2448.54 2130.08 2219.24 2453.43C2146.65 2558.68 2055.92 2653.04 1947.04 2736.52L1876.27 2790.96L1696.62 2921.61C1636.63 2959.26 1572.75 2990.29 1506.08 3014.16C1478.86 3019.61 1451.64 3035.94 1429.86 3014.16C1429.86 2981.5 1462.53 2970.61 1484.3 2959.72C1706.96 2860.95 1909.86 2722.61 2083.14 2551.42L2181.13 2431.65C2224.69 2388.1 2251.91 2322.77 2290.01 2279.22C2348.08 2184.86 2393.45 2086.87 2426.11 1985.25L2502.33 1762.04C2495.07 1747.53 2495.07 1734.82 2502.33 1723.93L2545.88 1544.28C2567.66 1517.06 2551.33 1495.29 2562.21 1468.07C2583.99 1388.22 2598.51 1308.38 2605.76 1228.53C2609.39 1199.5 2622.1 1177.72 2643.87 1163.2C2671.09 1174.09 2660.21 1206.75 2665.65 1233.97L2660.2 1364.63" fill="black"/>
<path d="M1806.78 903.436C2086.08 903.436 2312.85 1125.9 2312.85 1401.14C2312.85 1735.59 2138.72 2005.97 1852.94 2216.16C1754.74 2288.39 1649.94 2348.35 1545.13 2396.88C1520.64 2408.22 1497.28 2418.4 1475.3 2427.45L1430.2 2445.18L1402.78 2454.92C1387.04 2460.06 1370.08 2460.06 1354.34 2454.92L1313.74 2440.17C1282.92 2428.29 1248.73 2413.89 1212 2396.88C1107.19 2348.35 1002.38 2288.39 904.178 2216.16C618.403 2005.97 444.268 1735.59 444.268 1401.14C444.268 1125.95 671.148 903.436 950.344 903.436C1130.56 903.436 1288.91 996.059 1378.58 1135.72C1468.28 996.07 1626.64 903.436 1806.78 903.436Z" fill="#CC0000"/>
<path fill-rule="evenodd" clip-rule="evenodd" d="M2236.93 1138.72C2147.61 997.388 1988.29 903.436 1806.78 903.436C1626.64 903.436 1468.28 996.07 1378.58 1135.72C1288.91 996.059 1130.56 903.436 950.344 903.436C671.148 903.436 444.268 1125.95 444.268 1401.14C444.268 1701.81 585.002 1950.7 821.064 2150.63C680.189 1981.45 599.984 1783.98 599.984 1557C599.984 1281.81 826.863 1059.29 1106.06 1059.29C1286.28 1059.29 1444.63 1151.92 1534.3 1291.58C1623.99 1151.93 1782.35 1059.29 1962.49 1059.29C2063.61 1059.29 2157.85 1088.45 2236.93 1138.72Z" fill="#EC0000"/>
<path d="M1117.47 1254.27L1119.07 1254.3C1147.52 1254.85 1173.16 1270.48 1186.94 1294.64L1187.67 1295.92L1192.31 1306.04L1397.41 1880.85L1625.4 1505.67L1625.44 1505.61C1639.61 1482.14 1665.94 1464.65 1697.96 1467.21C1721.8 1468.49 1743.64 1480.37 1757.72 1499.11L1758.62 1500.31L1764.6 1509.99L1897.82 1776.87H2266.13C2310.3 1776.87 2346.08 1812.72 2346.08 1856.86C2346.08 1896.14 2317.79 1928.77 2280.47 1935.56L2278.99 1935.83L2267.62 1936.85H1848.4C1823.16 1936.85 1799.77 1924.93 1784.84 1905.36L1783.9 1904.13L1777.61 1894.07L1686.91 1712.42L1446.91 2107.32L1446.87 2107.38C1432.23 2131.65 1406.19 2145.86 1378.54 2145.86H1377.89L1371.39 2145.6L1370.31 2145.49C1344.13 2142.75 1321.18 2127.32 1308.62 2104.66L1307.95 2103.47L1303.69 2094.02L1113.3 1560.39L982.894 1886.59C972.482 1912.5 949.407 1930.92 922.456 1935.65L921.032 1935.9L910.123 1936.85H490.951C446.78 1936.85 411 1900.99 411 1856.86C411 1817.58 439.292 1784.93 476.612 1778.15L478.089 1777.88L489.461 1776.87H854.5L1043.2 1304.86L1043.24 1304.75C1053.61 1278.44 1076.88 1260.17 1103.75 1255.49L1105.31 1255.21L1117.47 1254.27Z" fill="#F5F9FB"/>
</svg>
