<svg width="2681" height="3096" viewBox="0 0 2681 3096" fill="none" xmlns="http://www.w3.org/2000/svg">
<path d="M1353.65 25.4062C1228.43 292.162 1037.89 401.042 776.582 531.698C711.254 560.733 644.111 584.324 575.154 602.47C313.842 667.798 172.298 646.022 85.1939 689.574C3.53392 689.574 139.634 1936.25 493.494 2437.1C689.478 2720.19 983.454 2965.17 1326.43 3019.61C1580.48 2921.61 1812.76 2783.7 2023.26 2605.86C2110.36 2526.02 2186.58 2437.1 2251.91 2339.11C2306.35 2252 2404.34 2105.01 2442.45 2012.47C2502.33 1854.59 2529.55 1816.48 2573.1 1658.61C2658.65 1339.39 2693.55 1008.73 2676.54 678.686C2632.99 569.806 2279.13 586.138 2088.59 531.698C1979.71 502.664 1881.71 459.112 1794.61 401.042C1636.73 297.606 1516.97 128.842 1359.09 25.4062" fill="white"/>
<path d="M90.6376 689.573C112.414 727.681 36.1977 1517.06 346.506 2105.01C656.814 2687.52 1005.23 2839.95 1005.23 2839.95L983.454 3095.82C983.454 3095.82 439.054 2758.29 194.074 2224.78C-61.7943 1419.07 8.97762 923.665 8.97762 923.665C8.97762 923.665 74.3055 651.465 96.0815 689.573M1533.3 68.9574L1555.07 96.1774C1649.44 197.799 1747.43 288.532 1849.05 368.377C1921.64 419.188 1997.85 455.481 2077.7 477.257C2146.66 506.292 2217.43 529.883 2290.01 548.029H2300.9C2322.68 558.917 2340.82 562.547 2355.34 558.917C2388.01 569.805 2447.89 580.693 2486 580.693L2611.21 591.581C2622.1 597.025 2643.87 591.581 2649.32 624.245C2634.8 646.021 2620.28 653.28 2605.77 646.021H2534.99C2446.79 639.115 2359.36 624.543 2273.68 602.469L2159.36 564.361L2066.81 526.253C2030.52 515.365 1994.22 499.033 1957.93 477.257C1910.75 459.111 1867.2 435.52 1827.27 406.485L1783.72 384.709C1740.17 362.933 1698.43 333.899 1658.51 297.605L1636.73 292.161L1555.07 210.501C1555.07 188.725 1533.3 194.169 1516.97 177.837L1500.63 150.617L1429.86 58.0693L1413.53 41.7374V14.5174C1420.79 3.08263e-05 1429.86 -3.62934 1440.75 3.62932L1467.97 14.5174C1486.12 36.2934 1507.89 54.44 1533.3 68.9574ZM733.03 526.253C869.13 477.257 1027.01 422.817 1125 303.049L1233.88 188.725L1255.65 156.061L1310.09 85.2893L1359.09 14.5174C1359.09 3.62936 1371.79 3.62936 1397.2 14.5174C1418.97 30.8494 1402.64 41.7374 1397.2 47.1814C1397.2 61.6987 1389.94 74.4013 1375.42 85.2893C1328.24 157.876 1273.8 225.019 1212.1 286.717L1157.66 330.269C1146.77 352.045 1128.63 370.192 1103.22 384.709C1076 422.817 1032.45 439.149 999.786 477.257L918.126 531.697L907.238 548.029L831.021 575.249C820.133 575.249 811.06 580.693 803.802 591.581C767.508 591.581 731.215 597.025 694.922 607.913C687.663 611.543 676.775 604.284 662.258 586.137C665.887 564.361 673.146 553.473 684.034 553.473L733.03 526.253Z" fill="black"/>
<path d="M123.302 929.11C115.878 1399.56 238.318 1862.95 477.162 2268.33C557.007 2402.62 653.185 2524.2 765.694 2633.08C814.69 2682.08 820.134 2687.52 852.798 2698.41C907.238 2752.85 1005.23 2812.73 1070.56 2845.4L1293.76 2954.28C1330.06 2965.17 1353.65 2983.31 1364.53 3008.72C1342.76 3035.94 1304.65 3014.16 1277.43 3008.72L1152.22 2954.28C854.817 2816.98 607.485 2590.58 444.498 2306.44C400.946 2241.11 364.652 2172.16 335.618 2099.57C264.846 1990.69 226.738 1854.59 177.742 1734.82C145.078 1640.46 121.487 1544.28 106.97 1446.29C106.97 1429.96 85.1938 1424.51 90.6378 1408.18L57.9739 1179.53C74.3059 1141.43 52.5298 1125.09 52.5298 1081.54L57.9739 776.678C63.4179 749.458 63.4178 705.906 90.6378 695.018C108.784 716.794 117.858 744.014 117.858 776.678L123.302 929.11Z" fill="black"/>
<path d="M79.7496 1174.09C90.6376 1555.17 123.302 1974.36 308.398 2317.33C359.208 2437.1 424.536 2549.61 504.382 2654.86C537.046 2703.85 547.934 2709.3 569.71 2725.63C607.818 2780.07 678.59 2839.95 733.03 2878.06L896.35 3003.27C925.384 3014.16 943.531 3032.31 950.79 3057.71C923.57 3079.49 896.35 3057.71 869.13 3052.27L771.138 2986.94C545.686 2827.97 371.602 2606.58 270.29 2349.99C233.996 2295.55 208.591 2235.67 194.074 2170.34C139.634 2066.91 123.302 1952.58 85.1937 1843.7L36.1976 1604.17C28.9389 1593.28 25.3096 1580.58 25.3096 1566.06C14.4216 1504.36 7.16302 1440.85 3.53369 1375.52C19.8657 1342.85 3.53369 1321.08 3.53369 1293.86C3.53369 1206.75 7.16286 1121.47 14.4215 1037.99C14.4215 1005.33 25.3096 981.736 47.0856 967.219C65.2323 988.995 74.3056 1012.59 74.3056 1037.99L79.7496 1174.09ZM2654.76 1364.63C2597.81 1756.92 2448.54 2130.08 2219.24 2453.43C2146.65 2558.68 2055.92 2653.04 1947.04 2736.52L1876.27 2790.96L1696.62 2921.61C1636.63 2959.26 1572.75 2990.29 1506.08 3014.16C1478.86 3019.61 1451.64 3035.94 1429.86 3014.16C1429.86 2981.5 1462.53 2970.61 1484.3 2959.72C1706.96 2860.95 1909.86 2722.61 2083.14 2551.42L2181.13 2431.65C2224.69 2388.1 2251.91 2322.77 2290.01 2279.22C2348.08 2184.86 2393.45 2086.87 2426.11 1985.25L2502.33 1762.04C2495.07 1747.53 2495.07 1734.82 2502.33 1723.93L2545.88 1544.28C2567.66 1517.06 2551.33 1495.29 2562.21 1468.07C2583.99 1388.22 2598.51 1308.38 2605.77 1228.53C2609.39 1199.5 2622.1 1177.72 2643.87 1163.2C2671.09 1174.09 2660.21 1206.75 2665.65 1233.97L2660.21 1364.63" fill="black"/>
<path d="M1998.34 1583.39C1955.64 1595.48 1910.58 1601.94 1864.02 1601.94C1592.01 1601.94 1371.5 1381.42 1371.5 1109.41C1371.5 1002.46 1405.59 903.46 1463.51 822.703C1481.29 797.906 1473.83 761.73 1444.12 754.774C1317.56 725.14 1175.28 774.182 1100.77 901.9L744.656 1512.39V2318.33C744.656 2417.24 824.841 2497.43 923.754 2497.43H1819.24C1918.16 2497.43 1998.34 2417.24 1998.34 2318.33V1583.39Z" fill="#FFEBAE"/>
<path d="M1864.02 1601.94C1910.59 1601.94 1955.65 1595.47 1998.34 1583.39V2318.33C1998.34 2318.71 1998.34 2319.1 1998.34 2319.49C1997.72 2417.87 1917.78 2497.43 1819.25 2497.43H1033.58L1596.25 1522.85C1673.33 1572.88 1765.29 1601.94 1864.02 1601.94Z" fill="#FFDC70"/>
<path d="M2088.54 1593.06C2077.02 1573.04 2052.23 1565.28 2030.49 1573.08C2014.72 1578.75 1998.58 1583.63 1982.12 1587.68L2183.42 1937.66C2195.75 1959.11 2223.13 1966.49 2244.56 1954.14C2265.98 1941.79 2273.36 1914.39 2261.02 1892.93L2088.54 1593.06Z" fill="#EC0000"/>
<path d="M1487.89 791.43C1508.2 767.423 1502.71 729.469 1472.5 720.722C1322.97 677.423 1149.39 732.545 1061.08 886.09L481.979 1892.93C469.641 1914.39 477.011 1941.79 498.441 1954.14C519.871 1966.49 547.246 1959.11 559.585 1937.66L1138.69 930.818C1209.37 807.91 1352.91 769.088 1469.63 814.351C1475.49 806.528 1481.57 798.884 1487.89 791.43Z" fill="#EC0000"/>
<path d="M1828.33 751.218C1862.8 691.519 1948.97 691.519 1983.43 751.217L2254.87 1221.35C2289.34 1281.05 2246.25 1355.67 2177.32 1355.67H1634.45C1565.52 1355.67 1522.43 1281.05 1556.9 1221.35L1828.33 751.218Z" fill="#FFCC33"/>
<path fill-rule="evenodd" clip-rule="evenodd" d="M1905.88 840.768C1881.15 840.768 1861.1 860.813 1861.1 885.542V1064.64C1861.1 1089.37 1881.15 1109.42 1905.88 1109.42C1930.61 1109.42 1950.65 1089.37 1950.65 1064.64V885.542C1950.65 860.813 1930.61 840.768 1905.88 840.768ZM1905.88 1154.19C1881.15 1154.19 1861.1 1174.24 1861.1 1198.97C1861.1 1223.69 1881.15 1243.74 1905.88 1243.74C1930.61 1243.74 1950.65 1223.69 1950.65 1198.97C1950.65 1174.24 1930.61 1154.19 1905.88 1154.19Z" fill="#34466B"/>
<path d="M1640.15 2497.41V1825.43C1640.15 1800.9 1620.1 1781.02 1595.37 1781.02H1147.63C1122.9 1781.02 1102.85 1800.9 1102.85 1825.43V2497.41H1640.15Z" fill="#856300"/>
</svg>
